G04*
G04 #@! TF.GenerationSoftware,Altium Limited,Altium Designer,24.4.1 (13)*
G04*
G04 Layer_Color=1930808*
%FSLAX44Y44*%
%MOMM*%
G71*
G04*
G04 #@! TF.SameCoordinates,35E0C0FB-C19D-4D04-833B-EC0655963EBE*
G04*
G04*
G04 #@! TF.FilePolarity,Positive*
G04*
G01*
G75*
%ADD10C,0.2000*%
%ADD61C,0.0508*%
D10*
X442409Y334339D02*
Y348921D01*
Y334339D02*
X471991D01*
Y348921D01*
X442409D02*
X471991D01*
X380670Y161089D02*
X434670D01*
Y235151D01*
X380670D02*
X434670D01*
X380670Y161089D02*
Y235151D01*
X283795Y241101D02*
X341045D01*
X283795Y150059D02*
Y241101D01*
Y150059D02*
X341045D01*
Y241101D01*
X192410Y216850D02*
X272410D01*
Y329250D01*
X192410D02*
X272410D01*
X192410Y216850D02*
Y329250D01*
X41940Y660850D02*
X77440D01*
X41940Y621850D02*
Y660850D01*
Y621850D02*
X77440D01*
Y660850D01*
X80251Y580259D02*
Y600841D01*
X41669D02*
X80251D01*
X41669Y580259D02*
Y600841D01*
Y580259D02*
X80251D01*
Y554859D02*
Y575441D01*
X41669D02*
X80251D01*
X41669Y554859D02*
Y575441D01*
Y554859D02*
X80251D01*
X340660Y724800D02*
Y784300D01*
Y724800D02*
X466660D01*
Y784300D01*
X340660D02*
X466660D01*
D61*
X76960Y511430D02*
Y527430D01*
X44960Y511430D02*
X76960D01*
X44960D02*
Y527430D01*
X76960D01*
X186320Y410590D02*
X218320D01*
X186320Y394590D02*
Y410590D01*
Y394590D02*
X218320D01*
Y410590D01*
X419301Y593800D02*
X435301D01*
X419301D02*
Y625800D01*
X435301D01*
Y593800D02*
Y625800D01*
X46230Y502030D02*
X78230D01*
X46230Y486030D02*
Y502030D01*
Y486030D02*
X78230D01*
Y502030D01*
X76960Y534290D02*
Y550290D01*
X44960Y534290D02*
X76960D01*
X44960D02*
Y550290D01*
X76960D01*
M02*
