G04*
G04 #@! TF.GenerationSoftware,Altium Limited,Altium Designer,24.4.1 (13)*
G04*
G04 Layer_Color=1930808*
%FSLAX44Y44*%
%MOMM*%
G71*
G04*
G04 #@! TF.SameCoordinates,35E0C0FB-C19D-4D04-833B-EC0655963EBE*
G04*
G04*
G04 #@! TF.FilePolarity,Positive*
G04*
G01*
G75*
%ADD63C,0.1000*%
%ADD65C,0.0500*%
D63*
X262890Y350850D02*
Y360350D01*
X258140Y355600D02*
X267640D01*
X454660Y392760D02*
Y402260D01*
X449910Y397510D02*
X459410D01*
X434340Y393630D02*
Y402630D01*
X429840Y398130D02*
X438840D01*
X394030Y529590D02*
X403530D01*
X398780Y524840D02*
Y534340D01*
X321310Y333070D02*
Y342570D01*
X316560Y337820D02*
X326060D01*
X198120Y349580D02*
Y359080D01*
X193370Y354330D02*
X202870D01*
X231140Y350850D02*
Y360350D01*
X226390Y355600D02*
X235890D01*
X394030Y544830D02*
X403530D01*
X398780Y540080D02*
Y549580D01*
X324180Y360680D02*
X333680D01*
X328930Y355930D02*
Y365430D01*
X74930Y407750D02*
Y417750D01*
X69930Y412750D02*
X79930D01*
X373710Y631190D02*
X383210D01*
X378460Y626440D02*
Y635940D01*
X324180Y374650D02*
X333680D01*
X328930Y369900D02*
Y379400D01*
D65*
X256890Y345100D02*
X268890D01*
X256890Y366100D02*
X268890D01*
X256890Y345100D02*
Y366100D01*
X268890Y345100D02*
Y366100D01*
X132370Y438310D02*
Y640310D01*
Y438310D02*
X327370D01*
Y640310D01*
X132370D02*
X327370D01*
X448660Y408010D02*
X460660D01*
X448660Y387010D02*
X460660D01*
Y408010D01*
X448660Y387010D02*
Y408010D01*
X427340Y385130D02*
X441340D01*
X427340Y411130D02*
X441340D01*
X427340Y385130D02*
Y411130D01*
X441340Y385130D02*
Y411130D01*
X409280Y523590D02*
Y535590D01*
X388280Y523590D02*
Y535590D01*
Y523590D02*
X409280D01*
X388280Y535590D02*
X409280D01*
X315310Y348320D02*
X327310D01*
X315310Y327320D02*
X327310D01*
Y348320D01*
X315310Y327320D02*
Y348320D01*
X192120Y343830D02*
X204120D01*
X192120Y364830D02*
X204120D01*
X192120Y343830D02*
Y364830D01*
X204120Y343830D02*
Y364830D01*
X225140Y345100D02*
X237140D01*
X225140Y366100D02*
X237140D01*
X225140Y345100D02*
Y366100D01*
X237140Y345100D02*
Y366100D01*
X409280Y538830D02*
Y550830D01*
X388280Y538830D02*
Y550830D01*
Y538830D02*
X409280D01*
X388280Y550830D02*
X409280D01*
X318430Y354680D02*
Y366680D01*
X339430Y354680D02*
Y366680D01*
X318430D02*
X339430D01*
X318430Y354680D02*
X339430D01*
X41430Y396750D02*
X108430D01*
Y428750D01*
X41430Y396750D02*
Y428750D01*
X108430D01*
X367960Y625190D02*
Y637190D01*
X388960Y625190D02*
Y637190D01*
X367960D02*
X388960D01*
X367960Y625190D02*
X388960D01*
X318430Y368650D02*
Y380650D01*
X339430Y368650D02*
Y380650D01*
X318430D02*
X339430D01*
X318430Y368650D02*
X339430D01*
M02*
