G04*
G04 #@! TF.GenerationSoftware,Altium Limited,Altium Designer,24.4.1 (13)*
G04*
G04 Layer_Color=16711935*
%FSLAX44Y44*%
%MOMM*%
G71*
G04*
G04 #@! TF.SameCoordinates,F71D25A8-AE48-4460-AF49-DCF2FFE79A6F*
G04*
G04*
G04 #@! TF.FilePolarity,Negative*
G04*
G01*
G75*
%ADD45C,1.7272*%
%ADD46C,2.5400*%
%ADD47R,1.4000X1.4000*%
%ADD48C,1.4000*%
%ADD49C,1.2192*%
%ADD50R,1.2192X1.2192*%
%ADD51C,2.3400*%
D45*
X184150Y687070D02*
D03*
X191770Y66040D02*
D03*
X458470Y505460D02*
D03*
D46*
X275590Y62230D02*
D03*
X326390D02*
D03*
X102870Y741680D02*
D03*
X52070D02*
D03*
X63500Y62230D02*
D03*
X114300D02*
D03*
X466090Y63500D02*
D03*
X415290D02*
D03*
D47*
X441160Y749300D02*
D03*
D48*
X416160D02*
D03*
X391160D02*
D03*
X366160D02*
D03*
D49*
X250095Y754475D02*
D03*
Y767175D02*
D03*
X237395D02*
D03*
X224695D02*
D03*
X237395Y754475D02*
D03*
D50*
X224695D02*
D03*
D51*
X147630Y345320D02*
D03*
X27630D02*
D03*
Y223320D02*
D03*
X147630D02*
D03*
X87630Y203320D02*
D03*
M02*
