G04*
G04 #@! TF.GenerationSoftware,Altium Limited,Altium Designer,24.4.1 (13)*
G04*
G04 Layer_Color=255*
%FSLAX44Y44*%
%MOMM*%
G71*
G04*
G04 #@! TF.SameCoordinates,35E0C0FB-C19D-4D04-833B-EC0655963EBE*
G04*
G04*
G04 #@! TF.FilePolarity,Positive*
G04*
G01*
G75*
%ADD17R,0.8500X0.7000*%
%ADD18R,1.1000X1.0000*%
%ADD19R,0.9000X0.9000*%
%ADD20R,1.5000X0.9000*%
%ADD21R,0.9000X1.5000*%
%ADD22R,0.8500X0.8500*%
%ADD23R,0.9000X0.7000*%
%ADD24R,0.7000X0.8500*%
%ADD25R,1.0000X1.1000*%
%ADD26R,1.0065X0.9582*%
G04:AMPARAMS|DCode=27|XSize=2.1741mm|YSize=0.5821mm|CornerRadius=0.2911mm|HoleSize=0mm|Usage=FLASHONLY|Rotation=90.000|XOffset=0mm|YOffset=0mm|HoleType=Round|Shape=RoundedRectangle|*
%AMROUNDEDRECTD27*
21,1,2.1741,0.0000,0,0,90.0*
21,1,1.5919,0.5821,0,0,90.0*
1,1,0.5821,0.0000,0.7960*
1,1,0.5821,0.0000,-0.7960*
1,1,0.5821,0.0000,-0.7960*
1,1,0.5821,0.0000,0.7960*
%
%ADD27ROUNDEDRECTD27*%
%ADD28R,0.5821X2.1741*%
G04:AMPARAMS|DCode=29|XSize=2.4033mm|YSize=0.9461mm|CornerRadius=0.473mm|HoleSize=0mm|Usage=FLASHONLY|Rotation=270.000|XOffset=0mm|YOffset=0mm|HoleType=Round|Shape=RoundedRectangle|*
%AMROUNDEDRECTD29*
21,1,2.4033,0.0000,0,0,270.0*
21,1,1.4572,0.9461,0,0,270.0*
1,1,0.9461,0.0000,-0.7286*
1,1,0.9461,0.0000,0.7286*
1,1,0.9461,0.0000,0.7286*
1,1,0.9461,0.0000,-0.7286*
%
%ADD29ROUNDEDRECTD29*%
%ADD30R,0.9461X2.4033*%
%ADD31C,1.3680*%
%ADD32R,2.5000X1.7000*%
G04:AMPARAMS|DCode=33|XSize=1.1mm|YSize=0.6mm|CornerRadius=0.051mm|HoleSize=0mm|Usage=FLASHONLY|Rotation=270.000|XOffset=0mm|YOffset=0mm|HoleType=Round|Shape=RoundedRectangle|*
%AMROUNDEDRECTD33*
21,1,1.1000,0.4980,0,0,270.0*
21,1,0.9980,0.6000,0,0,270.0*
1,1,0.1020,-0.2490,-0.4990*
1,1,0.1020,-0.2490,0.4990*
1,1,0.1020,0.2490,0.4990*
1,1,0.1020,0.2490,-0.4990*
%
%ADD33ROUNDEDRECTD33*%
%ADD34R,1.2065X1.0582*%
%ADD46C,2.5400*%
%ADD47R,1.4000X1.4000*%
%ADD48C,1.4000*%
%ADD51C,2.3400*%
%ADD55C,1.5240*%
%ADD56C,0.4000*%
%ADD57C,1.0160*%
%ADD58R,1.0160X1.0160*%
D17*
X262890Y349600D02*
D03*
Y361600D02*
D03*
X454660Y403510D02*
D03*
Y391510D02*
D03*
X321310Y343820D02*
D03*
Y331820D02*
D03*
X198120Y348330D02*
D03*
Y360330D02*
D03*
X231140Y349600D02*
D03*
Y361600D02*
D03*
D18*
X69460Y519430D02*
D03*
X52460D02*
D03*
X193820Y402590D02*
D03*
X210820D02*
D03*
X53730Y494030D02*
D03*
X70730D02*
D03*
X69460Y542290D02*
D03*
X52460D02*
D03*
D19*
X214870Y548710D02*
D03*
X200870D02*
D03*
X228870D02*
D03*
X200870Y534710D02*
D03*
X214870D02*
D03*
X228870D02*
D03*
X200870Y562710D02*
D03*
X214870D02*
D03*
X228870D02*
D03*
D20*
X142370Y625910D02*
D03*
Y613210D02*
D03*
Y600510D02*
D03*
Y587810D02*
D03*
Y575110D02*
D03*
Y562410D02*
D03*
Y549710D02*
D03*
Y537010D02*
D03*
Y524310D02*
D03*
Y511610D02*
D03*
Y498910D02*
D03*
Y486210D02*
D03*
Y473510D02*
D03*
Y460810D02*
D03*
X317370D02*
D03*
Y473510D02*
D03*
Y486210D02*
D03*
Y498910D02*
D03*
Y511610D02*
D03*
Y524310D02*
D03*
Y537010D02*
D03*
Y549710D02*
D03*
Y562410D02*
D03*
Y575110D02*
D03*
Y587810D02*
D03*
Y600510D02*
D03*
Y613210D02*
D03*
Y625910D02*
D03*
D21*
X160020Y448310D02*
D03*
X172720D02*
D03*
X185420D02*
D03*
X198120D02*
D03*
X210820D02*
D03*
X223520D02*
D03*
X236220D02*
D03*
X248920D02*
D03*
X261620D02*
D03*
X274320D02*
D03*
X287020D02*
D03*
X299720D02*
D03*
D22*
X374520Y325120D02*
D03*
X390020D02*
D03*
X374520Y346710D02*
D03*
X390020D02*
D03*
D23*
X434340Y391130D02*
D03*
Y405130D02*
D03*
D24*
X404780Y529590D02*
D03*
X392780D02*
D03*
X404780Y544830D02*
D03*
X392780D02*
D03*
X322930Y360680D02*
D03*
X334930D02*
D03*
X372460Y631190D02*
D03*
X384460D02*
D03*
X322930Y374650D02*
D03*
X334930D02*
D03*
D25*
X427301Y601300D02*
D03*
Y618300D02*
D03*
D26*
X464458Y341630D02*
D03*
X449941D02*
D03*
D27*
X388620Y221781D02*
D03*
X401320D02*
D03*
X414020D02*
D03*
X426720D02*
D03*
Y174459D02*
D03*
X414020D02*
D03*
X401320D02*
D03*
D28*
X388620D02*
D03*
D29*
X325120Y167076D02*
D03*
X299720D02*
D03*
Y224084D02*
D03*
D30*
X325120D02*
D03*
D31*
X207010Y320650D02*
D03*
X232410D02*
D03*
X257810D02*
D03*
Y225450D02*
D03*
X232410D02*
D03*
X207010D02*
D03*
D32*
X94930Y412750D02*
D03*
X54930D02*
D03*
D33*
X69190Y628350D02*
D03*
X50190D02*
D03*
Y654350D02*
D03*
X59690D02*
D03*
X69190D02*
D03*
D34*
X52702Y590550D02*
D03*
X69219D02*
D03*
X52702Y565150D02*
D03*
X69219D02*
D03*
D46*
X275590Y62230D02*
D03*
X326390D02*
D03*
X102870Y741680D02*
D03*
X52070D02*
D03*
X63500Y62230D02*
D03*
X114300D02*
D03*
X466090Y63500D02*
D03*
X415290D02*
D03*
D47*
X441160Y749300D02*
D03*
D48*
X416160D02*
D03*
X391160D02*
D03*
X366160D02*
D03*
D51*
X147630Y345320D02*
D03*
X27630D02*
D03*
Y223320D02*
D03*
X147630D02*
D03*
X87630Y203320D02*
D03*
D55*
X184150Y687070D02*
D03*
X191770Y66040D02*
D03*
X458470Y505460D02*
D03*
D56*
X214870Y555710D02*
D03*
X200870D02*
D03*
X228870D02*
D03*
X200870Y541710D02*
D03*
X214870D02*
D03*
X228870D02*
D03*
X207870Y562710D02*
D03*
X221870D02*
D03*
X207870Y548710D02*
D03*
X221870D02*
D03*
X207870Y534710D02*
D03*
X221870D02*
D03*
D57*
X250095Y754475D02*
D03*
Y767175D02*
D03*
X237395D02*
D03*
X224695D02*
D03*
X237395Y754475D02*
D03*
D58*
X224695D02*
D03*
M02*
