G04*
G04 #@! TF.GenerationSoftware,Altium Limited,Altium Designer,24.4.1 (13)*
G04*
G04 Layer_Color=32896*
%FSLAX44Y44*%
%MOMM*%
G71*
G04*
G04 #@! TF.SameCoordinates,35E0C0FB-C19D-4D04-833B-EC0655963EBE*
G04*
G04*
G04 #@! TF.FilePolarity,Positive*
G04*
G01*
G75*
%ADD16C,0.2540*%
%ADD60C,0.0254*%
%ADD62C,0.3810*%
G36*
X540944Y457593D02*
X541250D01*
X541638Y457537D01*
X542055Y457510D01*
X542527Y457454D01*
X543026Y457371D01*
X543582Y457288D01*
X544720Y457038D01*
X545331Y456899D01*
X545942Y456704D01*
X546580Y456510D01*
X547191Y456260D01*
X547219Y456233D01*
X547330Y456205D01*
X547496Y456121D01*
X547746Y456011D01*
X548024Y455899D01*
X548357Y455733D01*
X548718Y455538D01*
X549134Y455344D01*
X549578Y455122D01*
X550023Y454872D01*
X550994Y454317D01*
X551994Y453679D01*
X552938Y452984D01*
Y451291D01*
X552910D01*
X552854Y451346D01*
X552771Y451402D01*
X552660Y451457D01*
X552493Y451541D01*
X552327Y451652D01*
X552105Y451763D01*
X551855Y451902D01*
X551300Y452207D01*
X550606Y452540D01*
X549856Y452873D01*
X548995Y453262D01*
X548079Y453623D01*
X547108Y453956D01*
X546053Y454289D01*
X544970Y454595D01*
X543859Y454845D01*
X542693Y455039D01*
X541527Y455150D01*
X540334Y455205D01*
X540306D01*
X540222D01*
X540084D01*
X539917D01*
X539695Y455178D01*
X539417D01*
X539140Y455150D01*
X538807Y455122D01*
X538446Y455094D01*
X538057Y455067D01*
X537252Y454955D01*
X536363Y454817D01*
X535447Y454622D01*
X535420D01*
X535364Y454595D01*
X535253Y454567D01*
X535114Y454539D01*
X534948Y454484D01*
X534725Y454428D01*
X534226Y454289D01*
X533671Y454123D01*
X533032Y453901D01*
X532338Y453651D01*
X531672Y453373D01*
X531644D01*
X531616Y453345D01*
X531533Y453318D01*
X531450Y453262D01*
X531311Y453206D01*
X531144Y453123D01*
X530978Y453040D01*
X530728Y452929D01*
X530478Y452790D01*
X530200Y452651D01*
X529867Y452485D01*
X529506Y452290D01*
X529118Y452068D01*
X528701Y451846D01*
X528229Y451568D01*
X527729Y451291D01*
Y452984D01*
X527757Y453012D01*
X527868Y453096D01*
X528063Y453206D01*
X528285Y453373D01*
X528590Y453595D01*
X528951Y453817D01*
X529340Y454067D01*
X529784Y454345D01*
X530284Y454650D01*
X530811Y454928D01*
X531339Y455233D01*
X531922Y455538D01*
X533115Y456094D01*
X533754Y456371D01*
X534365Y456594D01*
X534392D01*
X534503Y456649D01*
X534642Y456677D01*
X534864Y456760D01*
X535114Y456843D01*
X535420Y456927D01*
X535780Y457010D01*
X536169Y457121D01*
X536613Y457204D01*
X537085Y457288D01*
X537557Y457371D01*
X538085Y457454D01*
X539195Y457565D01*
X540334Y457621D01*
X540361D01*
X540500D01*
X540694D01*
X540944Y457593D01*
D02*
G37*
G36*
X547274Y445572D02*
X538529D01*
X538501D01*
X538473D01*
X538307D01*
X538057D01*
X537752Y445544D01*
X537419Y445516D01*
X537085Y445489D01*
X536752Y445433D01*
X536502Y445350D01*
X536474D01*
X536391Y445294D01*
X536280Y445239D01*
X536141Y445155D01*
X535975Y445044D01*
X535808Y444906D01*
X535642Y444739D01*
X535475Y444517D01*
X535447Y444489D01*
X535420Y444406D01*
X535364Y444295D01*
X535281Y444100D01*
X535197Y443906D01*
X535142Y443656D01*
X535114Y443406D01*
X535086Y443101D01*
Y442962D01*
X535114Y442851D01*
X535142Y442574D01*
X535197Y442240D01*
X535336Y441852D01*
X535503Y441435D01*
X535753Y441019D01*
X536086Y440630D01*
X536141Y440602D01*
X536280Y440491D01*
X536502Y440325D01*
X536836Y440158D01*
X537280Y439964D01*
X537807Y439825D01*
X538446Y439714D01*
X539195Y439659D01*
X547274D01*
Y437299D01*
X538251D01*
X538224D01*
X538168D01*
X538112D01*
X538002D01*
X537696Y437271D01*
X537363Y437215D01*
X536974Y437160D01*
X536586Y437049D01*
X536225Y436910D01*
X535891Y436716D01*
X535864Y436688D01*
X535753Y436605D01*
X535642Y436466D01*
X535475Y436272D01*
X535336Y436022D01*
X535197Y435689D01*
X535114Y435300D01*
X535086Y434828D01*
Y434661D01*
X535114Y434467D01*
X535142Y434245D01*
X535225Y433967D01*
X535308Y433634D01*
X535447Y433329D01*
X535614Y432996D01*
X535642Y432968D01*
X535725Y432857D01*
X535836Y432718D01*
X536003Y432524D01*
X536225Y432329D01*
X536502Y432135D01*
X536808Y431941D01*
X537169Y431774D01*
X537224Y431746D01*
X537363Y431719D01*
X537585Y431663D01*
X537890Y431580D01*
X538307Y431497D01*
X538807Y431441D01*
X539390Y431413D01*
X540056Y431385D01*
X547274D01*
Y429026D01*
X533337D01*
Y431136D01*
X535336D01*
X535281Y431163D01*
X535170Y431247D01*
X534975Y431413D01*
X534753Y431608D01*
X534476Y431857D01*
X534198Y432163D01*
X533920Y432496D01*
X533671Y432885D01*
X533643Y432940D01*
X533559Y433079D01*
X533476Y433301D01*
X533337Y433606D01*
X533226Y433967D01*
X533143Y434384D01*
X533060Y434856D01*
X533032Y435355D01*
Y435605D01*
X533060Y435911D01*
X533115Y436244D01*
X533199Y436660D01*
X533310Y437077D01*
X533476Y437493D01*
X533698Y437882D01*
X533726Y437937D01*
X533809Y438048D01*
X533948Y438215D01*
X534170Y438437D01*
X534420Y438659D01*
X534725Y438909D01*
X535086Y439131D01*
X535503Y439298D01*
X535475Y439325D01*
X535392Y439381D01*
X535281Y439464D01*
X535114Y439603D01*
X534920Y439770D01*
X534725Y439964D01*
X534503Y440186D01*
X534254Y440464D01*
X534031Y440769D01*
X533809Y441074D01*
X533615Y441435D01*
X533421Y441824D01*
X533254Y442240D01*
X533143Y442685D01*
X533060Y443129D01*
X533032Y443629D01*
Y443823D01*
X533060Y443962D01*
Y444156D01*
X533088Y444350D01*
X533171Y444822D01*
X533310Y445322D01*
X533532Y445849D01*
X533809Y446377D01*
X534198Y446821D01*
X534254Y446877D01*
X534420Y446988D01*
X534670Y447182D01*
X534864Y447265D01*
X535059Y447376D01*
X535308Y447487D01*
X535558Y447571D01*
X535836Y447682D01*
X536169Y447765D01*
X536502Y447821D01*
X536891Y447876D01*
X537280Y447932D01*
X537724D01*
X547274D01*
Y445572D01*
D02*
G37*
G36*
Y423196D02*
X538529D01*
X538501D01*
X538473D01*
X538307D01*
X538057D01*
X537752Y423168D01*
X537419Y423140D01*
X537085Y423112D01*
X536752Y423057D01*
X536502Y422974D01*
X536474D01*
X536391Y422918D01*
X536280Y422862D01*
X536141Y422779D01*
X535975Y422668D01*
X535808Y422529D01*
X535642Y422363D01*
X535475Y422141D01*
X535447Y422113D01*
X535420Y422030D01*
X535364Y421918D01*
X535281Y421724D01*
X535197Y421530D01*
X535142Y421280D01*
X535114Y421030D01*
X535086Y420725D01*
Y420586D01*
X535114Y420475D01*
X535142Y420197D01*
X535197Y419864D01*
X535336Y419475D01*
X535503Y419059D01*
X535753Y418643D01*
X536086Y418254D01*
X536141Y418226D01*
X536280Y418115D01*
X536502Y417948D01*
X536836Y417782D01*
X537280Y417588D01*
X537807Y417449D01*
X538446Y417338D01*
X539195Y417282D01*
X547274D01*
Y414922D01*
X538251D01*
X538224D01*
X538168D01*
X538112D01*
X538002D01*
X537696Y414895D01*
X537363Y414839D01*
X536974Y414784D01*
X536586Y414673D01*
X536225Y414534D01*
X535891Y414339D01*
X535864Y414312D01*
X535753Y414228D01*
X535642Y414090D01*
X535475Y413895D01*
X535336Y413645D01*
X535197Y413312D01*
X535114Y412924D01*
X535086Y412452D01*
Y412285D01*
X535114Y412091D01*
X535142Y411869D01*
X535225Y411591D01*
X535308Y411258D01*
X535447Y410952D01*
X535614Y410619D01*
X535642Y410592D01*
X535725Y410480D01*
X535836Y410342D01*
X536003Y410147D01*
X536225Y409953D01*
X536502Y409759D01*
X536808Y409564D01*
X537169Y409398D01*
X537224Y409370D01*
X537363Y409342D01*
X537585Y409287D01*
X537890Y409203D01*
X538307Y409120D01*
X538807Y409065D01*
X539390Y409037D01*
X540056Y409009D01*
X547274D01*
Y406649D01*
X533337D01*
Y408759D01*
X535336D01*
X535281Y408787D01*
X535170Y408870D01*
X534975Y409037D01*
X534753Y409231D01*
X534476Y409481D01*
X534198Y409786D01*
X533920Y410120D01*
X533671Y410508D01*
X533643Y410564D01*
X533559Y410703D01*
X533476Y410925D01*
X533337Y411230D01*
X533226Y411591D01*
X533143Y412007D01*
X533060Y412479D01*
X533032Y412979D01*
Y413229D01*
X533060Y413534D01*
X533115Y413867D01*
X533199Y414284D01*
X533310Y414700D01*
X533476Y415117D01*
X533698Y415505D01*
X533726Y415561D01*
X533809Y415672D01*
X533948Y415839D01*
X534170Y416061D01*
X534420Y416283D01*
X534725Y416533D01*
X535086Y416755D01*
X535503Y416921D01*
X535475Y416949D01*
X535392Y417005D01*
X535281Y417088D01*
X535114Y417227D01*
X534920Y417393D01*
X534725Y417588D01*
X534503Y417810D01*
X534254Y418087D01*
X534031Y418393D01*
X533809Y418698D01*
X533615Y419059D01*
X533421Y419448D01*
X533254Y419864D01*
X533143Y420308D01*
X533060Y420752D01*
X533032Y421252D01*
Y421447D01*
X533060Y421585D01*
Y421780D01*
X533088Y421974D01*
X533171Y422446D01*
X533310Y422946D01*
X533532Y423473D01*
X533809Y424001D01*
X534198Y424445D01*
X534254Y424500D01*
X534420Y424611D01*
X534670Y424806D01*
X534864Y424889D01*
X535059Y425000D01*
X535308Y425111D01*
X535558Y425195D01*
X535836Y425305D01*
X536169Y425389D01*
X536502Y425444D01*
X536891Y425500D01*
X537280Y425555D01*
X537724D01*
X547274D01*
Y423196D01*
D02*
G37*
G36*
X552938Y402235D02*
X552910Y402207D01*
X552826Y402152D01*
X552688Y402041D01*
X552493Y401902D01*
X552271Y401735D01*
X551994Y401541D01*
X551660Y401319D01*
X551300Y401097D01*
X550883Y400819D01*
X550439Y400569D01*
X549967Y400292D01*
X549467Y400014D01*
X548940Y399737D01*
X548385Y399459D01*
X547191Y398931D01*
X547163Y398904D01*
X547052Y398876D01*
X546858Y398820D01*
X546608Y398737D01*
X546302Y398626D01*
X545969Y398515D01*
X545553Y398404D01*
X545081Y398265D01*
X544609Y398154D01*
X544054Y398015D01*
X543498Y397904D01*
X542915Y397821D01*
X541638Y397654D01*
X541000Y397627D01*
X540334Y397599D01*
X540306D01*
X540195D01*
X540028D01*
X539806Y397627D01*
X539528D01*
X539195Y397654D01*
X538834Y397682D01*
X538418Y397738D01*
X537974Y397765D01*
X537502Y397849D01*
X536502Y398015D01*
X535447Y398265D01*
X534365Y398598D01*
X534337Y398626D01*
X534226Y398654D01*
X534031Y398709D01*
X533782Y398820D01*
X533504Y398931D01*
X533143Y399098D01*
X532727Y399292D01*
X532282Y399487D01*
X531810Y399737D01*
X531283Y399986D01*
X530728Y400292D01*
X530173Y400625D01*
X529562Y400986D01*
X528951Y401375D01*
X528340Y401791D01*
X527729Y402235D01*
Y403929D01*
X527757Y403901D01*
X527840Y403873D01*
X527979Y403790D01*
X528174Y403679D01*
X528396Y403540D01*
X528673Y403401D01*
X529256Y403068D01*
X529895Y402707D01*
X530533Y402374D01*
X531144Y402041D01*
X531394Y401930D01*
X531644Y401819D01*
X531672D01*
X531727Y401791D01*
X531810Y401735D01*
X531949Y401680D01*
X532116Y401624D01*
X532310Y401541D01*
X532532Y401458D01*
X532782Y401375D01*
X533365Y401152D01*
X534004Y400958D01*
X534698Y400764D01*
X535420Y400569D01*
X535447D01*
X535531Y400542D01*
X535669Y400514D01*
X535836Y400486D01*
X536058Y400431D01*
X536336Y400403D01*
X536613Y400347D01*
X536946Y400292D01*
X537307Y400236D01*
X537696Y400181D01*
X538529Y400097D01*
X539417Y400042D01*
X540334Y400014D01*
X540361D01*
X540417D01*
X540500D01*
X540611D01*
X540778Y400042D01*
X540944D01*
X541166Y400070D01*
X541416D01*
X541999Y400125D01*
X542665Y400209D01*
X543443Y400347D01*
X544276Y400514D01*
X545192Y400708D01*
X546191Y400958D01*
X547246Y401291D01*
X548329Y401680D01*
X549440Y402124D01*
X550606Y402624D01*
X551772Y403235D01*
X552938Y403929D01*
Y402235D01*
D02*
G37*
G36*
X538668Y387188D02*
X539001D01*
X539362Y387160D01*
X539751Y387132D01*
X540639Y387049D01*
X541555Y386910D01*
X542443Y386744D01*
X542860Y386633D01*
X543276Y386494D01*
X543304D01*
X543360Y386466D01*
X543471Y386411D01*
X543609Y386355D01*
X543804Y386300D01*
X543998Y386189D01*
X544470Y385966D01*
X544970Y385689D01*
X545525Y385328D01*
X546025Y384911D01*
X546497Y384412D01*
Y384384D01*
X546552Y384356D01*
X546608Y384273D01*
X546663Y384162D01*
X546747Y384023D01*
X546858Y383884D01*
X547052Y383468D01*
X547246Y382968D01*
X547441Y382385D01*
X547552Y381691D01*
X547607Y380942D01*
Y380664D01*
X547579Y380470D01*
X547552Y380247D01*
X547496Y379970D01*
X547441Y379664D01*
X547357Y379331D01*
X547246Y378998D01*
X547135Y378637D01*
X546969Y378276D01*
X546774Y377915D01*
X546552Y377555D01*
X546275Y377194D01*
X545969Y376861D01*
X545636Y376555D01*
X545608Y376527D01*
X545525Y376472D01*
X545386Y376389D01*
X545164Y376250D01*
X544914Y376111D01*
X544581Y375972D01*
X544192Y375778D01*
X543748Y375611D01*
X543248Y375445D01*
X542665Y375278D01*
X542027Y375111D01*
X541305Y374973D01*
X540528Y374834D01*
X539695Y374751D01*
X538779Y374695D01*
X537807Y374667D01*
X537779D01*
X537668D01*
X537474D01*
X537252D01*
X536946Y374695D01*
X536613D01*
X536252Y374723D01*
X535836Y374751D01*
X534975Y374834D01*
X534059Y374973D01*
X533143Y375139D01*
X532727Y375250D01*
X532310Y375361D01*
X532282D01*
X532227Y375389D01*
X532116Y375445D01*
X531977Y375500D01*
X531783Y375556D01*
X531588Y375667D01*
X531116Y375889D01*
X530617Y376166D01*
X530089Y376527D01*
X529562Y376944D01*
X529118Y377444D01*
Y377471D01*
X529062Y377499D01*
X529007Y377582D01*
X528951Y377693D01*
X528840Y377832D01*
X528757Y377999D01*
X528535Y378415D01*
X528340Y378915D01*
X528146Y379498D01*
X528035Y380192D01*
X527979Y380942D01*
Y381191D01*
X528007Y381497D01*
X528063Y381858D01*
X528146Y382274D01*
X528257Y382718D01*
X528396Y383190D01*
X528618Y383634D01*
Y383662D01*
X528646Y383690D01*
X528729Y383829D01*
X528868Y384051D01*
X529062Y384328D01*
X529340Y384634D01*
X529645Y384967D01*
X530006Y385272D01*
X530422Y385578D01*
X530478Y385606D01*
X530617Y385717D01*
X530867Y385828D01*
X531227Y386022D01*
X531644Y386189D01*
X532116Y386411D01*
X532671Y386605D01*
X533282Y386772D01*
X533310D01*
X533365Y386799D01*
X533448Y386827D01*
X533587Y386855D01*
X533754Y386883D01*
X533948Y386910D01*
X534198Y386966D01*
X534476Y386994D01*
X534781Y387049D01*
X535114Y387077D01*
X535503Y387105D01*
X535891Y387160D01*
X536336Y387188D01*
X536780D01*
X537280Y387216D01*
X537807D01*
X537835D01*
X537946D01*
X538140D01*
X538362D01*
X538668Y387188D01*
D02*
G37*
G36*
X547774Y371141D02*
X548135Y371114D01*
X548496Y371030D01*
X548912Y370947D01*
X549301Y370808D01*
X549662Y370642D01*
X549689Y370614D01*
X549800Y370531D01*
X549967Y370420D01*
X550189Y370225D01*
X550411Y370003D01*
X550633Y369726D01*
X550883Y369365D01*
X551077Y368976D01*
X550078Y368310D01*
X550050Y368338D01*
X550023Y368421D01*
X549939Y368560D01*
X549828Y368726D01*
X549689Y368893D01*
X549523Y369087D01*
X549328Y369254D01*
X549106Y369392D01*
X549079Y369420D01*
X548995Y369448D01*
X548829Y369504D01*
X548634Y369587D01*
X548385Y369642D01*
X548051Y369726D01*
X547691Y369781D01*
X547274Y369809D01*
Y368476D01*
X544581D01*
Y371169D01*
X547274D01*
X547302D01*
X547330D01*
X547413D01*
X547524D01*
X547774Y371141D01*
D02*
G37*
G36*
X538668Y364784D02*
X539001D01*
X539362Y364756D01*
X539751Y364728D01*
X540639Y364645D01*
X541555Y364506D01*
X542443Y364340D01*
X542860Y364229D01*
X543276Y364090D01*
X543304D01*
X543360Y364062D01*
X543471Y364007D01*
X543609Y363951D01*
X543804Y363895D01*
X543998Y363784D01*
X544470Y363562D01*
X544970Y363285D01*
X545525Y362924D01*
X546025Y362507D01*
X546497Y362008D01*
Y361980D01*
X546552Y361952D01*
X546608Y361869D01*
X546663Y361758D01*
X546747Y361619D01*
X546858Y361480D01*
X547052Y361064D01*
X547246Y360564D01*
X547441Y359981D01*
X547552Y359287D01*
X547607Y358537D01*
Y358260D01*
X547579Y358065D01*
X547552Y357843D01*
X547496Y357566D01*
X547441Y357260D01*
X547357Y356927D01*
X547246Y356594D01*
X547135Y356233D01*
X546969Y355872D01*
X546774Y355511D01*
X546552Y355150D01*
X546275Y354790D01*
X545969Y354456D01*
X545636Y354151D01*
X545608Y354123D01*
X545525Y354068D01*
X545386Y353984D01*
X545164Y353846D01*
X544914Y353707D01*
X544581Y353568D01*
X544192Y353374D01*
X543748Y353207D01*
X543248Y353041D01*
X542665Y352874D01*
X542027Y352707D01*
X541305Y352569D01*
X540528Y352430D01*
X539695Y352346D01*
X538779Y352291D01*
X537807Y352263D01*
X537779D01*
X537668D01*
X537474D01*
X537252D01*
X536946Y352291D01*
X536613D01*
X536252Y352319D01*
X535836Y352346D01*
X534975Y352430D01*
X534059Y352569D01*
X533143Y352735D01*
X532727Y352846D01*
X532310Y352957D01*
X532282D01*
X532227Y352985D01*
X532116Y353041D01*
X531977Y353096D01*
X531783Y353152D01*
X531588Y353263D01*
X531116Y353485D01*
X530617Y353762D01*
X530089Y354123D01*
X529562Y354540D01*
X529118Y355039D01*
Y355067D01*
X529062Y355095D01*
X529007Y355178D01*
X528951Y355289D01*
X528840Y355428D01*
X528757Y355595D01*
X528535Y356011D01*
X528340Y356511D01*
X528146Y357094D01*
X528035Y357788D01*
X527979Y358537D01*
Y358787D01*
X528007Y359093D01*
X528063Y359454D01*
X528146Y359870D01*
X528257Y360314D01*
X528396Y360786D01*
X528618Y361230D01*
Y361258D01*
X528646Y361286D01*
X528729Y361425D01*
X528868Y361647D01*
X529062Y361924D01*
X529340Y362230D01*
X529645Y362563D01*
X530006Y362868D01*
X530422Y363174D01*
X530478Y363201D01*
X530617Y363312D01*
X530867Y363424D01*
X531227Y363618D01*
X531644Y363784D01*
X532116Y364007D01*
X532671Y364201D01*
X533282Y364367D01*
X533310D01*
X533365Y364395D01*
X533448Y364423D01*
X533587Y364451D01*
X533754Y364478D01*
X533948Y364506D01*
X534198Y364562D01*
X534476Y364590D01*
X534781Y364645D01*
X535114Y364673D01*
X535503Y364701D01*
X535891Y364756D01*
X536336Y364784D01*
X536780D01*
X537280Y364812D01*
X537807D01*
X537835D01*
X537946D01*
X538140D01*
X538362D01*
X538668Y364784D01*
D02*
G37*
G36*
X542221Y349931D02*
X542416Y349903D01*
X542665Y349876D01*
X542943Y349820D01*
X543248Y349737D01*
X543887Y349543D01*
X544248Y349404D01*
X544581Y349209D01*
X544942Y349015D01*
X545275Y348793D01*
X545608Y348515D01*
X545942Y348210D01*
X545969Y348182D01*
X546025Y348127D01*
X546108Y348043D01*
X546191Y347905D01*
X546330Y347710D01*
X546469Y347516D01*
X546608Y347266D01*
X546774Y346988D01*
X546941Y346683D01*
X547080Y346322D01*
X547219Y345933D01*
X547357Y345545D01*
X547441Y345101D01*
X547524Y344628D01*
X547579Y344157D01*
X547607Y343629D01*
Y343352D01*
X547579Y343157D01*
X547552Y342907D01*
X547524Y342630D01*
X547468Y342324D01*
X547385Y341991D01*
X547191Y341242D01*
X547052Y340853D01*
X546913Y340492D01*
X546719Y340103D01*
X546497Y339715D01*
X546247Y339354D01*
X545942Y339021D01*
X545914Y338993D01*
X545858Y338937D01*
X545775Y338854D01*
X545636Y338743D01*
X545470Y338632D01*
X545275Y338465D01*
X545053Y338326D01*
X544775Y338160D01*
X544498Y337993D01*
X544165Y337855D01*
X543471Y337577D01*
X543054Y337466D01*
X542638Y337383D01*
X542194Y337327D01*
X541749Y337299D01*
X541722D01*
X541666D01*
X541555D01*
X541444Y337327D01*
X541277D01*
X541083Y337355D01*
X540639Y337410D01*
X540139Y337521D01*
X539639Y337688D01*
X539112Y337938D01*
X538612Y338243D01*
X538585D01*
X538557Y338299D01*
X538418Y338410D01*
X538196Y338632D01*
X537918Y338937D01*
X537641Y339326D01*
X537335Y339798D01*
X537085Y340325D01*
X536891Y340964D01*
Y340936D01*
X536863Y340908D01*
X536836Y340825D01*
X536780Y340714D01*
X536669Y340464D01*
X536502Y340131D01*
X536280Y339770D01*
X536003Y339409D01*
X535697Y339076D01*
X535364Y338771D01*
X535308Y338743D01*
X535197Y338660D01*
X534975Y338549D01*
X534698Y338438D01*
X534337Y338299D01*
X533920Y338188D01*
X533448Y338104D01*
X532949Y338077D01*
X532921D01*
X532865D01*
X532754D01*
X532588Y338104D01*
X532421Y338132D01*
X532199Y338160D01*
X531727Y338271D01*
X531172Y338438D01*
X530589Y338715D01*
X530284Y338882D01*
X529978Y339076D01*
X529701Y339326D01*
X529423Y339576D01*
X529395Y339604D01*
X529367Y339659D01*
X529284Y339742D01*
X529201Y339853D01*
X529090Y339992D01*
X528979Y340187D01*
X528840Y340409D01*
X528701Y340631D01*
X528562Y340908D01*
X528424Y341214D01*
X528312Y341547D01*
X528201Y341908D01*
X528035Y342685D01*
X528007Y343129D01*
X527979Y343574D01*
Y343823D01*
X528007Y343990D01*
X528035Y344212D01*
X528063Y344462D01*
X528090Y344740D01*
X528174Y345017D01*
X528340Y345684D01*
X528590Y346350D01*
X528757Y346683D01*
X528951Y347016D01*
X529201Y347322D01*
X529451Y347627D01*
X529478Y347655D01*
X529506Y347682D01*
X529590Y347766D01*
X529701Y347877D01*
X529867Y347988D01*
X530034Y348127D01*
X530450Y348404D01*
X530978Y348682D01*
X531588Y348932D01*
X532282Y349126D01*
X532643Y349154D01*
X533032Y349182D01*
X533060D01*
X533088D01*
X533254D01*
X533504Y349154D01*
X533809Y349098D01*
X534198Y349015D01*
X534587Y348876D01*
X534975Y348710D01*
X535364Y348460D01*
X535420Y348432D01*
X535531Y348321D01*
X535697Y348154D01*
X535919Y347932D01*
X536169Y347627D01*
X536419Y347266D01*
X536669Y346850D01*
X536891Y346350D01*
Y346378D01*
X536919Y346433D01*
X536946Y346516D01*
X537002Y346627D01*
X537141Y346961D01*
X537335Y347349D01*
X537613Y347766D01*
X537918Y348210D01*
X538307Y348626D01*
X538751Y349015D01*
X538779D01*
X538807Y349043D01*
X538973Y349154D01*
X539251Y349320D01*
X539612Y349487D01*
X540056Y349654D01*
X540583Y349820D01*
X541166Y349931D01*
X541805Y349959D01*
X541833D01*
X541916D01*
X542055D01*
X542221Y349931D01*
D02*
G37*
G36*
X301416Y-30140D02*
X301610D01*
X301805Y-30168D01*
X302276Y-30251D01*
X302776Y-30390D01*
X303304Y-30612D01*
X303831Y-30889D01*
X304275Y-31278D01*
X304331Y-31334D01*
X304442Y-31500D01*
X304636Y-31750D01*
X304720Y-31944D01*
X304831Y-32139D01*
X304942Y-32389D01*
X305025Y-32638D01*
X305136Y-32916D01*
X305219Y-33249D01*
X305275Y-33582D01*
X305330Y-33971D01*
X305386Y-34360D01*
Y-34804D01*
Y-44354D01*
X303026D01*
Y-35609D01*
Y-35581D01*
Y-35553D01*
Y-35387D01*
Y-35137D01*
X302998Y-34832D01*
X302971Y-34499D01*
X302943Y-34165D01*
X302887Y-33832D01*
X302804Y-33582D01*
Y-33554D01*
X302748Y-33471D01*
X302693Y-33360D01*
X302610Y-33221D01*
X302499Y-33055D01*
X302360Y-32888D01*
X302193Y-32722D01*
X301971Y-32555D01*
X301943Y-32527D01*
X301860Y-32500D01*
X301749Y-32444D01*
X301555Y-32361D01*
X301360Y-32278D01*
X301110Y-32222D01*
X300861Y-32194D01*
X300555Y-32166D01*
X300416D01*
X300305Y-32194D01*
X300028Y-32222D01*
X299695Y-32278D01*
X299306Y-32416D01*
X298890Y-32583D01*
X298473Y-32833D01*
X298084Y-33166D01*
X298057Y-33221D01*
X297946Y-33360D01*
X297779Y-33582D01*
X297612Y-33916D01*
X297418Y-34360D01*
X297279Y-34887D01*
X297168Y-35526D01*
X297113Y-36275D01*
Y-44354D01*
X294753D01*
Y-35331D01*
Y-35304D01*
Y-35248D01*
Y-35192D01*
Y-35082D01*
X294725Y-34776D01*
X294670Y-34443D01*
X294614Y-34054D01*
X294503Y-33666D01*
X294364Y-33305D01*
X294170Y-32971D01*
X294142Y-32944D01*
X294059Y-32833D01*
X293920Y-32722D01*
X293726Y-32555D01*
X293476Y-32416D01*
X293143Y-32278D01*
X292754Y-32194D01*
X292282Y-32166D01*
X292115D01*
X291921Y-32194D01*
X291699Y-32222D01*
X291421Y-32305D01*
X291088Y-32389D01*
X290783Y-32527D01*
X290450Y-32694D01*
X290422Y-32722D01*
X290311Y-32805D01*
X290172Y-32916D01*
X289978Y-33083D01*
X289783Y-33305D01*
X289589Y-33582D01*
X289395Y-33888D01*
X289228Y-34249D01*
X289200Y-34304D01*
X289173Y-34443D01*
X289117Y-34665D01*
X289034Y-34970D01*
X288951Y-35387D01*
X288895Y-35887D01*
X288867Y-36470D01*
X288840Y-37136D01*
Y-44354D01*
X286480D01*
Y-30417D01*
X288590D01*
Y-32416D01*
X288617Y-32361D01*
X288701Y-32250D01*
X288867Y-32055D01*
X289062Y-31833D01*
X289312Y-31556D01*
X289617Y-31278D01*
X289950Y-31000D01*
X290339Y-30751D01*
X290394Y-30723D01*
X290533Y-30640D01*
X290755Y-30556D01*
X291061Y-30417D01*
X291421Y-30306D01*
X291838Y-30223D01*
X292310Y-30140D01*
X292810Y-30112D01*
X293059D01*
X293365Y-30140D01*
X293698Y-30195D01*
X294114Y-30279D01*
X294531Y-30390D01*
X294947Y-30556D01*
X295336Y-30778D01*
X295391Y-30806D01*
X295502Y-30889D01*
X295669Y-31028D01*
X295891Y-31250D01*
X296113Y-31500D01*
X296363Y-31806D01*
X296585Y-32166D01*
X296752Y-32583D01*
X296779Y-32555D01*
X296835Y-32472D01*
X296918Y-32361D01*
X297057Y-32194D01*
X297224Y-32000D01*
X297418Y-31806D01*
X297640Y-31583D01*
X297918Y-31334D01*
X298223Y-31112D01*
X298529Y-30889D01*
X298890Y-30695D01*
X299278Y-30501D01*
X299695Y-30334D01*
X300139Y-30223D01*
X300583Y-30140D01*
X301083Y-30112D01*
X301277D01*
X301416Y-30140D01*
D02*
G37*
G36*
X279039D02*
X279234D01*
X279428Y-30168D01*
X279900Y-30251D01*
X280400Y-30390D01*
X280927Y-30612D01*
X281455Y-30889D01*
X281899Y-31278D01*
X281954Y-31334D01*
X282066Y-31500D01*
X282260Y-31750D01*
X282343Y-31944D01*
X282454Y-32139D01*
X282565Y-32389D01*
X282649Y-32638D01*
X282760Y-32916D01*
X282843Y-33249D01*
X282898Y-33582D01*
X282954Y-33971D01*
X283009Y-34360D01*
Y-34804D01*
Y-44354D01*
X280650D01*
Y-35609D01*
Y-35581D01*
Y-35553D01*
Y-35387D01*
Y-35137D01*
X280622Y-34832D01*
X280594Y-34499D01*
X280566Y-34165D01*
X280511Y-33832D01*
X280428Y-33582D01*
Y-33554D01*
X280372Y-33471D01*
X280317Y-33360D01*
X280233Y-33221D01*
X280122Y-33055D01*
X279983Y-32888D01*
X279817Y-32722D01*
X279595Y-32555D01*
X279567Y-32527D01*
X279484Y-32500D01*
X279373Y-32444D01*
X279178Y-32361D01*
X278984Y-32278D01*
X278734Y-32222D01*
X278484Y-32194D01*
X278179Y-32166D01*
X278040D01*
X277929Y-32194D01*
X277651Y-32222D01*
X277318Y-32278D01*
X276930Y-32416D01*
X276513Y-32583D01*
X276097Y-32833D01*
X275708Y-33166D01*
X275680Y-33221D01*
X275569Y-33360D01*
X275403Y-33582D01*
X275236Y-33916D01*
X275042Y-34360D01*
X274903Y-34887D01*
X274792Y-35526D01*
X274736Y-36275D01*
Y-44354D01*
X272377D01*
Y-35331D01*
Y-35304D01*
Y-35248D01*
Y-35192D01*
Y-35082D01*
X272349Y-34776D01*
X272293Y-34443D01*
X272238Y-34054D01*
X272127Y-33666D01*
X271988Y-33305D01*
X271794Y-32971D01*
X271766Y-32944D01*
X271682Y-32833D01*
X271544Y-32722D01*
X271349Y-32555D01*
X271099Y-32416D01*
X270766Y-32278D01*
X270378Y-32194D01*
X269906Y-32166D01*
X269739D01*
X269545Y-32194D01*
X269323Y-32222D01*
X269045Y-32305D01*
X268712Y-32389D01*
X268407Y-32527D01*
X268073Y-32694D01*
X268046Y-32722D01*
X267935Y-32805D01*
X267796Y-32916D01*
X267602Y-33083D01*
X267407Y-33305D01*
X267213Y-33582D01*
X267019Y-33888D01*
X266852Y-34249D01*
X266824Y-34304D01*
X266796Y-34443D01*
X266741Y-34665D01*
X266658Y-34970D01*
X266574Y-35387D01*
X266519Y-35887D01*
X266491Y-36470D01*
X266463Y-37136D01*
Y-44354D01*
X264103D01*
Y-30417D01*
X266213D01*
Y-32416D01*
X266241Y-32361D01*
X266324Y-32250D01*
X266491Y-32055D01*
X266685Y-31833D01*
X266935Y-31556D01*
X267241Y-31278D01*
X267574Y-31000D01*
X267962Y-30751D01*
X268018Y-30723D01*
X268157Y-30640D01*
X268379Y-30556D01*
X268684Y-30417D01*
X269045Y-30306D01*
X269461Y-30223D01*
X269933Y-30140D01*
X270433Y-30112D01*
X270683D01*
X270989Y-30140D01*
X271322Y-30195D01*
X271738Y-30279D01*
X272155Y-30390D01*
X272571Y-30556D01*
X272960Y-30778D01*
X273015Y-30806D01*
X273126Y-30889D01*
X273293Y-31028D01*
X273515Y-31250D01*
X273737Y-31500D01*
X273987Y-31806D01*
X274209Y-32166D01*
X274375Y-32583D01*
X274403Y-32555D01*
X274459Y-32472D01*
X274542Y-32361D01*
X274681Y-32194D01*
X274847Y-32000D01*
X275042Y-31806D01*
X275264Y-31583D01*
X275541Y-31334D01*
X275847Y-31112D01*
X276152Y-30889D01*
X276513Y-30695D01*
X276902Y-30501D01*
X277318Y-30334D01*
X277762Y-30223D01*
X278207Y-30140D01*
X278706Y-30112D01*
X278901D01*
X279039Y-30140D01*
D02*
G37*
G36*
X191672Y-27641D02*
X183982D01*
X182955Y-32833D01*
X182982Y-32805D01*
X183038Y-32777D01*
X183121Y-32722D01*
X183260Y-32638D01*
X183426Y-32555D01*
X183621Y-32444D01*
X184065Y-32222D01*
X184620Y-32000D01*
X185231Y-31806D01*
X185897Y-31667D01*
X186231Y-31611D01*
X186841D01*
X187008Y-31639D01*
X187230Y-31667D01*
X187480Y-31695D01*
X187757Y-31750D01*
X188063Y-31833D01*
X188729Y-32028D01*
X189090Y-32166D01*
X189451Y-32361D01*
X189812Y-32555D01*
X190173Y-32777D01*
X190506Y-33055D01*
X190839Y-33360D01*
X190867Y-33388D01*
X190922Y-33444D01*
X191006Y-33527D01*
X191117Y-33666D01*
X191255Y-33860D01*
X191394Y-34054D01*
X191561Y-34304D01*
X191727Y-34582D01*
X191866Y-34887D01*
X192033Y-35220D01*
X192172Y-35609D01*
X192310Y-35998D01*
X192421Y-36414D01*
X192505Y-36886D01*
X192560Y-37358D01*
X192588Y-37858D01*
Y-37885D01*
Y-37969D01*
Y-38108D01*
X192560Y-38302D01*
X192533Y-38524D01*
X192505Y-38774D01*
X192449Y-39079D01*
X192394Y-39385D01*
X192227Y-40106D01*
X191950Y-40856D01*
X191783Y-41245D01*
X191561Y-41606D01*
X191339Y-41994D01*
X191061Y-42355D01*
X191033Y-42383D01*
X190978Y-42466D01*
X190867Y-42577D01*
X190728Y-42716D01*
X190534Y-42883D01*
X190312Y-43105D01*
X190034Y-43299D01*
X189729Y-43521D01*
X189395Y-43743D01*
X189007Y-43938D01*
X188590Y-44132D01*
X188146Y-44326D01*
X187674Y-44465D01*
X187147Y-44576D01*
X186591Y-44659D01*
X186008Y-44687D01*
X185758D01*
X185564Y-44659D01*
X185342Y-44632D01*
X185092Y-44604D01*
X184787Y-44576D01*
X184481Y-44493D01*
X183787Y-44326D01*
X183093Y-44076D01*
X182732Y-43910D01*
X182372Y-43716D01*
X182038Y-43493D01*
X181705Y-43244D01*
X181677Y-43216D01*
X181622Y-43188D01*
X181566Y-43077D01*
X181455Y-42966D01*
X181317Y-42827D01*
X181178Y-42660D01*
X181011Y-42438D01*
X180872Y-42189D01*
X180706Y-41939D01*
X180539Y-41633D01*
X180234Y-40967D01*
X179984Y-40190D01*
X179901Y-39773D01*
X179845Y-39329D01*
X182316Y-39135D01*
Y-39162D01*
Y-39218D01*
X182344Y-39301D01*
X182372Y-39440D01*
X182455Y-39746D01*
X182566Y-40162D01*
X182732Y-40578D01*
X182955Y-41050D01*
X183232Y-41467D01*
X183565Y-41855D01*
X183621Y-41883D01*
X183732Y-41994D01*
X183954Y-42133D01*
X184259Y-42300D01*
X184592Y-42466D01*
X185009Y-42605D01*
X185481Y-42716D01*
X186008Y-42744D01*
X186175D01*
X186286Y-42716D01*
X186619Y-42688D01*
X187008Y-42577D01*
X187480Y-42438D01*
X187952Y-42216D01*
X188451Y-41883D01*
X188673Y-41689D01*
X188896Y-41467D01*
X188923Y-41439D01*
X188951Y-41411D01*
X189007Y-41328D01*
X189090Y-41245D01*
X189284Y-40939D01*
X189506Y-40551D01*
X189701Y-40079D01*
X189895Y-39496D01*
X190034Y-38802D01*
X190089Y-38441D01*
Y-38052D01*
Y-38024D01*
Y-37969D01*
Y-37858D01*
X190062Y-37719D01*
Y-37552D01*
X190034Y-37358D01*
X189951Y-36914D01*
X189812Y-36386D01*
X189618Y-35859D01*
X189340Y-35359D01*
X188951Y-34887D01*
Y-34859D01*
X188896Y-34832D01*
X188757Y-34693D01*
X188507Y-34499D01*
X188174Y-34276D01*
X187730Y-34082D01*
X187230Y-33888D01*
X186647Y-33749D01*
X186314Y-33693D01*
X185786D01*
X185564Y-33721D01*
X185287Y-33749D01*
X184953Y-33832D01*
X184620Y-33916D01*
X184259Y-34054D01*
X183898Y-34221D01*
X183871Y-34249D01*
X183760Y-34304D01*
X183593Y-34443D01*
X183371Y-34582D01*
X183149Y-34776D01*
X182927Y-35026D01*
X182677Y-35276D01*
X182483Y-35581D01*
X180262Y-35276D01*
X182122Y-25392D01*
X191672D01*
Y-27641D01*
D02*
G37*
G36*
X238951Y-25087D02*
X239312Y-25143D01*
X239728Y-25226D01*
X240172Y-25337D01*
X240644Y-25476D01*
X241089Y-25698D01*
X241116D01*
X241144Y-25726D01*
X241283Y-25809D01*
X241505Y-25948D01*
X241783Y-26142D01*
X242088Y-26420D01*
X242421Y-26725D01*
X242726Y-27086D01*
X243032Y-27502D01*
X243060Y-27558D01*
X243171Y-27697D01*
X243282Y-27947D01*
X243476Y-28307D01*
X243643Y-28724D01*
X243865Y-29196D01*
X244059Y-29751D01*
X244226Y-30362D01*
Y-30390D01*
X244254Y-30445D01*
X244281Y-30529D01*
X244309Y-30667D01*
X244337Y-30834D01*
X244364Y-31028D01*
X244420Y-31278D01*
X244448Y-31556D01*
X244503Y-31861D01*
X244531Y-32194D01*
X244559Y-32583D01*
X244614Y-32971D01*
X244642Y-33416D01*
Y-33860D01*
X244670Y-34360D01*
Y-34887D01*
Y-34915D01*
Y-35026D01*
Y-35220D01*
Y-35442D01*
X244642Y-35748D01*
Y-36081D01*
X244614Y-36442D01*
X244587Y-36830D01*
X244503Y-37719D01*
X244364Y-38635D01*
X244198Y-39523D01*
X244087Y-39940D01*
X243948Y-40356D01*
Y-40384D01*
X243920Y-40440D01*
X243865Y-40551D01*
X243809Y-40689D01*
X243754Y-40884D01*
X243643Y-41078D01*
X243421Y-41550D01*
X243143Y-42050D01*
X242782Y-42605D01*
X242366Y-43105D01*
X241866Y-43577D01*
X241838D01*
X241810Y-43632D01*
X241727Y-43688D01*
X241616Y-43743D01*
X241477Y-43827D01*
X241338Y-43938D01*
X240922Y-44132D01*
X240422Y-44326D01*
X239839Y-44521D01*
X239145Y-44632D01*
X238396Y-44687D01*
X238118D01*
X237924Y-44659D01*
X237702Y-44632D01*
X237424Y-44576D01*
X237119Y-44521D01*
X236785Y-44437D01*
X236452Y-44326D01*
X236091Y-44215D01*
X235730Y-44049D01*
X235370Y-43854D01*
X235009Y-43632D01*
X234648Y-43355D01*
X234315Y-43049D01*
X234009Y-42716D01*
X233981Y-42688D01*
X233926Y-42605D01*
X233843Y-42466D01*
X233704Y-42244D01*
X233565Y-41994D01*
X233426Y-41661D01*
X233232Y-41272D01*
X233065Y-40828D01*
X232899Y-40328D01*
X232732Y-39746D01*
X232566Y-39107D01*
X232427Y-38385D01*
X232288Y-37608D01*
X232205Y-36775D01*
X232149Y-35859D01*
X232121Y-34887D01*
Y-34859D01*
Y-34748D01*
Y-34554D01*
Y-34332D01*
X232149Y-34027D01*
Y-33693D01*
X232177Y-33332D01*
X232205Y-32916D01*
X232288Y-32055D01*
X232427Y-31139D01*
X232593Y-30223D01*
X232704Y-29807D01*
X232815Y-29390D01*
Y-29362D01*
X232843Y-29307D01*
X232899Y-29196D01*
X232954Y-29057D01*
X233010Y-28863D01*
X233121Y-28668D01*
X233343Y-28196D01*
X233620Y-27697D01*
X233981Y-27169D01*
X234398Y-26642D01*
X234898Y-26198D01*
X234925D01*
X234953Y-26142D01*
X235036Y-26086D01*
X235147Y-26031D01*
X235286Y-25920D01*
X235453Y-25837D01*
X235869Y-25615D01*
X236369Y-25420D01*
X236952Y-25226D01*
X237646Y-25115D01*
X238396Y-25059D01*
X238645D01*
X238951Y-25087D01*
D02*
G37*
G36*
X224015D02*
X224376Y-25143D01*
X224792Y-25226D01*
X225236Y-25337D01*
X225708Y-25476D01*
X226152Y-25698D01*
X226180D01*
X226208Y-25726D01*
X226347Y-25809D01*
X226569Y-25948D01*
X226847Y-26142D01*
X227152Y-26420D01*
X227485Y-26725D01*
X227791Y-27086D01*
X228096Y-27502D01*
X228124Y-27558D01*
X228235Y-27697D01*
X228346Y-27947D01*
X228540Y-28307D01*
X228707Y-28724D01*
X228929Y-29196D01*
X229123Y-29751D01*
X229290Y-30362D01*
Y-30390D01*
X229317Y-30445D01*
X229345Y-30529D01*
X229373Y-30667D01*
X229401Y-30834D01*
X229428Y-31028D01*
X229484Y-31278D01*
X229512Y-31556D01*
X229567Y-31861D01*
X229595Y-32194D01*
X229623Y-32583D01*
X229678Y-32971D01*
X229706Y-33416D01*
Y-33860D01*
X229734Y-34360D01*
Y-34887D01*
Y-34915D01*
Y-35026D01*
Y-35220D01*
Y-35442D01*
X229706Y-35748D01*
Y-36081D01*
X229678Y-36442D01*
X229650Y-36830D01*
X229567Y-37719D01*
X229428Y-38635D01*
X229262Y-39523D01*
X229151Y-39940D01*
X229012Y-40356D01*
Y-40384D01*
X228984Y-40440D01*
X228929Y-40551D01*
X228873Y-40689D01*
X228818Y-40884D01*
X228707Y-41078D01*
X228484Y-41550D01*
X228207Y-42050D01*
X227846Y-42605D01*
X227430Y-43105D01*
X226930Y-43577D01*
X226902D01*
X226874Y-43632D01*
X226791Y-43688D01*
X226680Y-43743D01*
X226541Y-43827D01*
X226402Y-43938D01*
X225986Y-44132D01*
X225486Y-44326D01*
X224903Y-44521D01*
X224209Y-44632D01*
X223460Y-44687D01*
X223182D01*
X222988Y-44659D01*
X222766Y-44632D01*
X222488Y-44576D01*
X222183Y-44521D01*
X221849Y-44437D01*
X221516Y-44326D01*
X221155Y-44215D01*
X220794Y-44049D01*
X220434Y-43854D01*
X220073Y-43632D01*
X219712Y-43355D01*
X219379Y-43049D01*
X219073Y-42716D01*
X219045Y-42688D01*
X218990Y-42605D01*
X218907Y-42466D01*
X218768Y-42244D01*
X218629Y-41994D01*
X218490Y-41661D01*
X218296Y-41272D01*
X218129Y-40828D01*
X217963Y-40328D01*
X217796Y-39746D01*
X217630Y-39107D01*
X217491Y-38385D01*
X217352Y-37608D01*
X217269Y-36775D01*
X217213Y-35859D01*
X217185Y-34887D01*
Y-34859D01*
Y-34748D01*
Y-34554D01*
Y-34332D01*
X217213Y-34027D01*
Y-33693D01*
X217241Y-33332D01*
X217269Y-32916D01*
X217352Y-32055D01*
X217491Y-31139D01*
X217657Y-30223D01*
X217768Y-29807D01*
X217879Y-29390D01*
Y-29362D01*
X217907Y-29307D01*
X217963Y-29196D01*
X218018Y-29057D01*
X218074Y-28863D01*
X218185Y-28668D01*
X218407Y-28196D01*
X218685Y-27697D01*
X219045Y-27169D01*
X219462Y-26642D01*
X219961Y-26198D01*
X219989D01*
X220017Y-26142D01*
X220100Y-26086D01*
X220211Y-26031D01*
X220350Y-25920D01*
X220517Y-25837D01*
X220933Y-25615D01*
X221433Y-25420D01*
X222016Y-25226D01*
X222710Y-25115D01*
X223460Y-25059D01*
X223709D01*
X224015Y-25087D01*
D02*
G37*
G36*
X201611D02*
X201972Y-25143D01*
X202388Y-25226D01*
X202832Y-25337D01*
X203304Y-25476D01*
X203748Y-25698D01*
X203776D01*
X203804Y-25726D01*
X203943Y-25809D01*
X204165Y-25948D01*
X204443Y-26142D01*
X204748Y-26420D01*
X205081Y-26725D01*
X205386Y-27086D01*
X205692Y-27502D01*
X205720Y-27558D01*
X205831Y-27697D01*
X205942Y-27947D01*
X206136Y-28307D01*
X206303Y-28724D01*
X206525Y-29196D01*
X206719Y-29751D01*
X206886Y-30362D01*
Y-30390D01*
X206913Y-30445D01*
X206941Y-30529D01*
X206969Y-30667D01*
X206997Y-30834D01*
X207024Y-31028D01*
X207080Y-31278D01*
X207108Y-31556D01*
X207163Y-31861D01*
X207191Y-32194D01*
X207219Y-32583D01*
X207274Y-32971D01*
X207302Y-33416D01*
Y-33860D01*
X207330Y-34360D01*
Y-34887D01*
Y-34915D01*
Y-35026D01*
Y-35220D01*
Y-35442D01*
X207302Y-35748D01*
Y-36081D01*
X207274Y-36442D01*
X207246Y-36830D01*
X207163Y-37719D01*
X207024Y-38635D01*
X206858Y-39523D01*
X206747Y-39940D01*
X206608Y-40356D01*
Y-40384D01*
X206580Y-40440D01*
X206525Y-40551D01*
X206469Y-40689D01*
X206414Y-40884D01*
X206303Y-41078D01*
X206080Y-41550D01*
X205803Y-42050D01*
X205442Y-42605D01*
X205026Y-43105D01*
X204526Y-43577D01*
X204498D01*
X204470Y-43632D01*
X204387Y-43688D01*
X204276Y-43743D01*
X204137Y-43827D01*
X203998Y-43938D01*
X203582Y-44132D01*
X203082Y-44326D01*
X202499Y-44521D01*
X201805Y-44632D01*
X201056Y-44687D01*
X200778D01*
X200583Y-44659D01*
X200361Y-44632D01*
X200084Y-44576D01*
X199778Y-44521D01*
X199445Y-44437D01*
X199112Y-44326D01*
X198751Y-44215D01*
X198390Y-44049D01*
X198029Y-43854D01*
X197668Y-43632D01*
X197308Y-43355D01*
X196974Y-43049D01*
X196669Y-42716D01*
X196641Y-42688D01*
X196586Y-42605D01*
X196502Y-42466D01*
X196364Y-42244D01*
X196225Y-41994D01*
X196086Y-41661D01*
X195892Y-41272D01*
X195725Y-40828D01*
X195559Y-40328D01*
X195392Y-39746D01*
X195225Y-39107D01*
X195087Y-38385D01*
X194948Y-37608D01*
X194865Y-36775D01*
X194809Y-35859D01*
X194781Y-34887D01*
Y-34859D01*
Y-34748D01*
Y-34554D01*
Y-34332D01*
X194809Y-34027D01*
Y-33693D01*
X194837Y-33332D01*
X194865Y-32916D01*
X194948Y-32055D01*
X195087Y-31139D01*
X195253Y-30223D01*
X195364Y-29807D01*
X195475Y-29390D01*
Y-29362D01*
X195503Y-29307D01*
X195559Y-29196D01*
X195614Y-29057D01*
X195670Y-28863D01*
X195781Y-28668D01*
X196003Y-28196D01*
X196280Y-27697D01*
X196641Y-27169D01*
X197058Y-26642D01*
X197557Y-26198D01*
X197585D01*
X197613Y-26142D01*
X197696Y-26086D01*
X197807Y-26031D01*
X197946Y-25920D01*
X198113Y-25837D01*
X198529Y-25615D01*
X199029Y-25420D01*
X199612Y-25226D01*
X200306Y-25115D01*
X201056Y-25059D01*
X201305D01*
X201611Y-25087D01*
D02*
G37*
G36*
X213687Y-44354D02*
Y-44382D01*
Y-44410D01*
Y-44493D01*
Y-44604D01*
X213659Y-44854D01*
X213632Y-45215D01*
X213549Y-45576D01*
X213465Y-45992D01*
X213326Y-46381D01*
X213160Y-46742D01*
X213132Y-46769D01*
X213049Y-46880D01*
X212938Y-47047D01*
X212743Y-47269D01*
X212521Y-47491D01*
X212244Y-47713D01*
X211883Y-47963D01*
X211494Y-48158D01*
X210828Y-47158D01*
X210856Y-47130D01*
X210939Y-47102D01*
X211078Y-47019D01*
X211244Y-46908D01*
X211411Y-46769D01*
X211605Y-46603D01*
X211772Y-46408D01*
X211910Y-46186D01*
X211938Y-46159D01*
X211966Y-46075D01*
X212022Y-45909D01*
X212105Y-45714D01*
X212160Y-45465D01*
X212244Y-45131D01*
X212299Y-44770D01*
X212327Y-44354D01*
X210994D01*
Y-41661D01*
X213687D01*
Y-44354D01*
D02*
G37*
G36*
X310466Y-24837D02*
X310550Y-24948D01*
X310661Y-25143D01*
X310827Y-25365D01*
X311049Y-25670D01*
X311271Y-26031D01*
X311521Y-26420D01*
X311799Y-26864D01*
X312104Y-27364D01*
X312382Y-27891D01*
X312687Y-28419D01*
X312993Y-29002D01*
X313548Y-30195D01*
X313825Y-30834D01*
X314048Y-31445D01*
Y-31472D01*
X314103Y-31583D01*
X314131Y-31722D01*
X314214Y-31944D01*
X314298Y-32194D01*
X314381Y-32500D01*
X314464Y-32861D01*
X314575Y-33249D01*
X314658Y-33693D01*
X314742Y-34165D01*
X314825Y-34637D01*
X314908Y-35165D01*
X315019Y-36275D01*
X315075Y-37413D01*
Y-37441D01*
Y-37580D01*
Y-37774D01*
X315047Y-38024D01*
Y-38330D01*
X314991Y-38718D01*
X314964Y-39135D01*
X314908Y-39607D01*
X314825Y-40106D01*
X314742Y-40662D01*
X314492Y-41800D01*
X314353Y-42411D01*
X314159Y-43021D01*
X313964Y-43660D01*
X313715Y-44271D01*
X313687Y-44299D01*
X313659Y-44410D01*
X313576Y-44576D01*
X313465Y-44826D01*
X313354Y-45104D01*
X313187Y-45437D01*
X312993Y-45798D01*
X312798Y-46214D01*
X312576Y-46658D01*
X312326Y-47102D01*
X311771Y-48074D01*
X311133Y-49074D01*
X310438Y-50017D01*
X308745D01*
Y-49990D01*
X308801Y-49934D01*
X308856Y-49851D01*
X308912Y-49740D01*
X308995Y-49573D01*
X309106Y-49407D01*
X309217Y-49185D01*
X309356Y-48935D01*
X309661Y-48380D01*
X309994Y-47685D01*
X310327Y-46936D01*
X310716Y-46075D01*
X311077Y-45159D01*
X311410Y-44187D01*
X311743Y-43133D01*
X312049Y-42050D01*
X312299Y-40939D01*
X312493Y-39773D01*
X312604Y-38607D01*
X312659Y-37413D01*
Y-37386D01*
Y-37302D01*
Y-37164D01*
Y-36997D01*
X312632Y-36775D01*
Y-36497D01*
X312604Y-36220D01*
X312576Y-35887D01*
X312549Y-35526D01*
X312521Y-35137D01*
X312410Y-34332D01*
X312271Y-33444D01*
X312076Y-32527D01*
Y-32500D01*
X312049Y-32444D01*
X312021Y-32333D01*
X311993Y-32194D01*
X311938Y-32028D01*
X311882Y-31806D01*
X311743Y-31306D01*
X311577Y-30751D01*
X311355Y-30112D01*
X311105Y-29418D01*
X310827Y-28752D01*
Y-28724D01*
X310800Y-28696D01*
X310772Y-28613D01*
X310716Y-28530D01*
X310661Y-28391D01*
X310577Y-28224D01*
X310494Y-28058D01*
X310383Y-27808D01*
X310244Y-27558D01*
X310105Y-27280D01*
X309939Y-26947D01*
X309744Y-26586D01*
X309522Y-26198D01*
X309300Y-25781D01*
X309023Y-25309D01*
X308745Y-24810D01*
X310438D01*
X310466Y-24837D01*
D02*
G37*
G36*
X261355D02*
X261327Y-24920D01*
X261244Y-25059D01*
X261133Y-25254D01*
X260994Y-25476D01*
X260855Y-25753D01*
X260522Y-26336D01*
X260161Y-26975D01*
X259828Y-27613D01*
X259495Y-28224D01*
X259384Y-28474D01*
X259273Y-28724D01*
Y-28752D01*
X259245Y-28807D01*
X259189Y-28891D01*
X259134Y-29029D01*
X259079Y-29196D01*
X258995Y-29390D01*
X258912Y-29612D01*
X258829Y-29862D01*
X258606Y-30445D01*
X258412Y-31084D01*
X258218Y-31778D01*
X258023Y-32500D01*
Y-32527D01*
X257996Y-32611D01*
X257968Y-32749D01*
X257940Y-32916D01*
X257885Y-33138D01*
X257857Y-33416D01*
X257801Y-33693D01*
X257746Y-34027D01*
X257690Y-34387D01*
X257635Y-34776D01*
X257552Y-35609D01*
X257496Y-36497D01*
X257468Y-37413D01*
Y-37441D01*
Y-37497D01*
Y-37580D01*
Y-37691D01*
X257496Y-37858D01*
Y-38024D01*
X257524Y-38246D01*
Y-38496D01*
X257579Y-39079D01*
X257663Y-39746D01*
X257801Y-40523D01*
X257968Y-41356D01*
X258162Y-42272D01*
X258412Y-43271D01*
X258745Y-44326D01*
X259134Y-45409D01*
X259578Y-46519D01*
X260078Y-47685D01*
X260689Y-48851D01*
X261383Y-50017D01*
X259689D01*
X259662Y-49990D01*
X259606Y-49907D01*
X259495Y-49768D01*
X259356Y-49573D01*
X259189Y-49351D01*
X258995Y-49074D01*
X258773Y-48741D01*
X258551Y-48380D01*
X258273Y-47963D01*
X258023Y-47519D01*
X257746Y-47047D01*
X257468Y-46547D01*
X257191Y-46020D01*
X256913Y-45465D01*
X256385Y-44271D01*
X256358Y-44243D01*
X256330Y-44132D01*
X256275Y-43938D01*
X256191Y-43688D01*
X256080Y-43382D01*
X255969Y-43049D01*
X255858Y-42633D01*
X255719Y-42161D01*
X255608Y-41689D01*
X255469Y-41134D01*
X255358Y-40578D01*
X255275Y-39995D01*
X255109Y-38718D01*
X255081Y-38080D01*
X255053Y-37413D01*
Y-37386D01*
Y-37275D01*
Y-37108D01*
X255081Y-36886D01*
Y-36608D01*
X255109Y-36275D01*
X255136Y-35914D01*
X255192Y-35498D01*
X255219Y-35054D01*
X255303Y-34582D01*
X255469Y-33582D01*
X255719Y-32527D01*
X256052Y-31445D01*
X256080Y-31417D01*
X256108Y-31306D01*
X256163Y-31112D01*
X256275Y-30862D01*
X256385Y-30584D01*
X256552Y-30223D01*
X256747Y-29807D01*
X256941Y-29362D01*
X257191Y-28891D01*
X257440Y-28363D01*
X257746Y-27808D01*
X258079Y-27253D01*
X258440Y-26642D01*
X258829Y-26031D01*
X259245Y-25420D01*
X259689Y-24810D01*
X261383D01*
X261355Y-24837D01*
D02*
G37*
%LPC*%
G36*
X538668Y384800D02*
X537807D01*
X537779D01*
X537752D01*
X537613D01*
X537363D01*
X537030Y384773D01*
X536669D01*
X536225Y384745D01*
X535753Y384717D01*
X535225Y384662D01*
X534170Y384523D01*
X533643Y384440D01*
X533143Y384328D01*
X532671Y384217D01*
X532227Y384051D01*
X531838Y383884D01*
X531505Y383690D01*
X531477D01*
X531450Y383634D01*
X531366Y383579D01*
X531255Y383496D01*
X531005Y383246D01*
X530700Y382940D01*
X530422Y382524D01*
X530173Y382052D01*
X530061Y381802D01*
X529978Y381525D01*
X529950Y381219D01*
X529923Y380914D01*
Y380747D01*
X529950Y380636D01*
X530006Y380331D01*
X530089Y379970D01*
X530256Y379553D01*
X530506Y379109D01*
X530672Y378887D01*
X530839Y378665D01*
X531061Y378471D01*
X531311Y378276D01*
X531339D01*
X531394Y378221D01*
X531505Y378165D01*
X531644Y378082D01*
X531866Y377999D01*
X532116Y377888D01*
X532421Y377804D01*
X532782Y377693D01*
X533199Y377582D01*
X533671Y377471D01*
X534198Y377360D01*
X534781Y377277D01*
X535447Y377194D01*
X536169Y377138D01*
X536946Y377110D01*
X537807Y377083D01*
X537863D01*
X538002D01*
X538251D01*
X538585Y377110D01*
X538945D01*
X539390Y377138D01*
X539861Y377166D01*
X540361Y377221D01*
X541444Y377360D01*
X541972Y377444D01*
X542471Y377555D01*
X542943Y377666D01*
X543387Y377832D01*
X543776Y377999D01*
X544109Y378193D01*
X544137D01*
X544165Y378249D01*
X544359Y378387D01*
X544609Y378637D01*
X544887Y378943D01*
X545164Y379359D01*
X545414Y379831D01*
X545608Y380359D01*
X545636Y380636D01*
X545664Y380942D01*
Y381108D01*
X545636Y381219D01*
X545580Y381497D01*
X545470Y381885D01*
X545275Y382302D01*
X544997Y382774D01*
X544831Y382996D01*
X544609Y383218D01*
X544387Y383440D01*
X544109Y383662D01*
X544081D01*
X544026Y383718D01*
X543943Y383773D01*
X543804Y383829D01*
X543609Y383940D01*
X543360Y384023D01*
X543082Y384134D01*
X542749Y384245D01*
X542332Y384328D01*
X541888Y384440D01*
X541361Y384551D01*
X540805Y384634D01*
X540139Y384689D01*
X539445Y384745D01*
X538668Y384800D01*
D02*
G37*
G36*
Y362396D02*
X537807D01*
X537779D01*
X537752D01*
X537613D01*
X537363D01*
X537030Y362369D01*
X536669D01*
X536225Y362341D01*
X535753Y362313D01*
X535225Y362257D01*
X534170Y362119D01*
X533643Y362035D01*
X533143Y361924D01*
X532671Y361813D01*
X532227Y361647D01*
X531838Y361480D01*
X531505Y361286D01*
X531477D01*
X531450Y361230D01*
X531366Y361175D01*
X531255Y361091D01*
X531005Y360842D01*
X530700Y360536D01*
X530422Y360120D01*
X530173Y359648D01*
X530061Y359398D01*
X529978Y359120D01*
X529950Y358815D01*
X529923Y358510D01*
Y358343D01*
X529950Y358232D01*
X530006Y357927D01*
X530089Y357566D01*
X530256Y357149D01*
X530506Y356705D01*
X530672Y356483D01*
X530839Y356261D01*
X531061Y356067D01*
X531311Y355872D01*
X531339D01*
X531394Y355817D01*
X531505Y355761D01*
X531644Y355678D01*
X531866Y355595D01*
X532116Y355484D01*
X532421Y355400D01*
X532782Y355289D01*
X533199Y355178D01*
X533671Y355067D01*
X534198Y354956D01*
X534781Y354873D01*
X535447Y354790D01*
X536169Y354734D01*
X536946Y354706D01*
X537807Y354678D01*
X537863D01*
X538002D01*
X538251D01*
X538585Y354706D01*
X538945D01*
X539390Y354734D01*
X539861Y354762D01*
X540361Y354817D01*
X541444Y354956D01*
X541972Y355039D01*
X542471Y355150D01*
X542943Y355261D01*
X543387Y355428D01*
X543776Y355595D01*
X544109Y355789D01*
X544137D01*
X544165Y355844D01*
X544359Y355983D01*
X544609Y356233D01*
X544887Y356539D01*
X545164Y356955D01*
X545414Y357427D01*
X545608Y357954D01*
X545636Y358232D01*
X545664Y358537D01*
Y358704D01*
X545636Y358815D01*
X545580Y359093D01*
X545470Y359481D01*
X545275Y359898D01*
X544997Y360370D01*
X544831Y360592D01*
X544609Y360814D01*
X544387Y361036D01*
X544109Y361258D01*
X544081D01*
X544026Y361314D01*
X543943Y361369D01*
X543804Y361425D01*
X543609Y361536D01*
X543360Y361619D01*
X543082Y361730D01*
X542749Y361841D01*
X542332Y361924D01*
X541888Y362035D01*
X541361Y362146D01*
X540805Y362230D01*
X540139Y362285D01*
X539445Y362341D01*
X538668Y362396D01*
D02*
G37*
G36*
X533004Y346766D02*
X532976D01*
X532949D01*
X532782D01*
X532532Y346711D01*
X532227Y346655D01*
X531894Y346544D01*
X531533Y346378D01*
X531172Y346156D01*
X530811Y345850D01*
X530783Y345822D01*
X530672Y345684D01*
X530533Y345489D01*
X530367Y345239D01*
X530200Y344906D01*
X530061Y344545D01*
X529950Y344101D01*
X529923Y343629D01*
Y343407D01*
X529978Y343157D01*
X530034Y342824D01*
X530145Y342463D01*
X530284Y342074D01*
X530506Y341713D01*
X530811Y341353D01*
X530839Y341325D01*
X530950Y341214D01*
X531144Y341075D01*
X531394Y340936D01*
X531699Y340770D01*
X532060Y340631D01*
X532449Y340520D01*
X532893Y340492D01*
X532921D01*
X532949D01*
X533115Y340520D01*
X533365Y340547D01*
X533671Y340603D01*
X534031Y340714D01*
X534392Y340853D01*
X534781Y341075D01*
X535114Y341353D01*
X535142Y341380D01*
X535253Y341519D01*
X535392Y341713D01*
X535531Y341963D01*
X535697Y342296D01*
X535836Y342685D01*
X535947Y343129D01*
X535975Y343629D01*
Y343685D01*
X535947Y343851D01*
X535919Y344101D01*
X535864Y344434D01*
X535753Y344795D01*
X535614Y345156D01*
X535392Y345545D01*
X535114Y345878D01*
X535086Y345906D01*
X534948Y346017D01*
X534781Y346156D01*
X534531Y346322D01*
X534226Y346489D01*
X533865Y346627D01*
X533448Y346739D01*
X533004Y346766D01*
D02*
G37*
G36*
X541833Y347544D02*
X541805D01*
X541749D01*
X541666D01*
X541555Y347516D01*
X541250Y347488D01*
X540833Y347405D01*
X540417Y347266D01*
X539945Y347072D01*
X539473Y346794D01*
X539029Y346405D01*
X538973Y346350D01*
X538862Y346211D01*
X538668Y345961D01*
X538446Y345628D01*
X538251Y345212D01*
X538057Y344712D01*
X537946Y344157D01*
X537890Y343546D01*
Y343379D01*
X537918Y343268D01*
X537946Y342963D01*
X538029Y342574D01*
X538168Y342130D01*
X538362Y341686D01*
X538640Y341214D01*
X539001Y340797D01*
X539056Y340742D01*
X539195Y340631D01*
X539445Y340464D01*
X539751Y340270D01*
X540167Y340048D01*
X540639Y339881D01*
X541166Y339770D01*
X541749Y339715D01*
X541805D01*
X541916D01*
X542110Y339742D01*
X542360Y339770D01*
X542665Y339826D01*
X542999Y339909D01*
X543332Y340020D01*
X543693Y340159D01*
X543721Y340187D01*
X543859Y340242D01*
X544026Y340353D01*
X544220Y340520D01*
X544470Y340714D01*
X544720Y340964D01*
X544942Y341242D01*
X545164Y341575D01*
X545192Y341630D01*
X545247Y341741D01*
X545331Y341936D01*
X545414Y342186D01*
X545497Y342491D01*
X545580Y342852D01*
X545636Y343240D01*
X545664Y343629D01*
Y343796D01*
X545636Y343907D01*
X545608Y344240D01*
X545525Y344628D01*
X545386Y345073D01*
X545220Y345545D01*
X544942Y345989D01*
X544581Y346433D01*
X544526Y346489D01*
X544387Y346600D01*
X544137Y346794D01*
X543831Y346988D01*
X543443Y347183D01*
X542971Y347377D01*
X542416Y347488D01*
X541833Y347544D01*
D02*
G37*
G36*
X238368Y-27003D02*
X238201D01*
X238090Y-27030D01*
X237785Y-27086D01*
X237424Y-27169D01*
X237008Y-27336D01*
X236563Y-27586D01*
X236341Y-27752D01*
X236119Y-27919D01*
X235925Y-28141D01*
X235730Y-28391D01*
Y-28419D01*
X235675Y-28474D01*
X235619Y-28585D01*
X235536Y-28724D01*
X235453Y-28946D01*
X235342Y-29196D01*
X235259Y-29501D01*
X235147Y-29862D01*
X235036Y-30279D01*
X234925Y-30751D01*
X234814Y-31278D01*
X234731Y-31861D01*
X234648Y-32527D01*
X234592Y-33249D01*
X234564Y-34027D01*
X234537Y-34887D01*
Y-34943D01*
Y-35082D01*
Y-35331D01*
X234564Y-35665D01*
Y-36025D01*
X234592Y-36470D01*
X234620Y-36941D01*
X234676Y-37441D01*
X234814Y-38524D01*
X234898Y-39051D01*
X235009Y-39551D01*
X235120Y-40023D01*
X235286Y-40467D01*
X235453Y-40856D01*
X235647Y-41189D01*
Y-41217D01*
X235703Y-41245D01*
X235842Y-41439D01*
X236091Y-41689D01*
X236397Y-41967D01*
X236813Y-42244D01*
X237285Y-42494D01*
X237813Y-42688D01*
X238090Y-42716D01*
X238396Y-42744D01*
X238562D01*
X238673Y-42716D01*
X238951Y-42660D01*
X239340Y-42550D01*
X239756Y-42355D01*
X240228Y-42077D01*
X240450Y-41911D01*
X240672Y-41689D01*
X240894Y-41467D01*
X241116Y-41189D01*
Y-41161D01*
X241172Y-41106D01*
X241227Y-41023D01*
X241283Y-40884D01*
X241394Y-40689D01*
X241477Y-40440D01*
X241588Y-40162D01*
X241699Y-39829D01*
X241783Y-39412D01*
X241894Y-38968D01*
X242005Y-38441D01*
X242088Y-37885D01*
X242143Y-37219D01*
X242199Y-36525D01*
X242255Y-35748D01*
Y-34887D01*
Y-34859D01*
Y-34832D01*
Y-34693D01*
Y-34443D01*
X242227Y-34110D01*
Y-33749D01*
X242199Y-33305D01*
X242171Y-32833D01*
X242116Y-32305D01*
X241977Y-31250D01*
X241894Y-30723D01*
X241783Y-30223D01*
X241672Y-29751D01*
X241505Y-29307D01*
X241338Y-28918D01*
X241144Y-28585D01*
Y-28557D01*
X241089Y-28530D01*
X241033Y-28446D01*
X240950Y-28335D01*
X240700Y-28085D01*
X240394Y-27780D01*
X239978Y-27502D01*
X239506Y-27253D01*
X239256Y-27141D01*
X238979Y-27058D01*
X238673Y-27030D01*
X238368Y-27003D01*
D02*
G37*
G36*
X223432D02*
X223265D01*
X223154Y-27030D01*
X222849Y-27086D01*
X222488Y-27169D01*
X222071Y-27336D01*
X221627Y-27586D01*
X221405Y-27752D01*
X221183Y-27919D01*
X220989Y-28141D01*
X220794Y-28391D01*
Y-28419D01*
X220739Y-28474D01*
X220683Y-28585D01*
X220600Y-28724D01*
X220517Y-28946D01*
X220406Y-29196D01*
X220322Y-29501D01*
X220211Y-29862D01*
X220100Y-30279D01*
X219989Y-30751D01*
X219878Y-31278D01*
X219795Y-31861D01*
X219712Y-32527D01*
X219656Y-33249D01*
X219628Y-34027D01*
X219601Y-34887D01*
Y-34943D01*
Y-35082D01*
Y-35331D01*
X219628Y-35665D01*
Y-36025D01*
X219656Y-36470D01*
X219684Y-36941D01*
X219739Y-37441D01*
X219878Y-38524D01*
X219961Y-39051D01*
X220073Y-39551D01*
X220184Y-40023D01*
X220350Y-40467D01*
X220517Y-40856D01*
X220711Y-41189D01*
Y-41217D01*
X220767Y-41245D01*
X220905Y-41439D01*
X221155Y-41689D01*
X221461Y-41967D01*
X221877Y-42244D01*
X222349Y-42494D01*
X222877Y-42688D01*
X223154Y-42716D01*
X223460Y-42744D01*
X223626D01*
X223737Y-42716D01*
X224015Y-42660D01*
X224403Y-42550D01*
X224820Y-42355D01*
X225292Y-42077D01*
X225514Y-41911D01*
X225736Y-41689D01*
X225958Y-41467D01*
X226180Y-41189D01*
Y-41161D01*
X226236Y-41106D01*
X226291Y-41023D01*
X226347Y-40884D01*
X226458Y-40689D01*
X226541Y-40440D01*
X226652Y-40162D01*
X226763Y-39829D01*
X226847Y-39412D01*
X226958Y-38968D01*
X227069Y-38441D01*
X227152Y-37885D01*
X227208Y-37219D01*
X227263Y-36525D01*
X227318Y-35748D01*
Y-34887D01*
Y-34859D01*
Y-34832D01*
Y-34693D01*
Y-34443D01*
X227291Y-34110D01*
Y-33749D01*
X227263Y-33305D01*
X227235Y-32833D01*
X227180Y-32305D01*
X227041Y-31250D01*
X226958Y-30723D01*
X226847Y-30223D01*
X226735Y-29751D01*
X226569Y-29307D01*
X226402Y-28918D01*
X226208Y-28585D01*
Y-28557D01*
X226152Y-28530D01*
X226097Y-28446D01*
X226014Y-28335D01*
X225764Y-28085D01*
X225459Y-27780D01*
X225042Y-27502D01*
X224570Y-27253D01*
X224320Y-27141D01*
X224043Y-27058D01*
X223737Y-27030D01*
X223432Y-27003D01*
D02*
G37*
G36*
X201028D02*
X200861D01*
X200750Y-27030D01*
X200445Y-27086D01*
X200084Y-27169D01*
X199667Y-27336D01*
X199223Y-27586D01*
X199001Y-27752D01*
X198779Y-27919D01*
X198585Y-28141D01*
X198390Y-28391D01*
Y-28419D01*
X198335Y-28474D01*
X198279Y-28585D01*
X198196Y-28724D01*
X198113Y-28946D01*
X198002Y-29196D01*
X197918Y-29501D01*
X197807Y-29862D01*
X197696Y-30279D01*
X197585Y-30751D01*
X197474Y-31278D01*
X197391Y-31861D01*
X197308Y-32527D01*
X197252Y-33249D01*
X197224Y-34027D01*
X197197Y-34887D01*
Y-34943D01*
Y-35082D01*
Y-35331D01*
X197224Y-35665D01*
Y-36025D01*
X197252Y-36470D01*
X197280Y-36941D01*
X197335Y-37441D01*
X197474Y-38524D01*
X197557Y-39051D01*
X197668Y-39551D01*
X197780Y-40023D01*
X197946Y-40467D01*
X198113Y-40856D01*
X198307Y-41189D01*
Y-41217D01*
X198363Y-41245D01*
X198501Y-41439D01*
X198751Y-41689D01*
X199057Y-41967D01*
X199473Y-42244D01*
X199945Y-42494D01*
X200473Y-42688D01*
X200750Y-42716D01*
X201056Y-42744D01*
X201222D01*
X201333Y-42716D01*
X201611Y-42660D01*
X201999Y-42550D01*
X202416Y-42355D01*
X202888Y-42077D01*
X203110Y-41911D01*
X203332Y-41689D01*
X203554Y-41467D01*
X203776Y-41189D01*
Y-41161D01*
X203832Y-41106D01*
X203887Y-41023D01*
X203943Y-40884D01*
X204054Y-40689D01*
X204137Y-40440D01*
X204248Y-40162D01*
X204359Y-39829D01*
X204443Y-39412D01*
X204554Y-38968D01*
X204665Y-38441D01*
X204748Y-37885D01*
X204803Y-37219D01*
X204859Y-36525D01*
X204914Y-35748D01*
Y-34887D01*
Y-34859D01*
Y-34832D01*
Y-34693D01*
Y-34443D01*
X204887Y-34110D01*
Y-33749D01*
X204859Y-33305D01*
X204831Y-32833D01*
X204776Y-32305D01*
X204637Y-31250D01*
X204554Y-30723D01*
X204443Y-30223D01*
X204331Y-29751D01*
X204165Y-29307D01*
X203998Y-28918D01*
X203804Y-28585D01*
Y-28557D01*
X203748Y-28530D01*
X203693Y-28446D01*
X203610Y-28335D01*
X203360Y-28085D01*
X203054Y-27780D01*
X202638Y-27502D01*
X202166Y-27253D01*
X201916Y-27141D01*
X201639Y-27058D01*
X201333Y-27030D01*
X201028Y-27003D01*
D02*
G37*
%LPD*%
D16*
X529590Y15240D02*
X534670Y0D01*
X539750Y15240D01*
X534670Y800000D02*
X539750Y784760D01*
X529590D02*
X534670Y800000D01*
Y0D02*
Y334759D01*
Y460161D02*
Y800000D01*
X503540Y0D02*
X537210D01*
X503540Y800000D02*
X537210D01*
X0Y-31750D02*
X15240Y-26670D01*
X0Y-31750D02*
X15240Y-36830D01*
X484760D02*
X500000Y-31750D01*
X484760Y-26670D02*
X500000Y-31750D01*
X0D02*
X177305D01*
X317615D02*
X500000D01*
X0Y-34290D02*
Y-2540D01*
X500000Y-34290D02*
Y-2540D01*
X-228480Y1240785D02*
Y1225550D01*
X-218323D01*
X-210706Y1235707D02*
X-205627D01*
X-203088Y1233167D01*
Y1225550D01*
X-210706D01*
X-213245Y1228089D01*
X-210706Y1230628D01*
X-203088D01*
X-198010Y1235707D02*
Y1228089D01*
X-195471Y1225550D01*
X-187853D01*
Y1223011D01*
X-190392Y1220472D01*
X-192932D01*
X-187853Y1225550D02*
Y1235707D01*
X-175157Y1225550D02*
X-180236D01*
X-182775Y1228089D01*
Y1233167D01*
X-180236Y1235707D01*
X-175157D01*
X-172618Y1233167D01*
Y1230628D01*
X-182775D01*
X-167540Y1235707D02*
Y1225550D01*
Y1230628D01*
X-165001Y1233167D01*
X-162461Y1235707D01*
X-159922D01*
X-218323Y1042670D02*
X-228480D01*
X-218323Y1052827D01*
Y1055366D01*
X-220863Y1057905D01*
X-225941D01*
X-228480Y1055366D01*
Y1103630D02*
X-223402D01*
X-225941D01*
Y1118865D01*
X-228480Y1116326D01*
X-124362Y1225550D02*
Y1240785D01*
X-114206Y1225550D01*
Y1240785D01*
X-106588Y1235707D02*
X-101510D01*
X-98970Y1233167D01*
Y1225550D01*
X-106588D01*
X-109127Y1228089D01*
X-106588Y1230628D01*
X-98970D01*
X-93892Y1225550D02*
Y1235707D01*
X-91353D01*
X-88814Y1233167D01*
Y1225550D01*
Y1233167D01*
X-86275Y1235707D01*
X-83735Y1233167D01*
Y1225550D01*
X-71040D02*
X-76118D01*
X-78657Y1228089D01*
Y1233167D01*
X-76118Y1235707D01*
X-71040D01*
X-68500Y1233167D01*
Y1230628D01*
X-78657D01*
X-124362Y966465D02*
Y951230D01*
X-116745D01*
X-114206Y953769D01*
Y956308D01*
X-116745Y958848D01*
X-124362D01*
X-116745D01*
X-114206Y961387D01*
Y963926D01*
X-116745Y966465D01*
X-124362D01*
X-106588Y951230D02*
X-101510D01*
X-98970Y953769D01*
Y958848D01*
X-101510Y961387D01*
X-106588D01*
X-109127Y958848D01*
Y953769D01*
X-106588Y951230D01*
X-91353Y963926D02*
Y961387D01*
X-93892D01*
X-88814D01*
X-91353D01*
Y953769D01*
X-88814Y951230D01*
X-78657Y963926D02*
Y961387D01*
X-81196D01*
X-76118D01*
X-78657D01*
Y953769D01*
X-76118Y951230D01*
X-65961D02*
X-60883D01*
X-58344Y953769D01*
Y958848D01*
X-60883Y961387D01*
X-65961D01*
X-68500Y958848D01*
Y953769D01*
X-65961Y951230D01*
X-53265D02*
Y961387D01*
X-50726D01*
X-48187Y958848D01*
Y951230D01*
Y958848D01*
X-45648Y961387D01*
X-43109Y958848D01*
Y951230D01*
X-15178Y966465D02*
X-20256D01*
X-22795Y963926D01*
Y953769D01*
X-20256Y951230D01*
X-15178D01*
X-12638Y953769D01*
Y963926D01*
X-15178Y966465D01*
X-7560Y961387D02*
X-2482Y951230D01*
X2597Y961387D01*
X15293Y951230D02*
X10214D01*
X7675Y953769D01*
Y958848D01*
X10214Y961387D01*
X15293D01*
X17832Y958848D01*
Y956308D01*
X7675D01*
X22910Y961387D02*
Y951230D01*
Y956308D01*
X25449Y958848D01*
X27989Y961387D01*
X30528D01*
X38145Y951230D02*
X43224D01*
X40684D01*
Y966465D01*
X38145D01*
X53380Y961387D02*
X58459D01*
X60998Y958848D01*
Y951230D01*
X53380D01*
X50841Y953769D01*
X53380Y956308D01*
X60998D01*
X66076Y961387D02*
Y953769D01*
X68615Y951230D01*
X76233D01*
Y948691D01*
X73694Y946152D01*
X71154D01*
X76233Y951230D02*
Y961387D01*
X-124362Y996945D02*
Y981710D01*
X-116745D01*
X-114206Y984249D01*
Y986788D01*
X-116745Y989327D01*
X-124362D01*
X-116745D01*
X-114206Y991867D01*
Y994406D01*
X-116745Y996945D01*
X-124362D01*
X-106588Y981710D02*
X-101510D01*
X-98970Y984249D01*
Y989327D01*
X-101510Y991867D01*
X-106588D01*
X-109127Y989327D01*
Y984249D01*
X-106588Y981710D01*
X-91353Y994406D02*
Y991867D01*
X-93892D01*
X-88814D01*
X-91353D01*
Y984249D01*
X-88814Y981710D01*
X-78657Y994406D02*
Y991867D01*
X-81196D01*
X-76118D01*
X-78657D01*
Y984249D01*
X-76118Y981710D01*
X-65961D02*
X-60883D01*
X-58344Y984249D01*
Y989327D01*
X-60883Y991867D01*
X-65961D01*
X-68500Y989327D01*
Y984249D01*
X-65961Y981710D01*
X-53265D02*
Y991867D01*
X-50726D01*
X-48187Y989327D01*
Y981710D01*
Y989327D01*
X-45648Y991867D01*
X-43109Y989327D01*
Y981710D01*
X-12638Y994406D02*
X-15178Y996945D01*
X-20256D01*
X-22795Y994406D01*
Y991867D01*
X-20256Y989327D01*
X-15178D01*
X-12638Y986788D01*
Y984249D01*
X-15178Y981710D01*
X-20256D01*
X-22795Y984249D01*
X-5021Y981710D02*
X58D01*
X2597Y984249D01*
Y989327D01*
X58Y991867D01*
X-5021D01*
X-7560Y989327D01*
Y984249D01*
X-5021Y981710D01*
X7675D02*
X12753D01*
X10214D01*
Y996945D01*
X7675D01*
X30528D02*
Y981710D01*
X22910D01*
X20371Y984249D01*
Y989327D01*
X22910Y991867D01*
X30528D01*
X43224Y981710D02*
X38145D01*
X35606Y984249D01*
Y989327D01*
X38145Y991867D01*
X43224D01*
X45763Y989327D01*
Y986788D01*
X35606D01*
X50841Y991867D02*
Y981710D01*
Y986788D01*
X53380Y989327D01*
X55919Y991867D01*
X58459D01*
X-124362Y1027425D02*
Y1012190D01*
X-116745D01*
X-114206Y1014729D01*
Y1017268D01*
X-116745Y1019808D01*
X-124362D01*
X-116745D01*
X-114206Y1022347D01*
Y1024886D01*
X-116745Y1027425D01*
X-124362D01*
X-106588Y1012190D02*
X-101510D01*
X-98970Y1014729D01*
Y1019808D01*
X-101510Y1022347D01*
X-106588D01*
X-109127Y1019808D01*
Y1014729D01*
X-106588Y1012190D01*
X-91353Y1024886D02*
Y1022347D01*
X-93892D01*
X-88814D01*
X-91353D01*
Y1014729D01*
X-88814Y1012190D01*
X-78657Y1024886D02*
Y1022347D01*
X-81196D01*
X-76118D01*
X-78657D01*
Y1014729D01*
X-76118Y1012190D01*
X-65961D02*
X-60883D01*
X-58344Y1014729D01*
Y1019808D01*
X-60883Y1022347D01*
X-65961D01*
X-68500Y1019808D01*
Y1014729D01*
X-65961Y1012190D01*
X-53265D02*
Y1022347D01*
X-50726D01*
X-48187Y1019808D01*
Y1012190D01*
Y1019808D01*
X-45648Y1022347D01*
X-43109Y1019808D01*
Y1012190D01*
X-12638Y1024886D02*
X-15178Y1027425D01*
X-20256D01*
X-22795Y1024886D01*
Y1022347D01*
X-20256Y1019808D01*
X-15178D01*
X-12638Y1017268D01*
Y1014729D01*
X-15178Y1012190D01*
X-20256D01*
X-22795Y1014729D01*
X-7560Y1022347D02*
Y1014729D01*
X-5021Y1012190D01*
X2597D01*
Y1022347D01*
X7675D02*
Y1012190D01*
Y1017268D01*
X10214Y1019808D01*
X12753Y1022347D01*
X15293D01*
X25449Y1012190D02*
Y1024886D01*
Y1019808D01*
X22910D01*
X27989D01*
X25449D01*
Y1024886D01*
X27989Y1027425D01*
X38145Y1022347D02*
X43224D01*
X45763Y1019808D01*
Y1012190D01*
X38145D01*
X35606Y1014729D01*
X38145Y1017268D01*
X45763D01*
X60998Y1022347D02*
X53380D01*
X50841Y1019808D01*
Y1014729D01*
X53380Y1012190D01*
X60998D01*
X73694D02*
X68615D01*
X66076Y1014729D01*
Y1019808D01*
X68615Y1022347D01*
X73694D01*
X76233Y1019808D01*
Y1017268D01*
X66076D01*
X106703Y1027425D02*
X96546D01*
Y1019808D01*
X101625D01*
X96546D01*
Y1012190D01*
X111781D02*
X116860D01*
X114320D01*
Y1022347D01*
X111781D01*
X124477Y1012190D02*
Y1022347D01*
X132095D01*
X134634Y1019808D01*
Y1012190D01*
X139712D02*
X144791D01*
X142252D01*
Y1022347D01*
X139712D01*
X152408Y1012190D02*
X160026D01*
X162565Y1014729D01*
X160026Y1017268D01*
X154947D01*
X152408Y1019808D01*
X154947Y1022347D01*
X162565D01*
X167643Y1027425D02*
Y1012190D01*
Y1019808D01*
X170182Y1022347D01*
X175261D01*
X177800Y1019808D01*
Y1012190D01*
X-124362Y1057905D02*
Y1042670D01*
X-116745D01*
X-114206Y1045209D01*
Y1047748D01*
X-116745Y1050287D01*
X-124362D01*
X-116745D01*
X-114206Y1052827D01*
Y1055366D01*
X-116745Y1057905D01*
X-124362D01*
X-106588Y1042670D02*
X-101510D01*
X-98970Y1045209D01*
Y1050287D01*
X-101510Y1052827D01*
X-106588D01*
X-109127Y1050287D01*
Y1045209D01*
X-106588Y1042670D01*
X-91353Y1055366D02*
Y1052827D01*
X-93892D01*
X-88814D01*
X-91353D01*
Y1045209D01*
X-88814Y1042670D01*
X-78657Y1055366D02*
Y1052827D01*
X-81196D01*
X-76118D01*
X-78657D01*
Y1045209D01*
X-76118Y1042670D01*
X-65961D02*
X-60883D01*
X-58344Y1045209D01*
Y1050287D01*
X-60883Y1052827D01*
X-65961D01*
X-68500Y1050287D01*
Y1045209D01*
X-65961Y1042670D01*
X-53265D02*
Y1052827D01*
X-50726D01*
X-48187Y1050287D01*
Y1042670D01*
Y1050287D01*
X-45648Y1052827D01*
X-43109Y1050287D01*
Y1042670D01*
X-22795Y1057905D02*
Y1042670D01*
X-12638D01*
X-5021Y1052827D02*
X58D01*
X2597Y1050287D01*
Y1042670D01*
X-5021D01*
X-7560Y1045209D01*
X-5021Y1047748D01*
X2597D01*
X7675Y1052827D02*
Y1045209D01*
X10214Y1042670D01*
X17832D01*
Y1040131D01*
X15293Y1037592D01*
X12753D01*
X17832Y1042670D02*
Y1052827D01*
X30528Y1042670D02*
X25449D01*
X22910Y1045209D01*
Y1050287D01*
X25449Y1052827D01*
X30528D01*
X33067Y1050287D01*
Y1047748D01*
X22910D01*
X38145Y1052827D02*
Y1042670D01*
Y1047748D01*
X40684Y1050287D01*
X43224Y1052827D01*
X45763D01*
X-124362Y1088385D02*
Y1073150D01*
X-116745D01*
X-114206Y1075689D01*
Y1085846D01*
X-116745Y1088385D01*
X-124362D01*
X-109127Y1073150D02*
X-104049D01*
X-106588D01*
Y1083307D01*
X-109127D01*
X-88814Y1073150D02*
X-93892D01*
X-96431Y1075689D01*
Y1080768D01*
X-93892Y1083307D01*
X-88814D01*
X-86275Y1080768D01*
Y1078228D01*
X-96431D01*
X-81196Y1073150D02*
X-76118D01*
X-78657D01*
Y1088385D01*
X-81196D01*
X-60883Y1073150D02*
X-65961D01*
X-68500Y1075689D01*
Y1080768D01*
X-65961Y1083307D01*
X-60883D01*
X-58344Y1080768D01*
Y1078228D01*
X-68500D01*
X-43109Y1083307D02*
X-50726D01*
X-53265Y1080768D01*
Y1075689D01*
X-50726Y1073150D01*
X-43109D01*
X-35491Y1085846D02*
Y1083307D01*
X-38030D01*
X-32952D01*
X-35491D01*
Y1075689D01*
X-32952Y1073150D01*
X-25334Y1083307D02*
Y1073150D01*
Y1078228D01*
X-22795Y1080768D01*
X-20256Y1083307D01*
X-17717D01*
X-10099Y1073150D02*
X-5021D01*
X-7560D01*
Y1083307D01*
X-10099D01*
X12753D02*
X5136D01*
X2597Y1080768D01*
Y1075689D01*
X5136Y1073150D01*
X12753D01*
X33067D02*
X38145D01*
X35606D01*
Y1088385D01*
X33067Y1085846D01*
X-124362Y1118865D02*
X-114206D01*
X-119284D01*
Y1103630D01*
X-106588D02*
X-101510D01*
X-98970Y1106169D01*
Y1111247D01*
X-101510Y1113787D01*
X-106588D01*
X-109127Y1111247D01*
Y1106169D01*
X-106588Y1103630D01*
X-93892Y1098552D02*
Y1113787D01*
X-86275D01*
X-83735Y1111247D01*
Y1106169D01*
X-86275Y1103630D01*
X-93892D01*
X-63422Y1118865D02*
Y1103630D01*
X-53265D01*
X-45648Y1113787D02*
X-40569D01*
X-38030Y1111247D01*
Y1103630D01*
X-45648D01*
X-48187Y1106169D01*
X-45648Y1108708D01*
X-38030D01*
X-32952Y1113787D02*
Y1106169D01*
X-30413Y1103630D01*
X-22795D01*
Y1101091D01*
X-25334Y1098552D01*
X-27873D01*
X-22795Y1103630D02*
Y1113787D01*
X-10099Y1103630D02*
X-15178D01*
X-17717Y1106169D01*
Y1111247D01*
X-15178Y1113787D01*
X-10099D01*
X-7560Y1111247D01*
Y1108708D01*
X-17717D01*
X-2482Y1113787D02*
Y1103630D01*
Y1108708D01*
X58Y1111247D01*
X2597Y1113787D01*
X5136D01*
X-124362Y1149345D02*
X-114206D01*
X-119284D01*
Y1134110D01*
X-106588D02*
X-101510D01*
X-98970Y1136649D01*
Y1141728D01*
X-101510Y1144267D01*
X-106588D01*
X-109127Y1141728D01*
Y1136649D01*
X-106588Y1134110D01*
X-93892Y1129032D02*
Y1144267D01*
X-86275D01*
X-83735Y1141728D01*
Y1136649D01*
X-86275Y1134110D01*
X-93892D01*
X-53265Y1146806D02*
X-55804Y1149345D01*
X-60883D01*
X-63422Y1146806D01*
Y1144267D01*
X-60883Y1141728D01*
X-55804D01*
X-53265Y1139188D01*
Y1136649D01*
X-55804Y1134110D01*
X-60883D01*
X-63422Y1136649D01*
X-48187Y1144267D02*
Y1136649D01*
X-45648Y1134110D01*
X-38030D01*
Y1144267D01*
X-32952D02*
Y1134110D01*
Y1139188D01*
X-30413Y1141728D01*
X-27873Y1144267D01*
X-25334D01*
X-15178Y1134110D02*
Y1146806D01*
Y1141728D01*
X-17717D01*
X-12638D01*
X-15178D01*
Y1146806D01*
X-12638Y1149345D01*
X-2482Y1144267D02*
X2597D01*
X5136Y1141728D01*
Y1134110D01*
X-2482D01*
X-5021Y1136649D01*
X-2482Y1139188D01*
X5136D01*
X20371Y1144267D02*
X12753D01*
X10214Y1141728D01*
Y1136649D01*
X12753Y1134110D01*
X20371D01*
X33067D02*
X27989D01*
X25449Y1136649D01*
Y1141728D01*
X27989Y1144267D01*
X33067D01*
X35606Y1141728D01*
Y1139188D01*
X25449D01*
X66076Y1149345D02*
X55919D01*
Y1141728D01*
X60998D01*
X55919D01*
Y1134110D01*
X71154D02*
X76233D01*
X73694D01*
Y1144267D01*
X71154D01*
X83850Y1134110D02*
Y1144267D01*
X91468D01*
X94007Y1141728D01*
Y1134110D01*
X99086D02*
X104164D01*
X101625D01*
Y1144267D01*
X99086D01*
X111781Y1134110D02*
X119399D01*
X121938Y1136649D01*
X119399Y1139188D01*
X114320D01*
X111781Y1141728D01*
X114320Y1144267D01*
X121938D01*
X127016Y1149345D02*
Y1134110D01*
Y1141728D01*
X129556Y1144267D01*
X134634D01*
X137173Y1141728D01*
Y1134110D01*
X-124362Y1179825D02*
X-114206D01*
X-119284D01*
Y1164590D01*
X-106588D02*
X-101510D01*
X-98970Y1167129D01*
Y1172207D01*
X-101510Y1174747D01*
X-106588D01*
X-109127Y1172207D01*
Y1167129D01*
X-106588Y1164590D01*
X-93892Y1159512D02*
Y1174747D01*
X-86275D01*
X-83735Y1172207D01*
Y1167129D01*
X-86275Y1164590D01*
X-93892D01*
X-53265Y1177286D02*
X-55804Y1179825D01*
X-60883D01*
X-63422Y1177286D01*
Y1174747D01*
X-60883Y1172207D01*
X-55804D01*
X-53265Y1169668D01*
Y1167129D01*
X-55804Y1164590D01*
X-60883D01*
X-63422Y1167129D01*
X-45648Y1164590D02*
X-40569D01*
X-38030Y1167129D01*
Y1172207D01*
X-40569Y1174747D01*
X-45648D01*
X-48187Y1172207D01*
Y1167129D01*
X-45648Y1164590D01*
X-32952D02*
X-27873D01*
X-30413D01*
Y1179825D01*
X-32952D01*
X-10099D02*
Y1164590D01*
X-17717D01*
X-20256Y1167129D01*
Y1172207D01*
X-17717Y1174747D01*
X-10099D01*
X2597Y1164590D02*
X-2482D01*
X-5021Y1167129D01*
Y1172207D01*
X-2482Y1174747D01*
X2597D01*
X5136Y1172207D01*
Y1169668D01*
X-5021D01*
X10214Y1174747D02*
Y1164590D01*
Y1169668D01*
X12753Y1172207D01*
X15293Y1174747D01*
X17832D01*
X-124362Y1210305D02*
X-114206D01*
X-119284D01*
Y1195070D01*
X-106588D02*
X-101510D01*
X-98970Y1197609D01*
Y1202688D01*
X-101510Y1205227D01*
X-106588D01*
X-109127Y1202688D01*
Y1197609D01*
X-106588Y1195070D01*
X-93892Y1189992D02*
Y1205227D01*
X-86275D01*
X-83735Y1202688D01*
Y1197609D01*
X-86275Y1195070D01*
X-93892D01*
X-55804Y1210305D02*
X-60883D01*
X-63422Y1207766D01*
Y1197609D01*
X-60883Y1195070D01*
X-55804D01*
X-53265Y1197609D01*
Y1207766D01*
X-55804Y1210305D01*
X-48187Y1205227D02*
X-43109Y1195070D01*
X-38030Y1205227D01*
X-25334Y1195070D02*
X-30413D01*
X-32952Y1197609D01*
Y1202688D01*
X-30413Y1205227D01*
X-25334D01*
X-22795Y1202688D01*
Y1200148D01*
X-32952D01*
X-17717Y1205227D02*
Y1195070D01*
Y1200148D01*
X-15178Y1202688D01*
X-12638Y1205227D01*
X-10099D01*
X-2482Y1195070D02*
X2597D01*
X58D01*
Y1210305D01*
X-2482D01*
X12753Y1205227D02*
X17832D01*
X20371Y1202688D01*
Y1195070D01*
X12753D01*
X10214Y1197609D01*
X12753Y1200148D01*
X20371D01*
X25449Y1205227D02*
Y1197609D01*
X27989Y1195070D01*
X35606D01*
Y1192531D01*
X33067Y1189992D01*
X30528D01*
X35606Y1195070D02*
Y1205227D01*
X213360Y1225550D02*
Y1240785D01*
X218438Y1235707D01*
X223517Y1240785D01*
Y1225550D01*
X231134Y1235707D02*
X236213D01*
X238752Y1233167D01*
Y1225550D01*
X231134D01*
X228595Y1228089D01*
X231134Y1230628D01*
X238752D01*
X246369Y1238246D02*
Y1235707D01*
X243830D01*
X248909D01*
X246369D01*
Y1228089D01*
X248909Y1225550D01*
X264144D02*
X259065D01*
X256526Y1228089D01*
Y1233167D01*
X259065Y1235707D01*
X264144D01*
X266683Y1233167D01*
Y1230628D01*
X256526D01*
X271761Y1235707D02*
Y1225550D01*
Y1230628D01*
X274300Y1233167D01*
X276840Y1235707D01*
X279379D01*
X286996Y1225550D02*
X292075D01*
X289535D01*
Y1235707D01*
X286996D01*
X302231D02*
X307310D01*
X309849Y1233167D01*
Y1225550D01*
X302231D01*
X299692Y1228089D01*
X302231Y1230628D01*
X309849D01*
X314927Y1225550D02*
X320005D01*
X317466D01*
Y1240785D01*
X314927D01*
X223517Y994406D02*
X220977Y996945D01*
X215899D01*
X213360Y994406D01*
Y991867D01*
X215899Y989327D01*
X220977D01*
X223517Y986788D01*
Y984249D01*
X220977Y981710D01*
X215899D01*
X213360Y984249D01*
X228595Y981710D02*
Y996945D01*
X233673Y991867D01*
X238752Y996945D01*
Y981710D01*
X243830Y989327D02*
X253987D01*
X259065Y994406D02*
X261604Y996945D01*
X266683D01*
X269222Y994406D01*
Y984249D01*
X266683Y981710D01*
X261604D01*
X259065Y984249D01*
Y994406D01*
X274300D02*
X276840Y996945D01*
X281918D01*
X284457Y994406D01*
Y984249D01*
X281918Y981710D01*
X276840D01*
X274300Y984249D01*
Y994406D01*
X289535Y981710D02*
X294614D01*
X292075D01*
Y996945D01*
X289535Y994406D01*
X213360Y1012190D02*
Y1027425D01*
X220977D01*
X223517Y1024886D01*
Y1019808D01*
X220977Y1017268D01*
X213360D01*
X228595Y1027425D02*
Y1012190D01*
X236213D01*
X238752Y1014729D01*
Y1017268D01*
Y1019808D01*
X236213Y1022347D01*
X228595D01*
X253987Y1024886D02*
X251448Y1027425D01*
X246369D01*
X243830Y1024886D01*
Y1022347D01*
X246369Y1019808D01*
X251448D01*
X253987Y1017268D01*
Y1014729D01*
X251448Y1012190D01*
X246369D01*
X243830Y1014729D01*
X259065Y1012190D02*
Y1022347D01*
X266683D01*
X269222Y1019808D01*
Y1012190D01*
X223517Y1055366D02*
X220977Y1057905D01*
X215899D01*
X213360Y1055366D01*
Y1045209D01*
X215899Y1042670D01*
X220977D01*
X223517Y1045209D01*
X238752Y1057905D02*
X228595D01*
Y1050287D01*
X233673D01*
X228595D01*
Y1042670D01*
X243830Y1050287D02*
X253987D01*
X259065Y1055366D02*
X261604Y1057905D01*
X266683D01*
X269222Y1055366D01*
Y1045209D01*
X266683Y1042670D01*
X261604D01*
X259065Y1045209D01*
Y1055366D01*
X274300D02*
X276840Y1057905D01*
X281918D01*
X284457Y1055366D01*
Y1045209D01*
X281918Y1042670D01*
X276840D01*
X274300Y1045209D01*
Y1055366D01*
X297153Y1042670D02*
Y1057905D01*
X289535Y1050287D01*
X299692D01*
X223517Y1085846D02*
X220977Y1088385D01*
X215899D01*
X213360Y1085846D01*
Y1075689D01*
X215899Y1073150D01*
X220977D01*
X223517Y1075689D01*
X231134Y1073150D02*
X236213D01*
X238752Y1075689D01*
Y1080768D01*
X236213Y1083307D01*
X231134D01*
X228595Y1080768D01*
Y1075689D01*
X231134Y1073150D01*
X243830Y1083307D02*
Y1073150D01*
Y1078228D01*
X246369Y1080768D01*
X248909Y1083307D01*
X251448D01*
X266683Y1073150D02*
X261604D01*
X259065Y1075689D01*
Y1080768D01*
X261604Y1083307D01*
X266683D01*
X269222Y1080768D01*
Y1078228D01*
X259065D01*
X274300Y1080768D02*
X284457D01*
X289535Y1085846D02*
X292075Y1088385D01*
X297153D01*
X299692Y1085846D01*
Y1075689D01*
X297153Y1073150D01*
X292075D01*
X289535Y1075689D01*
Y1085846D01*
X312388Y1073150D02*
Y1088385D01*
X304770Y1080768D01*
X314927D01*
X320005Y1085846D02*
X322545Y1088385D01*
X327623D01*
X330162Y1085846D01*
Y1083307D01*
X327623Y1080768D01*
X325084D01*
X327623D01*
X330162Y1078228D01*
Y1075689D01*
X327623Y1073150D01*
X322545D01*
X320005Y1075689D01*
X223517Y1116326D02*
X220977Y1118865D01*
X215899D01*
X213360Y1116326D01*
Y1106169D01*
X215899Y1103630D01*
X220977D01*
X223517Y1106169D01*
X238752Y1118865D02*
X228595D01*
Y1111247D01*
X233673D01*
X228595D01*
Y1103630D01*
X243830Y1111247D02*
X253987D01*
X259065Y1116326D02*
X261604Y1118865D01*
X266683D01*
X269222Y1116326D01*
Y1106169D01*
X266683Y1103630D01*
X261604D01*
X259065Y1106169D01*
Y1116326D01*
X274300D02*
X276840Y1118865D01*
X281918D01*
X284457Y1116326D01*
Y1106169D01*
X281918Y1103630D01*
X276840D01*
X274300Y1106169D01*
Y1116326D01*
X297153Y1103630D02*
Y1118865D01*
X289535Y1111247D01*
X299692D01*
X213360Y1134110D02*
Y1149345D01*
X220977D01*
X223517Y1146806D01*
Y1141728D01*
X220977Y1139188D01*
X213360D01*
X228595Y1149345D02*
Y1134110D01*
X236213D01*
X238752Y1136649D01*
Y1139188D01*
Y1141728D01*
X236213Y1144267D01*
X228595D01*
X253987Y1146806D02*
X251448Y1149345D01*
X246369D01*
X243830Y1146806D01*
Y1144267D01*
X246369Y1141728D01*
X251448D01*
X253987Y1139188D01*
Y1136649D01*
X251448Y1134110D01*
X246369D01*
X243830Y1136649D01*
X259065Y1134110D02*
Y1144267D01*
X266683D01*
X269222Y1141728D01*
Y1134110D01*
X223517Y1177286D02*
X220977Y1179825D01*
X215899D01*
X213360Y1177286D01*
Y1174747D01*
X215899Y1172207D01*
X220977D01*
X223517Y1169668D01*
Y1167129D01*
X220977Y1164590D01*
X215899D01*
X213360Y1167129D01*
X228595Y1164590D02*
Y1179825D01*
X233673Y1174747D01*
X238752Y1179825D01*
Y1164590D01*
X243830Y1172207D02*
X253987D01*
X259065Y1177286D02*
X261604Y1179825D01*
X266683D01*
X269222Y1177286D01*
Y1167129D01*
X266683Y1164590D01*
X261604D01*
X259065Y1167129D01*
Y1177286D01*
X274300D02*
X276840Y1179825D01*
X281918D01*
X284457Y1177286D01*
Y1167129D01*
X281918Y1164590D01*
X276840D01*
X274300Y1167129D01*
Y1177286D01*
X289535Y1164590D02*
X294614D01*
X292075D01*
Y1179825D01*
X289535Y1177286D01*
X365722Y1240785D02*
X375879D01*
X370801D01*
Y1225550D01*
X380957Y1240785D02*
Y1225550D01*
Y1233167D01*
X383497Y1235707D01*
X388575D01*
X391114Y1233167D01*
Y1225550D01*
X396192D02*
X401271D01*
X398732D01*
Y1235707D01*
X396192D01*
X419045D02*
X411427D01*
X408888Y1233167D01*
Y1228089D01*
X411427Y1225550D01*
X419045D01*
X424123D02*
Y1240785D01*
Y1230628D02*
X431741Y1235707D01*
X424123Y1230628D02*
X431741Y1225550D01*
X439358D02*
Y1235707D01*
X446976D01*
X449515Y1233167D01*
Y1225550D01*
X462211D02*
X457133D01*
X454594Y1228089D01*
Y1233167D01*
X457133Y1235707D01*
X462211D01*
X464750Y1233167D01*
Y1230628D01*
X454594D01*
X469828Y1225550D02*
X477446D01*
X479985Y1228089D01*
X477446Y1230628D01*
X472368D01*
X469828Y1233167D01*
X472368Y1235707D01*
X479985D01*
X485064Y1225550D02*
X492681D01*
X495220Y1228089D01*
X492681Y1230628D01*
X487603D01*
X485064Y1233167D01*
X487603Y1235707D01*
X495220D01*
X365722Y994406D02*
X368261Y996945D01*
X373340D01*
X375879Y994406D01*
Y984249D01*
X373340Y981710D01*
X368261D01*
X365722Y984249D01*
Y994406D01*
X383497Y979171D02*
X386036Y981710D01*
Y984249D01*
X383497D01*
Y981710D01*
X386036D01*
X383497Y979171D01*
X380957Y976632D01*
X396192Y994406D02*
X398732Y996945D01*
X403810D01*
X406349Y994406D01*
Y984249D01*
X403810Y981710D01*
X398732D01*
X396192Y984249D01*
Y994406D01*
X421584Y981710D02*
X411427D01*
X421584Y991867D01*
Y994406D01*
X419045Y996945D01*
X413967D01*
X411427Y994406D01*
X436819Y996945D02*
X426662D01*
Y989327D01*
X431741Y991867D01*
X434280D01*
X436819Y989327D01*
Y984249D01*
X434280Y981710D01*
X429202D01*
X426662Y984249D01*
X441898Y981710D02*
Y991867D01*
X444437D01*
X446976Y989327D01*
Y981710D01*
Y989327D01*
X449515Y991867D01*
X452054Y989327D01*
Y981710D01*
X457133D02*
Y991867D01*
X459672D01*
X462211Y989327D01*
Y981710D01*
Y989327D01*
X464750Y991867D01*
X467289Y989327D01*
Y981710D01*
X365722Y1024886D02*
X368261Y1027425D01*
X373340D01*
X375879Y1024886D01*
Y1014729D01*
X373340Y1012190D01*
X368261D01*
X365722Y1014729D01*
Y1024886D01*
X383497Y1009651D02*
X386036Y1012190D01*
Y1014729D01*
X383497D01*
Y1012190D01*
X386036D01*
X383497Y1009651D01*
X380957Y1007112D01*
X396192Y1024886D02*
X398732Y1027425D01*
X403810D01*
X406349Y1024886D01*
Y1014729D01*
X403810Y1012190D01*
X398732D01*
X396192Y1014729D01*
Y1024886D01*
X421584Y1012190D02*
X411427D01*
X421584Y1022347D01*
Y1024886D01*
X419045Y1027425D01*
X413967D01*
X411427Y1024886D01*
X426662D02*
X429202Y1027425D01*
X434280D01*
X436819Y1024886D01*
Y1014729D01*
X434280Y1012190D01*
X429202D01*
X426662Y1014729D01*
Y1024886D01*
X441898Y1012190D02*
Y1022347D01*
X444437D01*
X446976Y1019808D01*
Y1012190D01*
Y1019808D01*
X449515Y1022347D01*
X452054Y1019808D01*
Y1012190D01*
X457133D02*
Y1022347D01*
X459672D01*
X462211Y1019808D01*
Y1012190D01*
Y1019808D01*
X464750Y1022347D01*
X467289Y1019808D01*
Y1012190D01*
X365722Y1055366D02*
X368261Y1057905D01*
X373340D01*
X375879Y1055366D01*
Y1045209D01*
X373340Y1042670D01*
X368261D01*
X365722Y1045209D01*
Y1055366D01*
X383497Y1040131D02*
X386036Y1042670D01*
Y1045209D01*
X383497D01*
Y1042670D01*
X386036D01*
X383497Y1040131D01*
X380957Y1037592D01*
X396192Y1055366D02*
X398732Y1057905D01*
X403810D01*
X406349Y1055366D01*
Y1045209D01*
X403810Y1042670D01*
X398732D01*
X396192Y1045209D01*
Y1055366D01*
X411427D02*
X413967Y1057905D01*
X419045D01*
X421584Y1055366D01*
Y1052827D01*
X419045Y1050287D01*
X416506D01*
X419045D01*
X421584Y1047748D01*
Y1045209D01*
X419045Y1042670D01*
X413967D01*
X411427Y1045209D01*
X436819Y1057905D02*
X426662D01*
Y1050287D01*
X431741Y1052827D01*
X434280D01*
X436819Y1050287D01*
Y1045209D01*
X434280Y1042670D01*
X429202D01*
X426662Y1045209D01*
X441898Y1042670D02*
Y1052827D01*
X444437D01*
X446976Y1050287D01*
Y1042670D01*
Y1050287D01*
X449515Y1052827D01*
X452054Y1050287D01*
Y1042670D01*
X457133D02*
Y1052827D01*
X459672D01*
X462211Y1050287D01*
Y1042670D01*
Y1050287D01*
X464750Y1052827D01*
X467289Y1050287D01*
Y1042670D01*
X365722Y1073150D02*
X370801D01*
X368261D01*
Y1088385D01*
X365722Y1085846D01*
X380957Y1070611D02*
X383497Y1073150D01*
Y1075689D01*
X380957D01*
Y1073150D01*
X383497D01*
X380957Y1070611D01*
X378418Y1068072D01*
X401271Y1073150D02*
Y1088385D01*
X393653Y1080768D01*
X403810D01*
X408888Y1075689D02*
X411427Y1073150D01*
X416506D01*
X419045Y1075689D01*
Y1085846D01*
X416506Y1088385D01*
X411427D01*
X408888Y1085846D01*
Y1083307D01*
X411427Y1080768D01*
X419045D01*
X424123Y1075689D02*
X426662Y1073150D01*
X431741D01*
X434280Y1075689D01*
Y1085846D01*
X431741Y1088385D01*
X426662D01*
X424123Y1085846D01*
Y1083307D01*
X426662Y1080768D01*
X434280D01*
X439358Y1073150D02*
Y1083307D01*
X441898D01*
X444437Y1080768D01*
Y1073150D01*
Y1080768D01*
X446976Y1083307D01*
X449515Y1080768D01*
Y1073150D01*
X454594D02*
Y1083307D01*
X457133D01*
X459672Y1080768D01*
Y1073150D01*
Y1080768D01*
X462211Y1083307D01*
X464750Y1080768D01*
Y1073150D01*
X365722Y1116326D02*
X368261Y1118865D01*
X373340D01*
X375879Y1116326D01*
Y1106169D01*
X373340Y1103630D01*
X368261D01*
X365722Y1106169D01*
Y1116326D01*
X383497Y1101091D02*
X386036Y1103630D01*
Y1106169D01*
X383497D01*
Y1103630D01*
X386036D01*
X383497Y1101091D01*
X380957Y1098552D01*
X396192Y1116326D02*
X398732Y1118865D01*
X403810D01*
X406349Y1116326D01*
Y1106169D01*
X403810Y1103630D01*
X398732D01*
X396192Y1106169D01*
Y1116326D01*
X411427D02*
X413967Y1118865D01*
X419045D01*
X421584Y1116326D01*
Y1113787D01*
X419045Y1111247D01*
X416506D01*
X419045D01*
X421584Y1108708D01*
Y1106169D01*
X419045Y1103630D01*
X413967D01*
X411427Y1106169D01*
X436819Y1118865D02*
X426662D01*
Y1111247D01*
X431741Y1113787D01*
X434280D01*
X436819Y1111247D01*
Y1106169D01*
X434280Y1103630D01*
X429202D01*
X426662Y1106169D01*
X441898Y1103630D02*
Y1113787D01*
X444437D01*
X446976Y1111247D01*
Y1103630D01*
Y1111247D01*
X449515Y1113787D01*
X452054Y1111247D01*
Y1103630D01*
X457133D02*
Y1113787D01*
X459672D01*
X462211Y1111247D01*
Y1103630D01*
Y1111247D01*
X464750Y1113787D01*
X467289Y1111247D01*
Y1103630D01*
X365722Y1146806D02*
X368261Y1149345D01*
X373340D01*
X375879Y1146806D01*
Y1136649D01*
X373340Y1134110D01*
X368261D01*
X365722Y1136649D01*
Y1146806D01*
X383497Y1131571D02*
X386036Y1134110D01*
Y1136649D01*
X383497D01*
Y1134110D01*
X386036D01*
X383497Y1131571D01*
X380957Y1129032D01*
X396192Y1146806D02*
X398732Y1149345D01*
X403810D01*
X406349Y1146806D01*
Y1136649D01*
X403810Y1134110D01*
X398732D01*
X396192Y1136649D01*
Y1146806D01*
X421584Y1134110D02*
X411427D01*
X421584Y1144267D01*
Y1146806D01*
X419045Y1149345D01*
X413967D01*
X411427Y1146806D01*
X426662D02*
X429202Y1149345D01*
X434280D01*
X436819Y1146806D01*
Y1136649D01*
X434280Y1134110D01*
X429202D01*
X426662Y1136649D01*
Y1146806D01*
X441898Y1134110D02*
Y1144267D01*
X444437D01*
X446976Y1141728D01*
Y1134110D01*
Y1141728D01*
X449515Y1144267D01*
X452054Y1141728D01*
Y1134110D01*
X457133D02*
Y1144267D01*
X459672D01*
X462211Y1141728D01*
Y1134110D01*
Y1141728D01*
X464750Y1144267D01*
X467289Y1141728D01*
Y1134110D01*
X365722Y1177286D02*
X368261Y1179825D01*
X373340D01*
X375879Y1177286D01*
Y1167129D01*
X373340Y1164590D01*
X368261D01*
X365722Y1167129D01*
Y1177286D01*
X383497Y1162051D02*
X386036Y1164590D01*
Y1167129D01*
X383497D01*
Y1164590D01*
X386036D01*
X383497Y1162051D01*
X380957Y1159512D01*
X396192Y1177286D02*
X398732Y1179825D01*
X403810D01*
X406349Y1177286D01*
Y1167129D01*
X403810Y1164590D01*
X398732D01*
X396192Y1167129D01*
Y1177286D01*
X421584Y1164590D02*
X411427D01*
X421584Y1174747D01*
Y1177286D01*
X419045Y1179825D01*
X413967D01*
X411427Y1177286D01*
X436819Y1179825D02*
X426662D01*
Y1172207D01*
X431741Y1174747D01*
X434280D01*
X436819Y1172207D01*
Y1167129D01*
X434280Y1164590D01*
X429202D01*
X426662Y1167129D01*
X441898Y1164590D02*
Y1174747D01*
X444437D01*
X446976Y1172207D01*
Y1164590D01*
Y1172207D01*
X449515Y1174747D01*
X452054Y1172207D01*
Y1164590D01*
X457133D02*
Y1174747D01*
X459672D01*
X462211Y1172207D01*
Y1164590D01*
Y1172207D01*
X464750Y1174747D01*
X467289Y1172207D01*
Y1164590D01*
X540937Y1238246D02*
X538398Y1240785D01*
X533320D01*
X530780Y1238246D01*
Y1228089D01*
X533320Y1225550D01*
X538398D01*
X540937Y1228089D01*
X548555Y1225550D02*
X553633D01*
X556172Y1228089D01*
Y1233167D01*
X553633Y1235707D01*
X548555D01*
X546015Y1233167D01*
Y1228089D01*
X548555Y1225550D01*
X561250D02*
Y1235707D01*
X568868D01*
X571407Y1233167D01*
Y1225550D01*
X576486D02*
X584103D01*
X586642Y1228089D01*
X584103Y1230628D01*
X579025D01*
X576486Y1233167D01*
X579025Y1235707D01*
X586642D01*
X594260Y1238246D02*
Y1235707D01*
X591721D01*
X596799D01*
X594260D01*
Y1228089D01*
X596799Y1225550D01*
X606956Y1235707D02*
X612034D01*
X614573Y1233167D01*
Y1225550D01*
X606956D01*
X604417Y1228089D01*
X606956Y1230628D01*
X614573D01*
X619652Y1225550D02*
Y1235707D01*
X627269D01*
X629808Y1233167D01*
Y1225550D01*
X637426Y1238246D02*
Y1235707D01*
X634887D01*
X639965D01*
X637426D01*
Y1228089D01*
X639965Y1225550D01*
X538398Y981710D02*
Y996945D01*
X530780Y989327D01*
X540937D01*
X538398Y1073150D02*
Y1088385D01*
X530780Y1080768D01*
X540937D01*
X546015Y1073150D02*
Y1075689D01*
X548555D01*
Y1073150D01*
X546015D01*
X558711Y1085846D02*
X561250Y1088385D01*
X566329D01*
X568868Y1085846D01*
Y1083307D01*
X566329Y1080768D01*
X563790D01*
X566329D01*
X568868Y1078228D01*
Y1075689D01*
X566329Y1073150D01*
X561250D01*
X558711Y1075689D01*
X538398Y1164590D02*
Y1179825D01*
X530780Y1172207D01*
X540937D01*
X675525Y1240785D02*
Y1225550D01*
X683143D01*
X685682Y1228089D01*
Y1230628D01*
X683143Y1233167D01*
X675525D01*
X683143D01*
X685682Y1235707D01*
Y1238246D01*
X683143Y1240785D01*
X675525D01*
X693299Y1225550D02*
X698378D01*
X700917Y1228089D01*
Y1233167D01*
X698378Y1235707D01*
X693299D01*
X690760Y1233167D01*
Y1228089D01*
X693299Y1225550D01*
X708534Y1235707D02*
X713613D01*
X716152Y1233167D01*
Y1225550D01*
X708534D01*
X705995Y1228089D01*
X708534Y1230628D01*
X716152D01*
X721230Y1235707D02*
Y1225550D01*
Y1230628D01*
X723769Y1233167D01*
X726309Y1235707D01*
X728848D01*
X746622Y1240785D02*
Y1225550D01*
X739005D01*
X736465Y1228089D01*
Y1233167D01*
X739005Y1235707D01*
X746622D01*
X766935Y1240785D02*
Y1225550D01*
X777092D01*
X784710Y1235707D02*
X789788D01*
X792327Y1233167D01*
Y1225550D01*
X784710D01*
X782170Y1228089D01*
X784710Y1230628D01*
X792327D01*
X797406Y1235707D02*
Y1228089D01*
X799945Y1225550D01*
X807562D01*
Y1223011D01*
X805023Y1220472D01*
X802484D01*
X807562Y1225550D02*
Y1235707D01*
X820258Y1225550D02*
X815180D01*
X812641Y1228089D01*
Y1233167D01*
X815180Y1235707D01*
X820258D01*
X822797Y1233167D01*
Y1230628D01*
X812641D01*
X827876Y1235707D02*
Y1225550D01*
Y1230628D01*
X830415Y1233167D01*
X832954Y1235707D01*
X835493D01*
X868503Y1238246D02*
X865963Y1240785D01*
X860885D01*
X858346Y1238246D01*
Y1235707D01*
X860885Y1233167D01*
X865963D01*
X868503Y1230628D01*
Y1228089D01*
X865963Y1225550D01*
X860885D01*
X858346Y1228089D01*
X876120Y1238246D02*
Y1235707D01*
X873581D01*
X878659D01*
X876120D01*
Y1228089D01*
X878659Y1225550D01*
X888816Y1235707D02*
X893894D01*
X896434Y1233167D01*
Y1225550D01*
X888816D01*
X886277Y1228089D01*
X888816Y1230628D01*
X896434D01*
X911669Y1235707D02*
X904051D01*
X901512Y1233167D01*
Y1228089D01*
X904051Y1225550D01*
X911669D01*
X916747D02*
Y1240785D01*
Y1230628D02*
X924364Y1235707D01*
X916747Y1230628D02*
X924364Y1225550D01*
X-228480Y935985D02*
X-218323D01*
X-223402D01*
Y920750D01*
X-210706D02*
X-205627D01*
X-203088Y923289D01*
Y928367D01*
X-205627Y930907D01*
X-210706D01*
X-213245Y928367D01*
Y923289D01*
X-210706Y920750D01*
X-195471Y933446D02*
Y930907D01*
X-198010D01*
X-192932D01*
X-195471D01*
Y923289D01*
X-192932Y920750D01*
X-182775Y930907D02*
X-177696D01*
X-175157Y928367D01*
Y920750D01*
X-182775D01*
X-185314Y923289D01*
X-182775Y925828D01*
X-175157D01*
X-170079Y920750D02*
X-165001D01*
X-167540D01*
Y935985D01*
X-170079D01*
X-142148D02*
Y920750D01*
X-134530D01*
X-131991Y923289D01*
Y925828D01*
Y928367D01*
X-134530Y930907D01*
X-142148D01*
X-124374Y920750D02*
X-119295D01*
X-116756Y923289D01*
Y928367D01*
X-119295Y930907D01*
X-124374D01*
X-126913Y928367D01*
Y923289D01*
X-124374Y920750D01*
X-109139Y930907D02*
X-104060D01*
X-101521Y928367D01*
Y920750D01*
X-109139D01*
X-111678Y923289D01*
X-109139Y925828D01*
X-101521D01*
X-96443Y930907D02*
Y920750D01*
Y925828D01*
X-93904Y928367D01*
X-91364Y930907D01*
X-88825D01*
X-71051Y935985D02*
Y920750D01*
X-78668D01*
X-81208Y923289D01*
Y928367D01*
X-78668Y930907D01*
X-71051D01*
X-48198Y933446D02*
Y930907D01*
X-50738D01*
X-45659D01*
X-48198D01*
Y923289D01*
X-45659Y920750D01*
X-38042Y935985D02*
Y920750D01*
Y928367D01*
X-35503Y930907D01*
X-30424D01*
X-27885Y928367D01*
Y920750D01*
X-22807D02*
X-17728D01*
X-20267D01*
Y930907D01*
X-22807D01*
X46D02*
X-7571D01*
X-10111Y928367D01*
Y923289D01*
X-7571Y920750D01*
X46D01*
X5124D02*
Y935985D01*
Y925828D02*
X12742Y930907D01*
X5124Y925828D02*
X12742Y920750D01*
X20359D02*
Y930907D01*
X27977D01*
X30516Y928367D01*
Y920750D01*
X43212D02*
X38134D01*
X35594Y923289D01*
Y928367D01*
X38134Y930907D01*
X43212D01*
X45751Y928367D01*
Y925828D01*
X35594D01*
X50830Y920750D02*
X58447D01*
X60986Y923289D01*
X58447Y925828D01*
X53369D01*
X50830Y928367D01*
X53369Y930907D01*
X60986D01*
X66065Y920750D02*
X73682D01*
X76221Y923289D01*
X73682Y925828D01*
X68604D01*
X66065Y928367D01*
X68604Y930907D01*
X76221D01*
X81300D02*
X83839D01*
Y928367D01*
X81300D01*
Y930907D01*
Y923289D02*
X83839D01*
Y920750D01*
X81300D01*
Y923289D01*
X365722Y920750D02*
X370801D01*
X368261D01*
Y935985D01*
X365722Y933446D01*
X380957Y918211D02*
X383497Y920750D01*
Y923289D01*
X380957D01*
Y920750D01*
X383497D01*
X380957Y918211D01*
X378418Y915672D01*
X403810Y935985D02*
X398731Y933446D01*
X393653Y928367D01*
Y923289D01*
X396192Y920750D01*
X401271D01*
X403810Y923289D01*
Y925828D01*
X401271Y928367D01*
X393653D01*
X419045Y935985D02*
X408888D01*
Y928367D01*
X413967Y930907D01*
X416506D01*
X419045Y928367D01*
Y923289D01*
X416506Y920750D01*
X411427D01*
X408888Y923289D01*
X424123D02*
X426662Y920750D01*
X431741D01*
X434280Y923289D01*
Y933446D01*
X431741Y935985D01*
X426662D01*
X424123Y933446D01*
Y930907D01*
X426662Y928367D01*
X434280D01*
X439358Y920750D02*
Y930907D01*
X441898D01*
X444437Y928367D01*
Y920750D01*
Y928367D01*
X446976Y930907D01*
X449515Y928367D01*
Y920750D01*
X454594D02*
Y930907D01*
X457133D01*
X459672Y928367D01*
Y920750D01*
Y928367D01*
X462211Y930907D01*
X464750Y928367D01*
Y920750D01*
D60*
X926905Y943610D02*
X942144Y958850D01*
X911665Y943610D02*
X942144Y974090D01*
X896424Y943610D02*
X926905Y974090D01*
X881184Y943610D02*
X911665Y974090D01*
X865945Y943610D02*
X896424Y974090D01*
X850704Y943610D02*
X881184Y974090D01*
X835464Y943610D02*
X865945Y974090D01*
X820225Y943610D02*
X850704Y974090D01*
X804985Y943610D02*
X835464Y974090D01*
X789744Y943610D02*
X820225Y974090D01*
X774504Y943610D02*
X804985Y974090D01*
X759265Y943610D02*
X789744Y974090D01*
X744025Y943610D02*
X774504Y974090D01*
X728784Y943610D02*
X759265Y974090D01*
X713544Y943610D02*
X744025Y974090D01*
X698305Y943610D02*
X728784Y974090D01*
X683064Y943610D02*
X713544Y974090D01*
X667824Y943610D02*
X698305Y974090D01*
X657745Y948771D02*
X683064Y974090D01*
X657745Y964010D02*
X667824Y974090D01*
X926905D02*
X942144Y989330D01*
X911665Y974090D02*
X942144Y1004570D01*
X896424Y974090D02*
X926905Y1004570D01*
X881184Y974090D02*
X911665Y1004570D01*
X865945Y974090D02*
X896424Y1004570D01*
X850704Y974090D02*
X881184Y1004570D01*
X835464Y974090D02*
X865945Y1004570D01*
X820225Y974090D02*
X850704Y1004570D01*
X804985Y974090D02*
X835464Y1004570D01*
X789744Y974090D02*
X820225Y1004570D01*
X774504Y974090D02*
X804985Y1004570D01*
X759265Y974090D02*
X789744Y1004570D01*
X744025Y974090D02*
X774504Y1004570D01*
X728784Y974090D02*
X759265Y1004570D01*
X713544Y974090D02*
X744025Y1004570D01*
X698305Y974090D02*
X728784Y1004570D01*
X683064Y974090D02*
X713544Y1004570D01*
X667824Y974090D02*
X698305Y1004570D01*
X657745Y979250D02*
X683064Y1004570D01*
X657745Y994491D02*
X667824Y1004570D01*
X926905D02*
X942144Y1019810D01*
X911665Y1004570D02*
X942144Y1035050D01*
X896424Y1004570D02*
X926905Y1035050D01*
X881184Y1004570D02*
X911665Y1035050D01*
X865945Y1004570D02*
X896424Y1035050D01*
X850704Y1004570D02*
X881184Y1035050D01*
X835464Y1004570D02*
X865945Y1035050D01*
X820225Y1004570D02*
X850704Y1035050D01*
X804985Y1004570D02*
X835464Y1035050D01*
X789744Y1004570D02*
X820225Y1035050D01*
X774504Y1004570D02*
X804985Y1035050D01*
X759265Y1004570D02*
X789744Y1035050D01*
X744025Y1004570D02*
X774504Y1035050D01*
X728784Y1004570D02*
X759265Y1035050D01*
X713544Y1004570D02*
X744025Y1035050D01*
X698305Y1004570D02*
X728784Y1035050D01*
X683064Y1004570D02*
X713544Y1035050D01*
X667824Y1004570D02*
X698305Y1035050D01*
X657745Y1009731D02*
X683064Y1035050D01*
X657745Y1024970D02*
X667824Y1035050D01*
X926905D02*
X942144Y1050290D01*
X911665Y1035050D02*
X942144Y1065530D01*
X896424Y1035050D02*
X926905Y1065530D01*
X881184Y1035050D02*
X911665Y1065530D01*
X865945Y1035050D02*
X896424Y1065530D01*
X850704Y1035050D02*
X881184Y1065530D01*
X835464Y1035050D02*
X865945Y1065530D01*
X820225Y1035050D02*
X850704Y1065530D01*
X804985Y1035050D02*
X835464Y1065530D01*
X789744Y1035050D02*
X820225Y1065530D01*
X774504Y1035050D02*
X804985Y1065530D01*
X759265Y1035050D02*
X789744Y1065530D01*
X744025Y1035050D02*
X774504Y1065530D01*
X728784Y1035050D02*
X759265Y1065530D01*
X713544Y1035050D02*
X744025Y1065530D01*
X698305Y1035050D02*
X728784Y1065530D01*
X683064Y1035050D02*
X713544Y1065530D01*
X667824Y1035050D02*
X698305Y1065530D01*
X657745Y1040210D02*
X683064Y1065530D01*
X657745Y1055451D02*
X667824Y1065530D01*
X926905D02*
X942144Y1080770D01*
X911665Y1065530D02*
X942144Y1096010D01*
X896424Y1065530D02*
X926905Y1096010D01*
X881184Y1065530D02*
X911665Y1096010D01*
X865945Y1065530D02*
X896424Y1096010D01*
X850704Y1065530D02*
X881184Y1096010D01*
X835464Y1065530D02*
X865945Y1096010D01*
X820225Y1065530D02*
X850704Y1096010D01*
X804985Y1065530D02*
X835464Y1096010D01*
X789744Y1065530D02*
X820225Y1096010D01*
X774504Y1065530D02*
X804985Y1096010D01*
X759265Y1065530D02*
X789744Y1096010D01*
X744025Y1065530D02*
X774504Y1096010D01*
X728784Y1065530D02*
X759265Y1096010D01*
X713544Y1065530D02*
X744025Y1096010D01*
X698305Y1065530D02*
X728784Y1096010D01*
X683064Y1065530D02*
X713544Y1096010D01*
X667824Y1065530D02*
X698305Y1096010D01*
X657745Y1070691D02*
X683064Y1096010D01*
X657745Y1085930D02*
X667824Y1096010D01*
X926905D02*
X942144Y1111250D01*
X911665Y1096010D02*
X942144Y1126490D01*
X896424Y1096010D02*
X926905Y1126490D01*
X881184Y1096010D02*
X911665Y1126490D01*
X865945Y1096010D02*
X896424Y1126490D01*
X850704Y1096010D02*
X881184Y1126490D01*
X835464Y1096010D02*
X865945Y1126490D01*
X820225Y1096010D02*
X850704Y1126490D01*
X804985Y1096010D02*
X835464Y1126490D01*
X789744Y1096010D02*
X820225Y1126490D01*
X774504Y1096010D02*
X804985Y1126490D01*
X759265Y1096010D02*
X789744Y1126490D01*
X744025Y1096010D02*
X774504Y1126490D01*
X728784Y1096010D02*
X759265Y1126490D01*
X713544Y1096010D02*
X744025Y1126490D01*
X698305Y1096010D02*
X728784Y1126490D01*
X683064Y1096010D02*
X713544Y1126490D01*
X667824Y1096010D02*
X698305Y1126490D01*
X657745Y1101171D02*
X683064Y1126490D01*
X657745Y1116411D02*
X667824Y1126490D01*
X926905D02*
X942144Y1141730D01*
X911665Y1126490D02*
X942144Y1156970D01*
X896424Y1126490D02*
X926905Y1156970D01*
X881184Y1126490D02*
X911665Y1156970D01*
X865945Y1126490D02*
X896424Y1156970D01*
X850704Y1126490D02*
X881184Y1156970D01*
X835464Y1126490D02*
X865945Y1156970D01*
X820225Y1126490D02*
X850704Y1156970D01*
X804985Y1126490D02*
X835464Y1156970D01*
X789744Y1126490D02*
X820225Y1156970D01*
X774504Y1126490D02*
X804985Y1156970D01*
X759265Y1126490D02*
X789744Y1156970D01*
X744025Y1126490D02*
X774504Y1156970D01*
X728784Y1126490D02*
X759265Y1156970D01*
X713544Y1126490D02*
X744025Y1156970D01*
X698305Y1126490D02*
X728784Y1156970D01*
X683064Y1126490D02*
X713544Y1156970D01*
X667824Y1126490D02*
X698305Y1156970D01*
X657745Y1131650D02*
X683064Y1156970D01*
X657745Y1146890D02*
X667824Y1156970D01*
X926905D02*
X942144Y1172210D01*
X911665Y1156970D02*
X942144Y1187450D01*
X896424Y1156970D02*
X926905Y1187450D01*
X881184Y1156970D02*
X911665Y1187450D01*
X865945Y1156970D02*
X896424Y1187450D01*
X850704Y1156970D02*
X881184Y1187450D01*
X835464Y1156970D02*
X865945Y1187450D01*
X820225Y1156970D02*
X850704Y1187450D01*
X804985Y1156970D02*
X835464Y1187450D01*
X789744Y1156970D02*
X820225Y1187450D01*
X774504Y1156970D02*
X804985Y1187450D01*
X759265Y1156970D02*
X789744Y1187450D01*
X744025Y1156970D02*
X774504Y1187450D01*
X728784Y1156970D02*
X759265Y1187450D01*
X713544Y1156970D02*
X744025Y1187450D01*
X698305Y1156970D02*
X728784Y1187450D01*
X683064Y1156970D02*
X713544Y1187450D01*
X667824Y1156970D02*
X698305Y1187450D01*
X657745Y1162131D02*
X683064Y1187450D01*
X657745Y1177371D02*
X667824Y1187450D01*
X926905D02*
X942144Y1202690D01*
X911665Y1187450D02*
X942144Y1217930D01*
X896424Y1187450D02*
X926905Y1217930D01*
X881184Y1187450D02*
X911665Y1217930D01*
X865945Y1187450D02*
X896424Y1217930D01*
X850704Y1187450D02*
X881184Y1217930D01*
X835464Y1187450D02*
X865945Y1217930D01*
X820225Y1187450D02*
X850704Y1217930D01*
X804985Y1187450D02*
X835464Y1217930D01*
X789744Y1187450D02*
X820225Y1217930D01*
X774504Y1187450D02*
X804985Y1217930D01*
X759265Y1187450D02*
X789744Y1217930D01*
X744025Y1187450D02*
X774504Y1217930D01*
X728784Y1187450D02*
X759265Y1217930D01*
X713544Y1187450D02*
X744025Y1217930D01*
X698305Y1187450D02*
X728784Y1217930D01*
X683064Y1187450D02*
X713544Y1217930D01*
X667824Y1187450D02*
X698305Y1217930D01*
X657745Y1192610D02*
X683064Y1217930D01*
X657745Y1207850D02*
X667824Y1217930D01*
D62*
X-246260D02*
X942144D01*
X-246260Y1248410D02*
X942144D01*
X-246260Y943610D02*
Y1248410D01*
Y943610D02*
X-142142D01*
X-246260Y974090D02*
X-142142D01*
X-246260Y1004570D02*
X-142142D01*
X-246260Y1035050D02*
X-142142D01*
X-246260Y1065530D02*
X-142142D01*
X-246260Y1096010D02*
X-142142D01*
X-246260Y1126490D02*
X-142142D01*
X-246260Y1156970D02*
X-142142D01*
X-246260Y1187450D02*
X-142142D01*
Y943610D02*
Y1248410D01*
Y943610D02*
X195580D01*
X-142142Y974090D02*
X195580D01*
X-142142Y1004570D02*
X195580D01*
X-142142Y1035050D02*
X195580D01*
X-142142Y1065530D02*
X195580D01*
X-142142Y1096010D02*
X195580D01*
X-142142Y1126490D02*
X195580D01*
X-142142Y1156970D02*
X195580D01*
X-142142Y1187450D02*
X195580D01*
Y943610D02*
Y1248410D01*
Y943610D02*
X347942D01*
X195580Y974090D02*
X347942D01*
X195580Y1004570D02*
X347942D01*
X195580Y1035050D02*
X347942D01*
X195580Y1065530D02*
X347942D01*
X195580Y1096010D02*
X347942D01*
X195580Y1126490D02*
X347942D01*
X195580Y1156970D02*
X347942D01*
X195580Y1187450D02*
X347942D01*
Y943610D02*
Y1248410D01*
Y943610D02*
X513000D01*
X347942Y974090D02*
X513000D01*
X347942Y1004570D02*
X513000D01*
X347942Y1035050D02*
X513000D01*
X347942Y1065530D02*
X513000D01*
X347942Y1096010D02*
X513000D01*
X347942Y1126490D02*
X513000D01*
X347942Y1156970D02*
X513000D01*
X347942Y1187450D02*
X513000D01*
Y943610D02*
Y1248410D01*
Y943610D02*
X657745D01*
X513000Y974090D02*
X657745D01*
X513000Y1004570D02*
X657745D01*
X513000Y1035050D02*
X657745D01*
X513000Y1065530D02*
X657745D01*
X513000Y1096010D02*
X657745D01*
X513000Y1126490D02*
X657745D01*
X513000Y1156970D02*
X657745D01*
X513000Y1187450D02*
X657745D01*
Y943610D02*
Y1248410D01*
Y943610D02*
X942144D01*
X657745Y974090D02*
X942144D01*
X657745Y1004570D02*
X942144D01*
X657745Y1035050D02*
X942144D01*
X657745Y1065530D02*
X942144D01*
X657745Y1096010D02*
X942144D01*
X657745Y1126490D02*
X942144D01*
X657745Y1156970D02*
X942144D01*
X657745Y1187450D02*
X942144D01*
Y943610D02*
Y1248410D01*
M02*
