G04*
G04 #@! TF.GenerationSoftware,Altium Limited,Altium Designer,24.4.1 (13)*
G04*
G04 Layer_Physical_Order=1*
G04 Layer_Color=255*
%FSLAX44Y44*%
%MOMM*%
G71*
G04*
G04 #@! TF.SameCoordinates,F71D25A8-AE48-4460-AF49-DCF2FFE79A6F*
G04*
G04*
G04 #@! TF.FilePolarity,Positive*
G04*
G01*
G75*
%ADD12C,0.5000*%
%ADD17R,0.8500X0.7000*%
%ADD18R,1.1000X1.0000*%
%ADD19R,0.9000X0.9000*%
%ADD20R,1.5000X0.9000*%
%ADD21R,0.9000X1.5000*%
%ADD22R,0.8500X0.8500*%
%ADD23R,0.9000X0.7000*%
%ADD24R,0.7000X0.8500*%
%ADD25R,1.0000X1.1000*%
%ADD26R,1.0065X0.9582*%
G04:AMPARAMS|DCode=27|XSize=2.1741mm|YSize=0.5821mm|CornerRadius=0.2911mm|HoleSize=0mm|Usage=FLASHONLY|Rotation=90.000|XOffset=0mm|YOffset=0mm|HoleType=Round|Shape=RoundedRectangle|*
%AMROUNDEDRECTD27*
21,1,2.1741,0.0000,0,0,90.0*
21,1,1.5919,0.5821,0,0,90.0*
1,1,0.5821,0.0000,0.7960*
1,1,0.5821,0.0000,-0.7960*
1,1,0.5821,0.0000,-0.7960*
1,1,0.5821,0.0000,0.7960*
%
%ADD27ROUNDEDRECTD27*%
%ADD28R,0.5821X2.1741*%
G04:AMPARAMS|DCode=29|XSize=2.4033mm|YSize=0.9461mm|CornerRadius=0.473mm|HoleSize=0mm|Usage=FLASHONLY|Rotation=270.000|XOffset=0mm|YOffset=0mm|HoleType=Round|Shape=RoundedRectangle|*
%AMROUNDEDRECTD29*
21,1,2.4033,0.0000,0,0,270.0*
21,1,1.4572,0.9461,0,0,270.0*
1,1,0.9461,0.0000,-0.7286*
1,1,0.9461,0.0000,0.7286*
1,1,0.9461,0.0000,0.7286*
1,1,0.9461,0.0000,-0.7286*
%
%ADD29ROUNDEDRECTD29*%
%ADD30R,0.9461X2.4033*%
%ADD31C,1.3680*%
%ADD32R,2.5000X1.7000*%
G04:AMPARAMS|DCode=33|XSize=1.1mm|YSize=0.6mm|CornerRadius=0.051mm|HoleSize=0mm|Usage=FLASHONLY|Rotation=270.000|XOffset=0mm|YOffset=0mm|HoleType=Round|Shape=RoundedRectangle|*
%AMROUNDEDRECTD33*
21,1,1.1000,0.4980,0,0,270.0*
21,1,0.9980,0.6000,0,0,270.0*
1,1,0.1020,-0.2490,-0.4990*
1,1,0.1020,-0.2490,0.4990*
1,1,0.1020,0.2490,0.4990*
1,1,0.1020,0.2490,-0.4990*
%
%ADD33ROUNDEDRECTD33*%
%ADD34R,1.2065X1.0582*%
%ADD46C,2.5400*%
%ADD47R,1.4000X1.4000*%
%ADD48C,1.4000*%
%ADD51C,2.3400*%
%ADD52C,1.5000*%
%ADD53C,1.0000*%
%ADD54C,2.0000*%
%ADD55C,1.5240*%
%ADD56C,0.4000*%
%ADD57C,1.0160*%
%ADD58R,1.0160X1.0160*%
%ADD59C,1.2700*%
G36*
X500000Y0D02*
X1270D01*
X-0Y1270D01*
X0Y800000D01*
X500000D01*
Y0D01*
D02*
G37*
%LPC*%
G36*
X437444Y794095D02*
X50856D01*
X48115Y793734D01*
X45561Y792676D01*
X43368Y790993D01*
X28128Y775753D01*
X26445Y773559D01*
X25387Y771005D01*
X25026Y768264D01*
Y718507D01*
X23926Y717872D01*
X23319Y718222D01*
X19669Y719200D01*
X15891D01*
X12241Y718222D01*
X8969Y716333D01*
X6297Y713661D01*
X4408Y710389D01*
X3430Y706739D01*
Y702961D01*
X4408Y699311D01*
X4668Y698861D01*
Y500380D01*
X4668Y500380D01*
X5115Y496986D01*
X6424Y493824D01*
X8508Y491108D01*
X69193Y430423D01*
X68707Y429250D01*
X34430D01*
Y396250D01*
X44094D01*
Y358231D01*
X43592Y358078D01*
X42824Y357986D01*
X40188Y360622D01*
X36962Y362778D01*
X33377Y364263D01*
X29571Y365020D01*
X25690D01*
X21884Y364263D01*
X18299Y362778D01*
X15072Y360622D01*
X12328Y357878D01*
X10172Y354652D01*
X8687Y351067D01*
X7930Y347260D01*
Y343380D01*
X8687Y339574D01*
X10172Y335989D01*
X12328Y332762D01*
X15072Y330018D01*
X18299Y327862D01*
X21884Y326377D01*
X25690Y325620D01*
X29571D01*
X33377Y326377D01*
X36962Y327862D01*
X40188Y330018D01*
X42932Y332762D01*
X45049Y335930D01*
X45107Y335992D01*
X46557Y336217D01*
X48395Y334379D01*
X51668Y332490D01*
X55317Y331512D01*
X59096D01*
X61521Y332162D01*
X62178Y331023D01*
X18359Y287204D01*
X16275Y284488D01*
X14965Y281326D01*
X14518Y277932D01*
X14518Y277932D01*
Y238068D01*
X12328Y235878D01*
X10172Y232651D01*
X8687Y229066D01*
X7930Y225260D01*
Y221380D01*
X8687Y217574D01*
X10172Y213988D01*
X12328Y210762D01*
X15072Y208018D01*
X18299Y205862D01*
X21884Y204377D01*
X25690Y203620D01*
X29571D01*
X33377Y204377D01*
X36962Y205862D01*
X40188Y208018D01*
X42932Y210762D01*
X45088Y213988D01*
X46573Y217574D01*
X47330Y221380D01*
Y225260D01*
X46573Y229066D01*
X45088Y232651D01*
X42932Y235878D01*
X40742Y238068D01*
Y272501D01*
X104324Y336082D01*
X104324Y336082D01*
X106408Y338798D01*
X107718Y341960D01*
X108165Y345354D01*
X108165Y345354D01*
Y396250D01*
X115430D01*
Y402159D01*
X138926D01*
X145984Y395101D01*
X148177Y393418D01*
X150731Y392360D01*
X153472Y391999D01*
X180320D01*
Y389590D01*
X192613D01*
X193099Y388417D01*
X187097Y382414D01*
X183863D01*
X181122Y382053D01*
X178568Y380995D01*
X176375Y379312D01*
X175391Y378329D01*
X173708Y376135D01*
X172650Y373581D01*
X172289Y370840D01*
X172650Y368099D01*
X173708Y365545D01*
X175391Y363351D01*
X177585Y361668D01*
X180139Y360610D01*
X182880Y360249D01*
X184883Y360513D01*
X185870Y359399D01*
Y344727D01*
X185205Y344452D01*
X183011Y342769D01*
X179201Y338959D01*
X177518Y336765D01*
X176460Y334211D01*
X176099Y331470D01*
Y271780D01*
X176460Y269039D01*
X177518Y266485D01*
X179201Y264291D01*
X196420Y247073D01*
Y240254D01*
X196106Y240124D01*
X195648Y239860D01*
X195159Y239657D01*
X194740Y239335D01*
X194282Y239071D01*
X193908Y238697D01*
X193488Y238375D01*
X192785Y237672D01*
X192463Y237252D01*
X192089Y236878D01*
X191825Y236420D01*
X191503Y236001D01*
X191300Y235512D01*
X191036Y235054D01*
X190655Y234135D01*
X190518Y233624D01*
X190316Y233136D01*
X190247Y232611D01*
X190110Y232100D01*
Y231572D01*
X190041Y231047D01*
Y217850D01*
X190316Y215762D01*
X191122Y213815D01*
X192404Y212144D01*
X194076Y210862D01*
X196022Y210056D01*
X198110Y209781D01*
X215910D01*
X217998Y210056D01*
X219710Y210765D01*
X221422Y210056D01*
X223510Y209781D01*
X241310D01*
X243398Y210056D01*
X245110Y210765D01*
X246822Y210056D01*
X248910Y209781D01*
X266710D01*
X268798Y210056D01*
X270744Y210862D01*
X272416Y212144D01*
X273698Y213815D01*
X274504Y215762D01*
X274779Y217850D01*
Y231047D01*
X274710Y231572D01*
X274710Y232101D01*
X274573Y232611D01*
X274504Y233136D01*
X274302Y233624D01*
X274165Y234135D01*
X273784Y235054D01*
X273520Y235512D01*
X273317Y236001D01*
X272995Y236420D01*
X272731Y236878D01*
X272357Y237252D01*
X272035Y237672D01*
X271332Y238375D01*
X270912Y238697D01*
X270538Y239071D01*
X270080Y239335D01*
X269661Y239657D01*
X269172Y239860D01*
X268714Y240124D01*
X267795Y240505D01*
X267284Y240642D01*
X266796Y240844D01*
X266271Y240913D01*
X265761Y241050D01*
X265232Y241050D01*
X264707Y241119D01*
X250913D01*
X250388Y241050D01*
X249859Y241050D01*
X249349Y240913D01*
X248824Y240844D01*
X248336Y240642D01*
X247825Y240505D01*
X246906Y240124D01*
X246792Y240059D01*
X245932Y240413D01*
X245522Y240851D01*
Y241526D01*
X273778Y269781D01*
X286608D01*
Y224084D01*
X287055Y220691D01*
X288365Y217528D01*
X290448Y214813D01*
X293164Y212729D01*
X293919Y212416D01*
X294535Y211613D01*
X296054Y210448D01*
X297822Y209715D01*
X298450Y209633D01*
Y224084D01*
X300990D01*
Y209633D01*
X301618Y209715D01*
X301879Y209565D01*
X302171Y207345D01*
X302054Y206885D01*
X301512Y206075D01*
X284377D01*
X281338Y205776D01*
X278417Y204889D01*
X275724Y203450D01*
X273364Y201513D01*
X264577Y192726D01*
X262640Y190366D01*
X261201Y187673D01*
X260314Y184752D01*
X260015Y181713D01*
Y75929D01*
X259511Y75426D01*
X257246Y72035D01*
X255686Y68268D01*
X254890Y64269D01*
Y60191D01*
X255686Y56192D01*
X257246Y52425D01*
X259511Y49035D01*
X260048Y48498D01*
X259562Y47325D01*
X207378D01*
X206852Y48595D01*
X209635Y51378D01*
X212152Y55145D01*
X213886Y59331D01*
X214770Y63775D01*
Y68305D01*
X213886Y72749D01*
X212152Y76935D01*
X209635Y80702D01*
X206432Y83905D01*
X202665Y86422D01*
X198479Y88156D01*
X194035Y89040D01*
X189505D01*
X185061Y88156D01*
X180875Y86422D01*
X177108Y83905D01*
X173905Y80702D01*
X171388Y76935D01*
X169654Y72749D01*
X168770Y68305D01*
Y63775D01*
X169654Y59331D01*
X171388Y55145D01*
X173905Y51378D01*
X176688Y48595D01*
X176162Y47325D01*
X130502D01*
Y49219D01*
X132644Y52425D01*
X134205Y56192D01*
X135000Y60191D01*
Y64269D01*
X134205Y68268D01*
X132644Y72035D01*
X132387Y72420D01*
Y209043D01*
X133560Y209529D01*
X135072Y208018D01*
X138299Y205862D01*
X141884Y204377D01*
X145690Y203620D01*
X149570D01*
X153376Y204377D01*
X156961Y205862D01*
X160188Y208018D01*
X162932Y210762D01*
X165088Y213988D01*
X166573Y217574D01*
X167330Y221380D01*
Y225260D01*
X166573Y229066D01*
X165088Y232651D01*
X162932Y235878D01*
X160188Y238622D01*
X156961Y240778D01*
X153376Y242263D01*
X149570Y243020D01*
X145690D01*
X141884Y242263D01*
X138299Y240778D01*
X135072Y238622D01*
X133560Y237110D01*
X132387Y237596D01*
Y304498D01*
X154895Y327006D01*
X156961Y327862D01*
X160188Y330018D01*
X162932Y332762D01*
X165088Y335989D01*
X166573Y339574D01*
X167330Y343380D01*
Y347260D01*
X166573Y351067D01*
X165088Y354652D01*
X162932Y357878D01*
X160188Y360622D01*
X156961Y362778D01*
X153376Y364263D01*
X149570Y365020D01*
X145690D01*
X141884Y364263D01*
X138299Y362778D01*
X135072Y360622D01*
X132328Y357878D01*
X130172Y354652D01*
X129316Y352585D01*
X101510Y324780D01*
X99261Y322039D01*
X97590Y318912D01*
X96560Y315519D01*
X96387Y313755D01*
X96213Y311990D01*
Y222231D01*
X95157Y221525D01*
X93376Y222263D01*
X89570Y223020D01*
X85690D01*
X81884Y222263D01*
X78299Y220778D01*
X75072Y218622D01*
X72328Y215878D01*
X70172Y212651D01*
X68687Y209066D01*
X67930Y205260D01*
Y201380D01*
X68687Y197574D01*
X69543Y195508D01*
Y96392D01*
X53747Y80596D01*
X53695Y80574D01*
X50304Y78309D01*
X47421Y75426D01*
X45156Y72035D01*
X43595Y68268D01*
X42800Y64269D01*
Y60191D01*
X43595Y56192D01*
X45156Y52425D01*
X47421Y49035D01*
X50304Y46151D01*
X53695Y43886D01*
X57462Y42326D01*
X61461Y41530D01*
X65539D01*
X69538Y42326D01*
X73305Y43886D01*
X76695Y46151D01*
X79579Y49035D01*
X81844Y52425D01*
X83405Y56192D01*
X84125Y59816D01*
X93380Y69071D01*
X94436Y68365D01*
X94396Y68268D01*
X93600Y64269D01*
Y60191D01*
X94396Y56192D01*
X95956Y52425D01*
X98221Y49035D01*
X99352Y47904D01*
Y40537D01*
X99651Y37498D01*
X100538Y34576D01*
X101977Y31884D01*
X103914Y29524D01*
X112701Y20737D01*
X115061Y18800D01*
X117754Y17361D01*
X120675Y16474D01*
X123714Y16175D01*
X290933D01*
X293972Y16474D01*
X296894Y17361D01*
X299586Y18800D01*
X301947Y20737D01*
X310733Y29524D01*
X312670Y31884D01*
X314109Y34576D01*
X314996Y37498D01*
X315295Y40537D01*
Y43401D01*
X316415Y43999D01*
X316585Y43886D01*
X320352Y42326D01*
X324351Y41530D01*
X328429D01*
X332428Y42326D01*
X336195Y43886D01*
X339586Y46151D01*
X342469Y49035D01*
X344734Y52425D01*
X346295Y56192D01*
X347090Y60191D01*
Y64269D01*
X346295Y68268D01*
X344734Y72035D01*
X342469Y75426D01*
X339586Y78309D01*
X336195Y80574D01*
X332428Y82135D01*
X328429Y82930D01*
X324351D01*
X320352Y82135D01*
X316585Y80574D01*
X316415Y80461D01*
X315295Y81059D01*
Y128499D01*
X403974D01*
X407012Y128799D01*
X409934Y129685D01*
X412627Y131124D01*
X414987Y133061D01*
X431606Y149680D01*
X433543Y152040D01*
X434982Y154733D01*
X435868Y157655D01*
X436168Y160693D01*
Y160889D01*
X436251Y160997D01*
X437350Y163652D01*
X437725Y166500D01*
Y167446D01*
X438076Y167903D01*
X439226Y170681D01*
X440559Y171145D01*
X450515Y161189D01*
Y77199D01*
X450011Y76695D01*
X447746Y73305D01*
X446186Y69538D01*
X445390Y65539D01*
Y61461D01*
X446186Y57462D01*
X447746Y53695D01*
X450011Y50305D01*
X452895Y47421D01*
X456285Y45156D01*
X460052Y43595D01*
X464051Y42800D01*
X468129D01*
X472128Y43595D01*
X475895Y45156D01*
X479286Y47421D01*
X482169Y50305D01*
X484434Y53695D01*
X485995Y57462D01*
X486790Y61461D01*
Y65539D01*
X485995Y69538D01*
X484434Y73305D01*
X482169Y76695D01*
X481665Y77199D01*
Y167640D01*
X481366Y170678D01*
X480480Y173600D01*
X479040Y176293D01*
X477103Y178653D01*
X445353Y210403D01*
X442993Y212340D01*
X440300Y213779D01*
X437379Y214666D01*
X435999Y214802D01*
X435494Y215967D01*
X435892Y216485D01*
X436950Y219040D01*
X437311Y221781D01*
Y282401D01*
X471947Y317038D01*
X473630Y319231D01*
X474688Y321785D01*
X475049Y324526D01*
Y341630D01*
Y361610D01*
X474688Y364351D01*
X473630Y366906D01*
X471947Y369099D01*
X465251Y375795D01*
Y382194D01*
X465600Y382338D01*
X467793Y384021D01*
X470333Y386561D01*
X472016Y388755D01*
X473074Y391309D01*
X473435Y394050D01*
Y416260D01*
X473074Y419001D01*
X472016Y421555D01*
X470333Y423749D01*
X410298Y483784D01*
X410464Y485043D01*
X411712Y485763D01*
X414383Y488435D01*
X416273Y491707D01*
X417251Y495357D01*
Y499135D01*
X416273Y502785D01*
X415371Y504347D01*
Y517340D01*
X416280D01*
Y532580D01*
Y552882D01*
X417232Y554531D01*
X418210Y558181D01*
Y561959D01*
X417232Y565609D01*
X415343Y568881D01*
X412671Y571553D01*
X409399Y573442D01*
X405749Y574420D01*
X403371D01*
Y580529D01*
X413127Y590286D01*
X414301Y589800D01*
Y587800D01*
X440301D01*
Y590929D01*
X441369Y591070D01*
X443923Y592128D01*
X446117Y593811D01*
X459411Y607105D01*
X461094Y609299D01*
X462152Y611853D01*
X462513Y614594D01*
Y769026D01*
X462152Y771767D01*
X461094Y774322D01*
X459411Y776515D01*
X444933Y790993D01*
X442740Y792676D01*
X440186Y793734D01*
X437444Y794095D01*
D02*
G37*
G36*
X460735Y528460D02*
X456205D01*
X451761Y527576D01*
X447575Y525842D01*
X443808Y523325D01*
X440605Y520122D01*
X438088Y516355D01*
X436354Y512169D01*
X435470Y507725D01*
Y503195D01*
X436354Y498751D01*
X438088Y494565D01*
X440605Y490798D01*
X443808Y487595D01*
X447575Y485078D01*
X451761Y483344D01*
X456205Y482460D01*
X460735D01*
X465179Y483344D01*
X469365Y485078D01*
X473132Y487595D01*
X476335Y490798D01*
X478852Y494565D01*
X480586Y498751D01*
X481470Y503195D01*
Y507725D01*
X480586Y512169D01*
X478852Y516355D01*
X476335Y520122D01*
X473132Y523325D01*
X472820Y523533D01*
Y526160D01*
X468598D01*
X465179Y527576D01*
X460735Y528460D01*
D02*
G37*
G36*
X417329Y84200D02*
X413251D01*
X409252Y83405D01*
X405485Y81844D01*
X402095Y79579D01*
X399211Y76695D01*
X396946Y73305D01*
X395386Y69538D01*
X394590Y65539D01*
Y61461D01*
X395386Y57462D01*
X396946Y53695D01*
X399211Y50305D01*
X402095Y47421D01*
X405485Y45156D01*
X409252Y43595D01*
X413251Y42800D01*
X417329D01*
X421328Y43595D01*
X425095Y45156D01*
X428486Y47421D01*
X431369Y50305D01*
X433634Y53695D01*
X435195Y57462D01*
X435990Y61461D01*
Y65539D01*
X435195Y69538D01*
X433634Y73305D01*
X431369Y76695D01*
X428486Y79579D01*
X425095Y81844D01*
X421328Y83405D01*
X417329Y84200D01*
D02*
G37*
%LPD*%
G36*
X321383Y772800D02*
X321647Y771644D01*
X319720Y770165D01*
X309814Y760259D01*
X308384Y758396D01*
X306917Y758067D01*
X293244Y771740D01*
X293730Y772914D01*
X321320D01*
X321383Y772800D01*
D02*
G37*
G36*
X294928Y740102D02*
X294599Y738875D01*
X293984Y738710D01*
X290711Y736821D01*
X288040Y734149D01*
X286150Y730877D01*
X285173Y727227D01*
Y727115D01*
X283999Y726629D01*
X276021Y734607D01*
Y757349D01*
X277194Y757835D01*
X294928Y740102D01*
D02*
G37*
G36*
X200591Y764777D02*
X201125Y764345D01*
X200794Y761832D01*
Y704612D01*
X199621Y704126D01*
X198812Y704935D01*
X195045Y707452D01*
X190859Y709186D01*
X186415Y710070D01*
X181885D01*
X177441Y709186D01*
X173255Y707452D01*
X169488Y704935D01*
X166285Y701732D01*
X163768Y697965D01*
X162034Y693779D01*
X161150Y689335D01*
Y684805D01*
X162034Y680361D01*
X163768Y676175D01*
X166285Y672408D01*
X169488Y669205D01*
X173255Y666688D01*
X177441Y664954D01*
X181885Y664070D01*
X186415D01*
X190859Y664954D01*
X195045Y666688D01*
X198812Y669205D01*
X199621Y670014D01*
X200794Y669528D01*
Y633601D01*
X190993Y623801D01*
X157870D01*
Y625710D01*
X153136D01*
X152961Y625910D01*
X152887Y626469D01*
Y717903D01*
X199981Y764998D01*
X200591Y764777D01*
D02*
G37*
G36*
X265056Y699137D02*
Y690590D01*
X263883Y690104D01*
X247985Y706001D01*
Y714548D01*
X249159Y715034D01*
X265056Y699137D01*
D02*
G37*
G36*
X351225Y751104D02*
X351160Y750777D01*
Y747823D01*
X351736Y744925D01*
X352867Y742195D01*
X354509Y739738D01*
X356598Y737649D01*
X359055Y736007D01*
X361785Y734876D01*
X361870Y734860D01*
Y643440D01*
X360960D01*
Y641781D01*
X354079D01*
X351338Y641420D01*
X348783Y640362D01*
X346590Y638679D01*
X334019Y626108D01*
X332870Y625710D01*
Y625710D01*
X332870Y625710D01*
X328136D01*
X327961Y625910D01*
X327893Y626423D01*
Y748383D01*
X331595Y752086D01*
X350419D01*
X351225Y751104D01*
D02*
G37*
G36*
X176769Y771740D02*
X134808Y729779D01*
X133125Y727586D01*
X132067Y725031D01*
X131706Y722290D01*
Y625910D01*
X131531Y625710D01*
X126870D01*
Y623801D01*
X87153D01*
X80264Y630690D01*
Y633340D01*
X79971Y635561D01*
X79114Y637631D01*
X77750Y639409D01*
X76335Y640494D01*
X77862Y642484D01*
X78720Y644555D01*
X79114Y645068D01*
X79971Y647138D01*
X80264Y649360D01*
Y659340D01*
X79971Y661561D01*
X79114Y663632D01*
X77750Y665409D01*
X75972Y666773D01*
X73902Y667631D01*
X71680Y667923D01*
X70281D01*
Y694113D01*
X101600Y725433D01*
Y740410D01*
X86623D01*
X61954Y715741D01*
X60781Y716227D01*
Y722883D01*
X61875Y723336D01*
X65266Y725601D01*
X68149Y728485D01*
X70414Y731875D01*
X71975Y735642D01*
X72770Y739641D01*
Y743719D01*
X71975Y747718D01*
X70414Y751485D01*
X68149Y754875D01*
X65266Y757759D01*
X61875Y760024D01*
X58108Y761585D01*
X54109Y762380D01*
X50031D01*
X47189Y761815D01*
X46207Y762620D01*
Y763877D01*
X55243Y772914D01*
X176283D01*
X176769Y771740D01*
D02*
G37*
G36*
X441332Y732835D02*
Y618981D01*
X439065Y616714D01*
X437891Y617200D01*
Y618300D01*
Y731054D01*
X440159Y733321D01*
X441332Y732835D01*
D02*
G37*
G36*
X58600Y615740D02*
Y611829D01*
X58601Y611822D01*
X58600Y611814D01*
X58609Y604740D01*
X57712Y603841D01*
X55186D01*
Y601777D01*
X54231Y600939D01*
X52702Y601141D01*
X46151D01*
Y614017D01*
X47105Y614855D01*
X47700Y614776D01*
X52680D01*
X54901Y615069D01*
X56972Y615926D01*
X57461Y616301D01*
X58600Y615740D01*
D02*
G37*
G36*
X416710Y733077D02*
Y622388D01*
X415131Y621734D01*
X412938Y620051D01*
X396224Y603337D01*
X395051Y603823D01*
Y618940D01*
X395960D01*
Y643440D01*
X395051D01*
Y713214D01*
X415440Y733603D01*
X416710Y733077D01*
D02*
G37*
G36*
X253423Y670609D02*
Y669347D01*
X254400Y665697D01*
X256290Y662425D01*
X258961Y659753D01*
X262234Y657864D01*
X265883Y656886D01*
X269662D01*
X272676Y657694D01*
X273946Y656872D01*
Y588178D01*
X274307Y585437D01*
X275365Y582883D01*
X277048Y580690D01*
X287912Y569826D01*
X286967Y568881D01*
X285078Y565609D01*
X284100Y561959D01*
Y558181D01*
X285078Y554531D01*
X286967Y551259D01*
X288494Y549732D01*
Y463810D01*
X183311D01*
Y480431D01*
X184203Y481323D01*
X186092Y484595D01*
X187070Y488245D01*
Y492023D01*
X186092Y495673D01*
X184203Y498945D01*
X181531Y501617D01*
X178259Y503506D01*
X174609Y504484D01*
X170831D01*
X167181Y503506D01*
X163909Y501617D01*
X161237Y498945D01*
X159348Y495673D01*
X159140Y494897D01*
X157870Y495065D01*
Y499110D01*
Y511810D01*
Y524510D01*
Y537210D01*
Y549910D01*
Y562610D01*
Y575310D01*
Y589919D01*
X210368D01*
X213109Y590280D01*
X215664Y591338D01*
X217857Y593021D01*
X227053Y602217D01*
X228226Y601731D01*
Y581420D01*
X227271Y580583D01*
X226654Y580664D01*
X217085D01*
X214344Y580303D01*
X211790Y579245D01*
X211745Y579211D01*
X201987D01*
X199245Y578850D01*
X196691Y577792D01*
X194498Y576109D01*
X192815Y573915D01*
X191814Y571501D01*
X189833Y570680D01*
X187640Y568997D01*
X185957Y566804D01*
X184899Y564249D01*
X184538Y561508D01*
Y548710D01*
X184615Y548124D01*
X184538Y547538D01*
Y534710D01*
X184899Y531969D01*
X185957Y529415D01*
X187640Y527221D01*
X189833Y525538D01*
X192387Y524480D01*
X195128Y524120D01*
X200870D01*
X203611Y524480D01*
X205104Y525099D01*
X205121Y525094D01*
X205698Y523701D01*
X207381Y521507D01*
X209575Y519824D01*
X212129Y518767D01*
X214870Y518406D01*
X228870D01*
X231611Y518767D01*
X234165Y519824D01*
X236359Y521507D01*
X238042Y523701D01*
X239100Y526255D01*
X239104Y526292D01*
X240048Y526683D01*
X242241Y528366D01*
X243924Y530559D01*
X244982Y533113D01*
X245343Y535854D01*
Y547538D01*
X245266Y548124D01*
X245343Y548710D01*
Y562710D01*
X245169Y564032D01*
X246305Y565168D01*
X247988Y567361D01*
X249046Y569916D01*
X249407Y572657D01*
Y605734D01*
X249046Y608475D01*
X247988Y611029D01*
X246305Y613222D01*
X244112Y614905D01*
X241558Y615963D01*
X238817Y616324D01*
X236075Y615963D01*
X235167Y615587D01*
X234111Y616293D01*
Y688261D01*
X235284Y688747D01*
X253423Y670609D01*
D02*
G37*
G36*
X117219Y601446D02*
X84424Y568652D01*
X83251Y569138D01*
Y577259D01*
Y602619D01*
X116733D01*
X117219Y601446D01*
D02*
G37*
G36*
X32192Y583061D02*
X34385Y581378D01*
X36939Y580320D01*
X39681Y579959D01*
X42111D01*
Y565150D01*
Y555213D01*
X41870Y553380D01*
Y519430D01*
X42231Y516689D01*
X43140Y514494D01*
Y495360D01*
X41870Y494834D01*
X30892Y505811D01*
Y582702D01*
X32065Y583188D01*
X32192Y583061D01*
D02*
G37*
G36*
X337389Y576368D02*
Y476799D01*
X337169Y476630D01*
X333391D01*
X332870Y477030D01*
Y486010D01*
Y499110D01*
Y511810D01*
Y524510D01*
Y537210D01*
Y549910D01*
Y562610D01*
Y575310D01*
Y579228D01*
X334043Y579714D01*
X337389Y576368D01*
D02*
G37*
G36*
X126870Y579483D02*
Y575310D01*
Y562610D01*
Y549910D01*
Y537210D01*
Y524510D01*
Y511810D01*
Y499110D01*
Y486410D01*
Y473710D01*
Y461010D01*
Y448310D01*
X147520D01*
Y432810D01*
X149594D01*
X149790Y431315D01*
X150848Y428761D01*
X152531Y426568D01*
X162240Y416860D01*
X164433Y415177D01*
X166185Y414451D01*
X165933Y413181D01*
X157859D01*
X150801Y420239D01*
X148608Y421922D01*
X146053Y422980D01*
X143313Y423341D01*
X115430D01*
Y429250D01*
X104990D01*
X103694Y432377D01*
X101611Y435093D01*
X101610Y435093D01*
X56741Y479963D01*
X57469Y481030D01*
X65327D01*
X66241Y479838D01*
X86545Y459535D01*
Y458273D01*
X87522Y454623D01*
X89412Y451351D01*
X92083Y448679D01*
X95356Y446790D01*
X99005Y445812D01*
X102784D01*
X106433Y446790D01*
X109706Y448679D01*
X112377Y451351D01*
X114267Y454623D01*
X115245Y458273D01*
Y462051D01*
X114267Y465701D01*
X112377Y468973D01*
X109706Y471645D01*
X106433Y473534D01*
X102784Y474512D01*
X101522D01*
X84293Y491741D01*
X84230Y492218D01*
Y494753D01*
X95429Y505952D01*
X97112Y508145D01*
X98170Y510700D01*
X98531Y513441D01*
Y552803D01*
X125697Y579969D01*
X126870Y579483D01*
D02*
G37*
G36*
X360960Y618940D02*
X361870D01*
Y389695D01*
X360748Y388234D01*
X360549Y388166D01*
X358599Y389292D01*
X354949Y390270D01*
X351171D01*
X347521Y389292D01*
X344249Y387403D01*
X343746Y386900D01*
X333521D01*
Y426493D01*
X355469Y448441D01*
X357152Y450635D01*
X358210Y453189D01*
X358571Y455930D01*
Y580754D01*
X358210Y583495D01*
X357152Y586050D01*
X355469Y588243D01*
X341149Y602562D01*
X341392Y604027D01*
X341437Y604071D01*
X343587Y605721D01*
X358465Y620599D01*
X360960D01*
Y618940D01*
D02*
G37*
G36*
X81940Y350785D02*
X72045Y340891D01*
X70907Y341548D01*
X71557Y343973D01*
Y347751D01*
X70579Y351401D01*
X70319Y351851D01*
Y396250D01*
X81940D01*
Y350785D01*
D02*
G37*
G36*
X446227Y417900D02*
X445701Y416630D01*
X421840D01*
Y393630D01*
Y379630D01*
X423806D01*
Y355131D01*
X403540Y334866D01*
X402270Y335392D01*
Y343983D01*
X402388Y344101D01*
X404071Y346294D01*
X405129Y348848D01*
X405490Y351589D01*
Y361414D01*
X405561Y361950D01*
Y384810D01*
X405200Y387551D01*
X404142Y390105D01*
X402459Y392299D01*
X395051Y399707D01*
Y467417D01*
X396224Y467903D01*
X446227Y417900D01*
D02*
G37*
G36*
X351171Y361570D02*
X352359D01*
X353197Y360615D01*
X353194Y360594D01*
Y334501D01*
X350593Y331901D01*
X344715D01*
X344194Y333171D01*
X345160Y335501D01*
X345521Y338242D01*
Y348430D01*
X346430D01*
Y361711D01*
X347148Y362262D01*
X347615Y362493D01*
X347700Y362500D01*
X351171Y361570D01*
D02*
G37*
G36*
X266710Y315550D02*
Y315053D01*
X266329Y314134D01*
X265626Y313431D01*
X264707Y313050D01*
X250913D01*
X249994Y313431D01*
X249291Y314134D01*
X248910Y315053D01*
Y315550D01*
Y328250D01*
X266710D01*
Y315550D01*
D02*
G37*
G36*
X241310D02*
Y315053D01*
X240929Y314134D01*
X240226Y313431D01*
X239307Y313050D01*
X225513D01*
X224594Y313431D01*
X223891Y314134D01*
X223510Y315053D01*
Y315550D01*
Y328250D01*
X241310D01*
Y315550D01*
D02*
G37*
G36*
X215910D02*
Y315053D01*
X215529Y314134D01*
X214826Y313431D01*
X213907Y313050D01*
X200113D01*
X199194Y313431D01*
X198491Y314134D01*
X198110Y315053D01*
Y315550D01*
Y328250D01*
X215910D01*
Y315550D01*
D02*
G37*
G36*
X217417Y305208D02*
X218028Y304648D01*
Y291399D01*
X216498Y288749D01*
X215520Y285099D01*
Y281321D01*
X216498Y277671D01*
X218387Y274399D01*
X221059Y271727D01*
X224331Y269838D01*
X227981Y268860D01*
X231759D01*
X234784Y269671D01*
X235442Y268532D01*
X223138Y256229D01*
X221055Y253513D01*
X219745Y250351D01*
X219298Y246957D01*
X219298Y246957D01*
Y241647D01*
X218028Y240970D01*
X217601Y241256D01*
Y251460D01*
X217240Y254201D01*
X216182Y256755D01*
X214499Y258949D01*
X197281Y276167D01*
Y304189D01*
X197467Y304456D01*
X198549Y305187D01*
X199060Y305050D01*
X199588D01*
X200113Y304981D01*
X213907D01*
X214432Y305050D01*
X214960D01*
X215471Y305187D01*
X215996Y305256D01*
X216484Y305458D01*
X216758Y305532D01*
X217417Y305208D01*
D02*
G37*
G36*
X452621Y327666D02*
X425784Y300829D01*
X424611Y301315D01*
Y309247D01*
X444203Y328839D01*
X452134D01*
X452621Y327666D01*
D02*
G37*
G36*
X245540Y306765D02*
X245959Y306443D01*
X246448Y306240D01*
X246906Y305976D01*
X247825Y305595D01*
X248336Y305458D01*
X248824Y305256D01*
X249349Y305187D01*
X249860Y305050D01*
X250388D01*
X250913Y304981D01*
X254936D01*
X255234Y304683D01*
Y288325D01*
X244548Y277638D01*
X243410Y278296D01*
X244220Y281321D01*
Y284235D01*
X244252Y284480D01*
Y306203D01*
X245340Y306880D01*
X245540Y306765D01*
D02*
G37*
G36*
X312438Y431630D02*
X312339Y430880D01*
Y386900D01*
X311430D01*
Y362224D01*
X309227Y361934D01*
X306673Y360876D01*
X304480Y359193D01*
X296041Y350754D01*
X294358Y348561D01*
X293300Y346007D01*
X292939Y343266D01*
Y318770D01*
X293300Y316029D01*
X294358Y313475D01*
X296041Y311281D01*
X302985Y304338D01*
X305179Y302654D01*
X307733Y301597D01*
X310474Y301236D01*
X350769D01*
X351255Y300062D01*
X314006Y262813D01*
X312832Y263299D01*
Y276168D01*
X312902Y276337D01*
X312902Y276337D01*
X314212Y279500D01*
X314659Y282893D01*
X314212Y286287D01*
X312902Y289450D01*
X310819Y292165D01*
X308103Y294249D01*
X304941Y295559D01*
X301547Y296006D01*
X281459D01*
Y310114D01*
X281012Y313507D01*
X279702Y316670D01*
X277618Y319385D01*
X274779Y322225D01*
Y328250D01*
X274504Y330338D01*
X273698Y332285D01*
X272416Y333956D01*
X271317Y334799D01*
X270944Y336399D01*
X271234Y336777D01*
X271782Y338100D01*
X275140D01*
Y350100D01*
Y373100D01*
X273481D01*
Y422881D01*
X273120Y425622D01*
X272062Y428176D01*
X270379Y430369D01*
X269111Y431637D01*
X269597Y432810D01*
X311313D01*
X312438Y431630D01*
D02*
G37*
G36*
X403429Y303141D02*
Y241430D01*
X402475Y240593D01*
X401320Y240745D01*
X398472Y240370D01*
X395818Y239271D01*
X394970Y238620D01*
X394123Y239271D01*
X391468Y240370D01*
X388620Y240745D01*
X385772Y240370D01*
X383118Y239271D01*
X380839Y237522D01*
X379090Y235243D01*
X377990Y232589D01*
X377979Y232501D01*
X355910D01*
X353169Y232140D01*
X350615Y231082D01*
X348422Y229399D01*
X339024Y220001D01*
X337850Y220487D01*
Y239221D01*
X402256Y303627D01*
X403429Y303141D01*
D02*
G37*
G36*
X265626Y232669D02*
X266329Y231966D01*
X266710Y231047D01*
Y230550D01*
Y217850D01*
X248910D01*
Y230550D01*
Y231047D01*
X249291Y231966D01*
X249994Y232669D01*
X250913Y233050D01*
X264707D01*
X265626Y232669D01*
D02*
G37*
G36*
X240226D02*
X240929Y231966D01*
X241310Y231047D01*
Y230550D01*
Y217850D01*
X223510D01*
Y230550D01*
Y231047D01*
X223891Y231966D01*
X224594Y232669D01*
X225513Y233050D01*
X239307D01*
X240226Y232669D01*
D02*
G37*
G36*
X214826D02*
X215529Y231966D01*
X215910Y231047D01*
Y230550D01*
Y217850D01*
X198110D01*
Y230550D01*
Y231047D01*
X198491Y231966D01*
X199194Y232669D01*
X200113Y233050D01*
X213907D01*
X214826Y232669D01*
D02*
G37*
G36*
X377990Y210973D02*
X379090Y208319D01*
X380839Y206039D01*
X383118Y204291D01*
X385303Y203385D01*
X385732Y202018D01*
X383993Y200280D01*
X382056Y197919D01*
X380617Y195227D01*
X380042Y193330D01*
X377709D01*
Y181595D01*
X377265Y181015D01*
X375955Y177853D01*
X375508Y174459D01*
X375955Y171066D01*
X377265Y167903D01*
X377709Y167324D01*
Y159649D01*
X338083D01*
X337960Y159790D01*
Y173394D01*
X338656Y174696D01*
X339542Y177618D01*
X339842Y180656D01*
X339542Y183695D01*
X338656Y186616D01*
X337217Y189309D01*
X335280Y191669D01*
X331800Y195149D01*
X332326Y196419D01*
X341010D01*
X343751Y196780D01*
X346306Y197838D01*
X348499Y199521D01*
X360297Y211320D01*
X377945D01*
X377990Y210973D01*
D02*
G37*
%LPC*%
G36*
X104371Y756920D02*
X104140D01*
Y742950D01*
X118110D01*
Y743181D01*
X117524Y746125D01*
X116376Y748899D01*
X114708Y751395D01*
X112585Y753518D01*
X110089Y755186D01*
X107316Y756334D01*
X104371Y756920D01*
D02*
G37*
G36*
X101600D02*
X101369D01*
X98425Y756334D01*
X95651Y755186D01*
X93155Y753518D01*
X91032Y751395D01*
X89365Y748899D01*
X88216Y746125D01*
X87630Y743181D01*
Y742950D01*
X101600D01*
Y756920D01*
D02*
G37*
G36*
X118110Y740410D02*
X104140D01*
Y726440D01*
X104371D01*
X107316Y727026D01*
X110089Y728175D01*
X112585Y729842D01*
X114708Y731965D01*
X116376Y734461D01*
X117524Y737235D01*
X118110Y740179D01*
Y740410D01*
D02*
G37*
%LPD*%
D12*
X142370Y613210D02*
X195380D01*
X211385Y629215D02*
Y761832D01*
X195380Y613210D02*
X211385Y629215D01*
X414020Y221781D02*
Y313634D01*
X442016Y341630D01*
X71230Y494030D02*
X73730Y491530D01*
Y487327D02*
Y491530D01*
X70730Y494030D02*
X71230D01*
X73730Y487327D02*
X100894Y460162D01*
X70730Y494030D02*
Y496230D01*
X92339Y415341D02*
X94930Y412750D01*
X35560Y594670D02*
X39681Y590550D01*
X35560Y594670D02*
Y626110D01*
X35617Y650504D02*
X49530Y636590D01*
X35617Y650504D02*
Y768264D01*
X50856Y783504D01*
X94930Y412750D02*
X95052D01*
X347980Y455930D02*
Y580754D01*
X328224Y600510D02*
X347980Y580754D01*
X322930Y430880D02*
X347980Y455930D01*
X317370Y460810D02*
X318105Y461545D01*
X334545D02*
X335280Y462280D01*
X318105Y461545D02*
X334545D01*
X322930Y374650D02*
Y430880D01*
X39681Y590550D02*
X52702D01*
X262062Y342072D02*
Y348600D01*
X262890D01*
X255270Y335280D02*
X262062Y342072D01*
X190500Y335280D02*
X255270D01*
X262890Y361600D02*
Y422881D01*
X240053Y349600D02*
X242982Y352529D01*
X240849Y416423D02*
X242982Y414289D01*
X240849Y416423D02*
Y418506D01*
X242982Y352529D02*
Y414289D01*
X231140Y349600D02*
X240053D01*
X231140Y362870D02*
Y376399D01*
X230180Y377358D02*
X231140Y376399D01*
X299085Y448945D02*
Y559435D01*
Y448945D02*
X299720Y448310D01*
X298450Y560070D02*
X299085Y559435D01*
X404320Y545290D02*
Y559610D01*
Y545290D02*
X404780Y544830D01*
X403860Y560070D02*
X404320Y559610D01*
X69190Y611829D02*
Y628350D01*
X355910Y221910D02*
X388620D01*
X377996Y311826D02*
X391290Y325120D01*
X70730Y519430D02*
Y530012D01*
X69460Y531282D02*
Y542290D01*
Y531282D02*
X70730Y530012D01*
X69460Y542290D02*
Y553380D01*
X52460Y519430D02*
Y553380D01*
X197160Y777154D02*
X239944D01*
X142296Y722290D02*
X197160Y777154D01*
X294697Y661584D02*
Y700954D01*
X265430Y730221D02*
X294697Y700954D01*
X262501Y767175D02*
X265430Y764246D01*
Y730221D02*
Y764246D01*
X250095Y767175D02*
X262501D01*
X250095Y729075D02*
Y754475D01*
X275646Y680103D02*
Y703523D01*
X250095Y729075D02*
X275646Y703523D01*
X237395Y701614D02*
X267773Y671236D01*
X237395Y701614D02*
Y754475D01*
X237207Y769337D02*
Y774417D01*
X239944Y777154D02*
X272852D01*
X236220Y768350D02*
X237207Y769337D01*
Y774417D02*
X239944Y777154D01*
X50690Y647779D02*
X53619Y644850D01*
X68690Y647779D02*
Y653850D01*
X50690Y647779D02*
Y653850D01*
X53619Y644850D02*
X65761D01*
X68690Y647779D01*
X49530Y633675D02*
X49690Y633516D01*
X49530Y633675D02*
Y636590D01*
X49690Y629913D02*
Y633516D01*
X50190Y654350D02*
Y659430D01*
Y739800D01*
X68690Y653850D02*
X69190Y654350D01*
X50190D02*
X50690Y653850D01*
X390020Y325120D02*
Y346710D01*
X374520Y325120D02*
Y346710D01*
X312420Y339891D02*
X315349Y342820D01*
X303530Y343266D02*
X311968Y351704D01*
X312420Y325853D02*
Y339891D01*
X320310Y342820D02*
X321310Y343820D01*
X315349Y342820D02*
X320310D01*
X312420Y325853D02*
X316963Y321310D01*
X354980D02*
X363784Y330114D01*
X316963Y321310D02*
X354980D01*
X315349Y207010D02*
X341010D01*
X355910Y221910D01*
X312420Y209939D02*
Y246250D01*
Y209939D02*
X315349Y207010D01*
X312420Y246250D02*
X377996Y311826D01*
X191483Y371823D02*
X198120Y378460D01*
X182880Y370840D02*
X183863Y371823D01*
X191483D01*
X401320Y174459D02*
X401477Y174617D01*
X324267Y167929D02*
Y180656D01*
Y167929D02*
X325120Y167076D01*
X303530Y318770D02*
Y343266D01*
Y318770D02*
X310474Y311826D01*
X377996D01*
X335565Y375285D02*
X352425D01*
X334930Y374650D02*
X335565Y375285D01*
X352425D02*
X353060Y375920D01*
X334930Y360680D02*
Y374650D01*
X374581Y355531D02*
X382067Y363017D01*
X374520Y346710D02*
X374581Y346771D01*
Y355531D01*
X382067Y363017D02*
Y369367D01*
X383540Y370840D01*
X384460Y395320D02*
Y631190D01*
X394970Y361950D02*
Y384810D01*
X384460Y395320D02*
X394970Y384810D01*
X394899Y351589D02*
Y361879D01*
X394970Y361950D01*
X390020Y346710D02*
X394899Y351589D01*
X334930Y356430D02*
Y360680D01*
X311968Y351704D02*
X330204D01*
X334930Y356430D01*
Y338242D02*
Y356430D01*
X186690Y331470D02*
X190500Y335280D01*
X186690Y271780D02*
Y331470D01*
Y271780D02*
X207010Y251460D01*
X231140Y319380D02*
X232410Y320650D01*
X229870Y283210D02*
X231140Y284480D01*
X224790Y392430D02*
Y418055D01*
X210368Y378008D02*
X224790Y392430D01*
X218496Y424348D02*
X224790Y418055D01*
X210368Y351259D02*
Y378008D01*
X207439Y348330D02*
X210368Y351259D01*
X198120Y348330D02*
X207439D01*
X198120Y360330D02*
Y378460D01*
X210820Y391160D02*
Y402590D01*
X198120Y378460D02*
X210820Y391160D01*
X317302Y625910D02*
Y752770D01*
X314254Y625910D02*
Y735752D01*
X420426Y612562D02*
X427301D01*
X234753Y548710D02*
Y562710D01*
X195128Y561508D02*
X200870D01*
X142296Y625910D02*
Y722290D01*
X195128Y548710D02*
Y561508D01*
X214870Y528996D02*
X228870D01*
X195128Y547538D02*
X200870D01*
X195128Y534710D02*
Y547538D01*
X59690Y659430D02*
Y698500D01*
X102870Y741680D01*
X50190Y739800D02*
X52070Y741680D01*
X299720Y153725D02*
X302260Y151186D01*
X414020Y166722D02*
X414399Y166343D01*
X314254Y625910D02*
X317302D01*
X299720Y153725D02*
Y167076D01*
X434397Y350745D02*
Y391130D01*
X95052Y412750D02*
X143313D01*
X69190Y611829D02*
X69219Y590550D01*
X427301Y618300D02*
Y735441D01*
X441160Y749300D01*
X454660Y391510D02*
X460304D01*
X462845Y394050D01*
Y416260D01*
X392780Y486324D02*
X462845Y416260D01*
X392780Y486324D02*
Y529590D01*
X228870Y562710D02*
X238817Y572657D01*
Y605734D01*
X223520Y613661D02*
Y755650D01*
X210368Y600510D02*
X223520Y613661D01*
X142370Y600510D02*
X210368D01*
X307904D02*
X317370D01*
X304747Y603668D02*
X307904Y600510D01*
X304747Y603668D02*
Y720114D01*
X299522Y725338D02*
X304747Y720114D01*
X372460Y631190D02*
Y743000D01*
X366160Y749300D02*
X372460Y743000D01*
X207010Y225450D02*
Y251460D01*
X317302Y625910D02*
X317370D01*
X317302Y752770D02*
X327209Y762676D01*
X427784D01*
X441160Y749300D01*
X50856Y783504D02*
X437444D01*
X451922Y769026D01*
Y614594D02*
Y769026D01*
X438628Y601300D02*
X451922Y614594D01*
X427301Y601300D02*
X438628D01*
X142296Y625910D02*
X142370D01*
X272852Y777154D02*
X314254Y735752D01*
X82767Y613210D02*
X142370D01*
X69190Y626786D02*
X82767Y613210D01*
X297605Y575110D02*
X317370D01*
X284536Y588178D02*
X297605Y575110D01*
X284536Y588178D02*
Y671213D01*
X275646Y680103D02*
X284536Y671213D01*
X298875Y587810D02*
X317370D01*
X294697Y591988D02*
X298875Y587810D01*
X294697Y591988D02*
Y644312D01*
X317370Y600510D02*
X328224D01*
X404780Y499126D02*
Y529590D01*
X402901Y497246D02*
X404780Y499126D01*
X172720Y448310D02*
Y490134D01*
X442016Y341630D02*
X449941D01*
X388620Y221781D02*
Y221910D01*
X434340Y391130D02*
X434397D01*
X325120Y241468D02*
X434397Y350745D01*
X325120Y224084D02*
Y241468D01*
X54930Y412750D02*
X57207D01*
X372460Y385479D02*
Y631190D01*
X369920Y382939D02*
X372460Y385479D01*
X369920Y366730D02*
Y382939D01*
X363784Y360594D02*
X369920Y366730D01*
X363784Y330114D02*
Y360594D01*
X131260Y600510D02*
X142370D01*
X87941Y557190D02*
X131260Y600510D01*
X87941Y513441D02*
Y557190D01*
X70730Y496230D02*
X87941Y513441D01*
X217903Y768350D02*
X223520D01*
X211385Y761832D02*
X217903Y768350D01*
X322930Y360680D02*
Y374650D01*
X317370Y613210D02*
X336099D01*
X354079Y631190D01*
X372460D01*
X251770Y434000D02*
X262890Y422881D01*
X216662Y434000D02*
X251770D01*
X210820Y439842D02*
X216662Y434000D01*
X210820Y439842D02*
Y448310D01*
X321310Y331820D02*
X328508D01*
X334930Y338242D01*
X392780Y544830D02*
Y584916D01*
X420426Y612562D01*
X427301D02*
Y618300D01*
X169729Y424348D02*
X218496D01*
X160020Y434057D02*
X169729Y424348D01*
X160020Y434057D02*
Y448310D01*
X426720Y221781D02*
Y286788D01*
X464458Y324526D01*
Y341630D01*
X384460Y631190D02*
Y717600D01*
X416160Y749300D01*
X200870Y547538D02*
Y548710D01*
X195128Y534710D02*
X200870D01*
Y561508D02*
Y562710D01*
X195128Y548710D02*
X200870D01*
Y562710D02*
X201987Y563827D01*
Y568620D01*
X213671D01*
Y563909D02*
Y568620D01*
Y563909D02*
X214870Y562710D01*
Y528996D02*
Y534710D01*
X228870Y528996D02*
Y534710D01*
Y562710D02*
Y567858D01*
X226654Y570074D02*
X228870Y567858D01*
X217085Y570074D02*
X226654D01*
X214870Y567858D02*
X217085Y570074D01*
X214870Y562710D02*
Y567858D01*
X228870Y534710D02*
X230014Y535854D01*
X234753D01*
Y547538D01*
X230042D02*
X234753D01*
X228870Y548710D02*
X230042Y547538D01*
X228870Y562710D02*
X234753D01*
X228870Y548710D02*
X234753D01*
X69219Y565150D02*
Y590550D01*
Y553621D02*
Y565150D01*
Y553621D02*
X69460Y553380D01*
X392780Y529590D02*
Y544830D01*
X53730Y494030D02*
Y519430D01*
X52702Y565150D02*
Y590550D01*
Y553621D02*
Y565150D01*
X52460Y553380D02*
X52702Y553621D01*
X454660Y371409D02*
Y391510D01*
Y371409D02*
X464458Y361610D01*
Y341630D02*
Y361610D01*
X445160Y403510D02*
X454660D01*
X443540Y405130D02*
X445160Y403510D01*
X434340Y405130D02*
X443540D01*
X153472Y402590D02*
X193820D01*
X143313Y412750D02*
X153472Y402590D01*
D17*
X262890Y349600D02*
D03*
Y361600D02*
D03*
X454660Y403510D02*
D03*
Y391510D02*
D03*
X321310Y343820D02*
D03*
Y331820D02*
D03*
X198120Y348330D02*
D03*
Y360330D02*
D03*
X231140Y349600D02*
D03*
Y361600D02*
D03*
D18*
X69460Y519430D02*
D03*
X52460D02*
D03*
X193820Y402590D02*
D03*
X210820D02*
D03*
X53730Y494030D02*
D03*
X70730D02*
D03*
X69460Y542290D02*
D03*
X52460D02*
D03*
D19*
X214870Y548710D02*
D03*
X200870D02*
D03*
X228870D02*
D03*
X200870Y534710D02*
D03*
X214870D02*
D03*
X228870D02*
D03*
X200870Y562710D02*
D03*
X214870D02*
D03*
X228870D02*
D03*
D20*
X142370Y625910D02*
D03*
Y613210D02*
D03*
Y600510D02*
D03*
Y587810D02*
D03*
Y575110D02*
D03*
Y562410D02*
D03*
Y549710D02*
D03*
Y537010D02*
D03*
Y524310D02*
D03*
Y511610D02*
D03*
Y498910D02*
D03*
Y486210D02*
D03*
Y473510D02*
D03*
Y460810D02*
D03*
X317370D02*
D03*
Y473510D02*
D03*
Y486210D02*
D03*
Y498910D02*
D03*
Y511610D02*
D03*
Y524310D02*
D03*
Y537010D02*
D03*
Y549710D02*
D03*
Y562410D02*
D03*
Y575110D02*
D03*
Y587810D02*
D03*
Y600510D02*
D03*
Y613210D02*
D03*
Y625910D02*
D03*
D21*
X160020Y448310D02*
D03*
X172720D02*
D03*
X185420D02*
D03*
X198120D02*
D03*
X210820D02*
D03*
X223520D02*
D03*
X236220D02*
D03*
X248920D02*
D03*
X261620D02*
D03*
X274320D02*
D03*
X287020D02*
D03*
X299720D02*
D03*
D22*
X374520Y325120D02*
D03*
X390020D02*
D03*
X374520Y346710D02*
D03*
X390020D02*
D03*
D23*
X434340Y391130D02*
D03*
Y405130D02*
D03*
D24*
X404780Y529590D02*
D03*
X392780D02*
D03*
X404780Y544830D02*
D03*
X392780D02*
D03*
X322930Y360680D02*
D03*
X334930D02*
D03*
X372460Y631190D02*
D03*
X384460D02*
D03*
X322930Y374650D02*
D03*
X334930D02*
D03*
D25*
X427301Y601300D02*
D03*
Y618300D02*
D03*
D26*
X464458Y341630D02*
D03*
X449941D02*
D03*
D27*
X388620Y221781D02*
D03*
X401320D02*
D03*
X414020D02*
D03*
X426720D02*
D03*
Y174459D02*
D03*
X414020D02*
D03*
X401320D02*
D03*
D28*
X388620D02*
D03*
D29*
X325120Y167076D02*
D03*
X299720D02*
D03*
Y224084D02*
D03*
D30*
X325120D02*
D03*
D31*
X207010Y320650D02*
D03*
X232410D02*
D03*
X257810D02*
D03*
Y225450D02*
D03*
X232410D02*
D03*
X207010D02*
D03*
D32*
X94930Y412750D02*
D03*
X54930D02*
D03*
D33*
X69190Y628350D02*
D03*
X50190D02*
D03*
Y654350D02*
D03*
X59690D02*
D03*
X69190D02*
D03*
D34*
X52702Y590550D02*
D03*
X69219D02*
D03*
X52702Y565150D02*
D03*
X69219D02*
D03*
D46*
X275590Y62230D02*
D03*
X326390D02*
D03*
X102870Y741680D02*
D03*
X52070D02*
D03*
X63500Y62230D02*
D03*
X114300D02*
D03*
X466090Y63500D02*
D03*
X415290D02*
D03*
D47*
X441160Y749300D02*
D03*
D48*
X416160D02*
D03*
X391160D02*
D03*
X366160D02*
D03*
D51*
X147630Y345320D02*
D03*
X27630D02*
D03*
Y223320D02*
D03*
X147630D02*
D03*
X87630Y203320D02*
D03*
D52*
X290933Y31750D02*
X299720Y40537D01*
X114927D02*
Y61603D01*
X123714Y31750D02*
X290933D01*
X299720Y40537D02*
Y153725D01*
X114927Y40537D02*
X123714Y31750D01*
X420593Y160693D02*
Y174459D01*
X403974Y144074D02*
X420593Y160693D01*
X309371Y144074D02*
X403974D01*
X302260Y151186D02*
X309371Y144074D01*
X395006Y174459D02*
Y189266D01*
X405130Y199390D02*
X434340D01*
X395006Y189266D02*
X405130Y199390D01*
X434340D02*
X466090Y167640D01*
Y63500D02*
Y167640D01*
X284377Y190500D02*
X314423D01*
X275590Y181713D02*
X284377Y190500D01*
X275590Y62230D02*
Y181713D01*
X314423Y190500D02*
X320097Y184826D01*
X324267Y180656D01*
X114300Y62230D02*
X114927Y61603D01*
D53*
X232410Y246957D02*
X268347Y282893D01*
X232410Y225450D02*
Y246957D01*
X257810Y320650D02*
X268347Y310114D01*
Y282893D02*
Y310114D01*
Y282893D02*
X301547D01*
X299720Y224084D02*
Y280336D01*
X301030Y281646D01*
X92339Y415341D02*
Y425821D01*
X17780Y500380D02*
X92339Y425821D01*
X17780Y500380D02*
Y704850D01*
X95052Y345354D02*
Y412750D01*
X395006Y174459D02*
X401320D01*
X388620D02*
X395006D01*
X231140Y284480D02*
Y319380D01*
X420593Y174459D02*
X426720D01*
X414020D02*
X420593D01*
X57207Y345862D02*
Y412750D01*
X27630Y223320D02*
Y277932D01*
X95052Y345354D01*
D54*
X114300Y62230D02*
Y311990D01*
X147630Y345320D01*
X87630Y88900D02*
Y203320D01*
X60960Y62230D02*
X87630Y88900D01*
D55*
X184150Y687070D02*
D03*
X191770Y66040D02*
D03*
X458470Y505460D02*
D03*
D56*
X214870Y555710D02*
D03*
X200870D02*
D03*
X228870D02*
D03*
X200870Y541710D02*
D03*
X214870D02*
D03*
X228870D02*
D03*
X207870Y562710D02*
D03*
X221870D02*
D03*
X207870Y548710D02*
D03*
X221870D02*
D03*
X207870Y534710D02*
D03*
X221870D02*
D03*
D57*
X250095Y754475D02*
D03*
Y767175D02*
D03*
X237395D02*
D03*
X224695D02*
D03*
X237395Y754475D02*
D03*
D58*
X224695D02*
D03*
D59*
X17780Y704850D02*
D03*
X35560Y626110D02*
D03*
X335280Y462280D02*
D03*
X230180Y377358D02*
D03*
X298450Y560070D02*
D03*
X403860D02*
D03*
X292340Y758754D02*
D03*
X182880Y370840D02*
D03*
X301547Y282893D02*
D03*
X353060Y375920D02*
D03*
X383540Y370840D02*
D03*
X229870Y283210D02*
D03*
X238817Y605734D02*
D03*
X100894Y460162D02*
D03*
X299522Y725338D02*
D03*
X294697Y661584D02*
D03*
Y644312D02*
D03*
X267773Y671236D02*
D03*
X240849Y418506D02*
D03*
X402901Y497246D02*
D03*
X172720Y490134D02*
D03*
X57207Y345862D02*
D03*
M02*
