G04*
G04 #@! TF.GenerationSoftware,Altium Limited,Altium Designer,24.4.1 (13)*
G04*
G04 Layer_Color=128*
%FSLAX44Y44*%
%MOMM*%
G71*
G04*
G04 #@! TF.SameCoordinates,35E0C0FB-C19D-4D04-833B-EC0655963EBE*
G04*
G04*
G04 #@! TF.FilePolarity,Positive*
G04*
G01*
G75*
%ADD14C,0.1270*%
D14*
X169150Y687070D02*
X199150D01*
X184150Y672070D02*
Y702070D01*
X176770Y66040D02*
X206770D01*
X191770Y51040D02*
Y81040D01*
X443470Y505460D02*
X473470D01*
X458470Y490460D02*
Y520460D01*
X269113Y62230D02*
X282067D01*
X275590Y55753D02*
Y68707D01*
X319913Y62230D02*
X332867D01*
X326390Y55753D02*
Y68707D01*
X213870Y555710D02*
X215870D01*
X214870Y554710D02*
Y556710D01*
X199870Y555710D02*
X201870D01*
X200870Y554710D02*
Y556710D01*
X227870Y555710D02*
X229870D01*
X228870Y554710D02*
Y556710D01*
X199870Y541710D02*
X201870D01*
X200870Y540710D02*
Y542710D01*
X213870Y541710D02*
X215870D01*
X214870Y540710D02*
Y542710D01*
X227870Y541710D02*
X229870D01*
X228870Y540710D02*
Y542710D01*
X206870Y562710D02*
X208870D01*
X207870Y561710D02*
Y563710D01*
X220870Y562710D02*
X222870D01*
X221870Y561710D02*
Y563710D01*
X206870Y548710D02*
X208870D01*
X207870Y547710D02*
Y549710D01*
X220870Y548710D02*
X222870D01*
X221870Y547710D02*
Y549710D01*
X206870Y534710D02*
X208870D01*
X207870Y533710D02*
Y535710D01*
X220870Y534710D02*
X222870D01*
X221870Y533710D02*
Y535710D01*
X96393Y741680D02*
X109347D01*
X102870Y735203D02*
Y748157D01*
X45593Y741680D02*
X58547D01*
X52070Y735203D02*
Y748157D01*
X57023Y62230D02*
X69977D01*
X63500Y55753D02*
Y68707D01*
X107823Y62230D02*
X120777D01*
X114300Y55753D02*
Y68707D01*
X436660Y749300D02*
X445660D01*
X441160Y744800D02*
Y753800D01*
X411660Y749300D02*
X420660D01*
X416160Y744800D02*
Y753800D01*
X386660Y749300D02*
X395660D01*
X391160Y744800D02*
Y753800D01*
X361660Y749300D02*
X370660D01*
X366160Y744800D02*
Y753800D01*
X459590Y63500D02*
X472590D01*
X466090Y57000D02*
Y70000D01*
X408790Y63500D02*
X421790D01*
X415290Y57000D02*
Y70000D01*
X246595Y754475D02*
X253595D01*
X250095Y750975D02*
Y757975D01*
X246595Y767175D02*
X253595D01*
X250095Y763675D02*
Y770675D01*
X233895Y767175D02*
X240895D01*
X237395Y763675D02*
Y770675D01*
X221195Y767175D02*
X228195D01*
X224695Y763675D02*
Y770675D01*
X233895Y754475D02*
X240895D01*
X237395Y750975D02*
Y757975D01*
X221195Y754475D02*
X228195D01*
X224695Y750975D02*
Y757975D01*
X141130Y345320D02*
X154130D01*
X147630Y338820D02*
Y351820D01*
X21130Y345320D02*
X34130D01*
X27630Y338820D02*
Y351820D01*
X21130Y223320D02*
X34130D01*
X27630Y216820D02*
Y229820D01*
X141130Y223320D02*
X154130D01*
X147630Y216820D02*
Y229820D01*
X81130Y203320D02*
X94130D01*
X87630Y196820D02*
Y209820D01*
X14224Y704850D02*
X21336D01*
X17780Y701294D02*
Y708406D01*
X32004Y626110D02*
X39116D01*
X35560Y622554D02*
Y629666D01*
X331724Y462280D02*
X338836D01*
X335280Y458724D02*
Y465836D01*
X226625Y377358D02*
X233736D01*
X230180Y373802D02*
Y380914D01*
X294894Y560070D02*
X302006D01*
X298450Y556514D02*
Y563626D01*
X400304Y560070D02*
X407416D01*
X403860Y556514D02*
Y563626D01*
X288784Y758754D02*
X295896D01*
X292340Y755198D02*
Y762310D01*
X179324Y370840D02*
X186436D01*
X182880Y367284D02*
Y374396D01*
X297991Y282893D02*
X305103D01*
X301547Y279337D02*
Y286449D01*
X349504Y375920D02*
X356616D01*
X353060Y372364D02*
Y379476D01*
X379984Y370840D02*
X387096D01*
X383540Y367284D02*
Y374396D01*
X226314Y283210D02*
X233426D01*
X229870Y279654D02*
Y286766D01*
X235261Y605734D02*
X242372D01*
X238817Y602178D02*
Y609290D01*
X97338Y460162D02*
X104451D01*
X100894Y456606D02*
Y463718D01*
X295966Y725338D02*
X303078D01*
X299522Y721782D02*
Y728894D01*
X291140Y661584D02*
X298253D01*
X294697Y658028D02*
Y665140D01*
X291140Y644312D02*
X298253D01*
X294697Y640756D02*
Y647868D01*
X264216Y671236D02*
X271329D01*
X267773Y667680D02*
Y674792D01*
X237292Y418506D02*
X244405D01*
X240849Y414950D02*
Y422062D01*
X399344Y497246D02*
X406456D01*
X402901Y493690D02*
Y500802D01*
X169164Y490134D02*
X176276D01*
X172720Y486578D02*
Y493690D01*
X53650Y345862D02*
X60763D01*
X57207Y342306D02*
Y349418D01*
M02*
