G04*
G04 #@! TF.GenerationSoftware,Altium Limited,Altium Designer,24.4.1 (13)*
G04*
G04 Layer_Color=2752767*
%FSLAX44Y44*%
%MOMM*%
G71*
G04*
G04 #@! TF.SameCoordinates,35E0C0FB-C19D-4D04-833B-EC0655963EBE*
G04*
G04*
G04 #@! TF.FilePolarity,Positive*
G04*
G01*
G75*
%ADD14C,0.1270*%
%ADD16C,0.2540*%
%ADD62C,0.3810*%
%ADD66C,0.4064*%
D14*
X228220Y534710D02*
G03*
X228220Y534710I-6350J0D01*
G01*
X214220D02*
G03*
X214220Y534710I-6350J0D01*
G01*
X228220Y548710D02*
G03*
X228220Y548710I-6350J0D01*
G01*
X214220D02*
G03*
X214220Y548710I-6350J0D01*
G01*
X228220Y562710D02*
G03*
X228220Y562710I-6350J0D01*
G01*
X214220D02*
G03*
X214220Y562710I-6350J0D01*
G01*
X235220Y541710D02*
G03*
X235220Y541710I-6350J0D01*
G01*
X221220D02*
G03*
X221220Y541710I-6350J0D01*
G01*
X207220D02*
G03*
X207220Y541710I-6350J0D01*
G01*
X235220Y555710D02*
G03*
X235220Y555710I-6350J0D01*
G01*
X207220D02*
G03*
X207220Y555710I-6350J0D01*
G01*
X221220D02*
G03*
X221220Y555710I-6350J0D01*
G01*
X57207Y339512D02*
X63556Y352212D01*
X50856D02*
X63556D01*
X50856D02*
X57207Y339512D01*
X172720Y483784D02*
X179070Y496484D01*
X166370D02*
X179070D01*
X166370D02*
X172720Y483784D01*
X402901Y490896D02*
X409250Y503596D01*
X396550D02*
X409250D01*
X396550D02*
X402901Y490896D01*
X240849Y412156D02*
X247199Y424856D01*
X234499D02*
X247199D01*
X234499D02*
X240849Y412156D01*
X267773Y664886D02*
X274123Y677586D01*
X261423D02*
X274123D01*
X261423D02*
X267773Y664886D01*
X294697Y637962D02*
X301047Y650662D01*
X288347D02*
X301047D01*
X288347D02*
X294697Y637962D01*
Y655234D02*
X301047Y667934D01*
X288347D02*
X301047D01*
X288347D02*
X294697Y655234D01*
X299522Y718988D02*
X305872Y731688D01*
X293172D02*
X305872D01*
X293172D02*
X299522Y718988D01*
X100894Y453812D02*
X107245Y466512D01*
X94544D02*
X107245D01*
X94544D02*
X100894Y453812D01*
X238817Y599384D02*
X245166Y612084D01*
X232467D02*
X245166D01*
X232467D02*
X238817Y599384D01*
X229870Y276860D02*
X236220Y289560D01*
X223520D02*
X236220D01*
X223520D02*
X229870Y276860D01*
X383540Y364490D02*
X389890Y377190D01*
X377190D02*
X389890D01*
X377190D02*
X383540Y364490D01*
X353060Y369570D02*
X359410Y382270D01*
X346710D02*
X359410D01*
X346710D02*
X353060Y369570D01*
X301547Y276543D02*
X307897Y289243D01*
X295197D02*
X307897D01*
X295197D02*
X301547Y276543D01*
X182880Y364490D02*
X189230Y377190D01*
X176530D02*
X189230D01*
X176530D02*
X182880Y364490D01*
X292340Y752404D02*
X298690Y765104D01*
X285990D02*
X298690D01*
X285990D02*
X292340Y752404D01*
X403860Y553720D02*
X410210Y566420D01*
X397510D02*
X410210D01*
X397510D02*
X403860Y553720D01*
X298450D02*
X304800Y566420D01*
X292100D02*
X304800D01*
X292100D02*
X298450Y553720D01*
X230180Y371008D02*
X236530Y383708D01*
X223831D02*
X236530D01*
X223831D02*
X230180Y371008D01*
X335280Y455930D02*
X341630Y468630D01*
X328930D02*
X341630D01*
X328930D02*
X335280Y455930D01*
X35560Y619760D02*
X41910Y632460D01*
X29210D02*
X41910D01*
X29210D02*
X35560Y619760D01*
X17780Y698500D02*
X24130Y711200D01*
X11430D02*
X24130D01*
X11430D02*
X17780Y698500D01*
X87630Y199510D02*
X91440Y207130D01*
X83820D02*
X91440D01*
X83820D02*
X87630Y199510D01*
Y196970D02*
X93980Y209670D01*
X81280D02*
X93980D01*
X81280D02*
X87630Y196970D01*
X147630Y219510D02*
X151440Y227130D01*
X143820D02*
X151440D01*
X143820D02*
X147630Y219510D01*
Y216970D02*
X153980Y229670D01*
X141280D02*
X153980D01*
X141280D02*
X147630Y216970D01*
X27630Y219510D02*
X31440Y227130D01*
X23820D02*
X31440D01*
X23820D02*
X27630Y219510D01*
Y216970D02*
X33980Y229670D01*
X21280D02*
X33980D01*
X21280D02*
X27630Y216970D01*
Y341510D02*
X31440Y349130D01*
X23820D02*
X31440D01*
X23820D02*
X27630Y341510D01*
Y338970D02*
X33980Y351670D01*
X21280D02*
X33980D01*
X21280D02*
X27630Y338970D01*
X147630Y341510D02*
X151440Y349130D01*
X143820D02*
X151440D01*
X143820D02*
X147630Y341510D01*
Y338970D02*
X153980Y351670D01*
X141280D02*
X153980D01*
X141280D02*
X147630Y338970D01*
X218345Y748125D02*
X231045D01*
Y760825D01*
X218345D02*
X231045D01*
X218345Y748125D02*
Y760825D01*
X231045Y748125D02*
X243745D01*
Y760825D01*
X231045D02*
X243745D01*
X231045Y748125D02*
Y760825D01*
X218345D02*
X231045D01*
Y773525D01*
X218345D02*
X231045D01*
X218345Y760825D02*
Y773525D01*
X231045Y760825D02*
X243745D01*
Y773525D01*
X231045D02*
X243745D01*
X231045Y760825D02*
Y773525D01*
X243745Y760825D02*
X256445D01*
Y773525D01*
X243745D02*
X256445D01*
X243745Y760825D02*
Y773525D01*
Y748125D02*
X256445D01*
Y760825D01*
X243745D02*
X256445D01*
X243745Y748125D02*
Y760825D01*
X415290Y59690D02*
X419100Y67310D01*
X411480D02*
X419100D01*
X411480D02*
X415290Y59690D01*
Y57150D02*
X421640Y69850D01*
X408940D02*
X421640D01*
X408940D02*
X415290Y57150D01*
X466090Y59690D02*
X469900Y67310D01*
X462280D02*
X469900D01*
X462280D02*
X466090Y59690D01*
Y57150D02*
X472440Y69850D01*
X459740D02*
X472440D01*
X459740D02*
X466090Y57150D01*
X359810Y746125D02*
X362985D01*
X359810D02*
Y752475D01*
X362985D01*
Y755650D01*
X369335D01*
Y752475D02*
Y755650D01*
Y752475D02*
X372510D01*
Y746125D02*
Y752475D01*
X369335Y746125D02*
X372510D01*
X369335Y742950D02*
Y746125D01*
X362985Y742950D02*
X369335D01*
X362985D02*
Y746125D01*
X384810D02*
X387985D01*
X384810D02*
Y752475D01*
X387985D01*
Y755650D01*
X394335D01*
Y752475D02*
Y755650D01*
Y752475D02*
X397510D01*
Y746125D02*
Y752475D01*
X394335Y746125D02*
X397510D01*
X394335Y742950D02*
Y746125D01*
X387985Y742950D02*
X394335D01*
X387985D02*
Y746125D01*
X409810D02*
X412985D01*
X409810D02*
Y752475D01*
X412985D01*
Y755650D01*
X419335D01*
Y752475D02*
Y755650D01*
Y752475D02*
X422510D01*
Y746125D02*
Y752475D01*
X419335Y746125D02*
X422510D01*
X419335Y742950D02*
Y746125D01*
X412985Y742950D02*
X419335D01*
X412985D02*
Y746125D01*
X434810D02*
X437985D01*
X434810D02*
Y752475D01*
X437985D01*
Y755650D01*
X444335D01*
Y752475D02*
Y755650D01*
Y752475D02*
X447510D01*
Y746125D02*
Y752475D01*
X444335Y746125D02*
X447510D01*
X444335Y742950D02*
Y746125D01*
X437985Y742950D02*
X444335D01*
X437985D02*
Y746125D01*
X110490Y58420D02*
X114300Y60325D01*
X118110Y58420D01*
X116205Y62230D02*
X118110Y58420D01*
X116205Y62230D02*
X118110Y66040D01*
X114300Y64135D02*
X118110Y66040D01*
X110490D02*
X114300Y64135D01*
X110490Y66040D02*
X112395Y62230D01*
X110490Y58420D02*
X112395Y62230D01*
X107950Y55880D02*
X114300Y59055D01*
X120650Y55880D01*
X117475Y62230D02*
X120650Y55880D01*
X117475Y62230D02*
X120650Y68580D01*
X114300Y65405D02*
X120650Y68580D01*
X107950D02*
X114300Y65405D01*
X107950Y68580D02*
X111125Y62230D01*
X107950Y55880D02*
X111125Y62230D01*
X59690Y58420D02*
X63500Y60325D01*
X67310Y58420D01*
X65405Y62230D02*
X67310Y58420D01*
X65405Y62230D02*
X67310Y66040D01*
X63500Y64135D02*
X67310Y66040D01*
X59690D02*
X63500Y64135D01*
X59690Y66040D02*
X61595Y62230D01*
X59690Y58420D02*
X61595Y62230D01*
X57150Y55880D02*
X63500Y59055D01*
X69850Y55880D01*
X66675Y62230D02*
X69850Y55880D01*
X66675Y62230D02*
X69850Y68580D01*
X63500Y65405D02*
X69850Y68580D01*
X57150D02*
X63500Y65405D01*
X57150Y68580D02*
X60325Y62230D01*
X57150Y55880D02*
X60325Y62230D01*
X48260Y737870D02*
X52070Y739775D01*
X55880Y737870D01*
X53975Y741680D02*
X55880Y737870D01*
X53975Y741680D02*
X55880Y745490D01*
X52070Y743585D02*
X55880Y745490D01*
X48260D02*
X52070Y743585D01*
X48260Y745490D02*
X50165Y741680D01*
X48260Y737870D02*
X50165Y741680D01*
X45720Y735330D02*
X52070Y738505D01*
X58420Y735330D01*
X55245Y741680D02*
X58420Y735330D01*
X55245Y741680D02*
X58420Y748030D01*
X52070Y744855D02*
X58420Y748030D01*
X45720D02*
X52070Y744855D01*
X45720Y748030D02*
X48895Y741680D01*
X45720Y735330D02*
X48895Y741680D01*
X99060Y737870D02*
X102870Y739775D01*
X106680Y737870D01*
X104775Y741680D02*
X106680Y737870D01*
X104775Y741680D02*
X106680Y745490D01*
X102870Y743585D02*
X106680Y745490D01*
X99060D02*
X102870Y743585D01*
X99060Y745490D02*
X100965Y741680D01*
X99060Y737870D02*
X100965Y741680D01*
X96520Y735330D02*
X102870Y738505D01*
X109220Y735330D01*
X106045Y741680D02*
X109220Y735330D01*
X106045Y741680D02*
X109220Y748030D01*
X102870Y744855D02*
X109220Y748030D01*
X96520D02*
X102870Y744855D01*
X96520Y748030D02*
X99695Y741680D01*
X96520Y735330D02*
X99695Y741680D01*
X322580Y58420D02*
X326390Y60325D01*
X330200Y58420D01*
X328295Y62230D02*
X330200Y58420D01*
X328295Y62230D02*
X330200Y66040D01*
X326390Y64135D02*
X330200Y66040D01*
X322580D02*
X326390Y64135D01*
X322580Y66040D02*
X324485Y62230D01*
X322580Y58420D02*
X324485Y62230D01*
X320040Y55880D02*
X326390Y59055D01*
X332740Y55880D01*
X329565Y62230D02*
X332740Y55880D01*
X329565Y62230D02*
X332740Y68580D01*
X326390Y65405D02*
X332740Y68580D01*
X320040D02*
X326390Y65405D01*
X320040Y68580D02*
X323215Y62230D01*
X320040Y55880D02*
X323215Y62230D01*
X271780Y58420D02*
X275590Y60325D01*
X279400Y58420D01*
X277495Y62230D02*
X279400Y58420D01*
X277495Y62230D02*
X279400Y66040D01*
X275590Y64135D02*
X279400Y66040D01*
X271780D02*
X275590Y64135D01*
X271780Y66040D02*
X273685Y62230D01*
X271780Y58420D02*
X273685Y62230D01*
X269240Y55880D02*
X275590Y59055D01*
X281940Y55880D01*
X278765Y62230D02*
X281940Y55880D01*
X278765Y62230D02*
X281940Y68580D01*
X275590Y65405D02*
X281940Y68580D01*
X269240D02*
X275590Y65405D01*
X269240Y68580D02*
X272415Y62230D01*
X269240Y55880D02*
X272415Y62230D01*
X455295Y502285D02*
X458470Y499110D01*
X452120Y502285D02*
X455295D01*
X452120D02*
X455295Y505460D01*
X452120Y508635D02*
X455295Y505460D01*
X452120Y508635D02*
X455295D01*
X458470Y511810D01*
X461645Y508635D01*
X464820D01*
X461645Y505460D02*
X464820Y508635D01*
X461645Y505460D02*
X464820Y502285D01*
X461645D02*
X464820D01*
X458470Y499110D02*
X461645Y502285D01*
X188595Y62865D02*
X191770Y59690D01*
X185420Y62865D02*
X188595D01*
X185420D02*
X188595Y66040D01*
X185420Y69215D02*
X188595Y66040D01*
X185420Y69215D02*
X188595D01*
X191770Y72390D01*
X194945Y69215D01*
X198120D01*
X194945Y66040D02*
X198120Y69215D01*
X194945Y66040D02*
X198120Y62865D01*
X194945D02*
X198120D01*
X191770Y59690D02*
X194945Y62865D01*
X180975Y683895D02*
X184150Y680720D01*
X177800Y683895D02*
X180975D01*
X177800D02*
X180975Y687070D01*
X177800Y690245D02*
X180975Y687070D01*
X177800Y690245D02*
X180975D01*
X184150Y693420D01*
X187325Y690245D01*
X190500D01*
X187325Y687070D02*
X190500Y690245D01*
X187325Y687070D02*
X190500Y683895D01*
X187325D02*
X190500D01*
X184150Y680720D02*
X187325Y683895D01*
D16*
X-403815Y1391497D02*
G03*
X-403815Y1391497I-8467J0D01*
G01*
X-416515Y1577763D02*
X-412281Y1573530D01*
X-420748Y1577763D02*
X-416515D01*
X-420748D02*
X-416515Y1581997D01*
X-420748Y1586230D02*
X-416515Y1581997D01*
X-420748Y1586230D02*
X-416515D01*
X-412281Y1590463D01*
X-408048Y1586230D01*
X-403815D01*
X-408048Y1581997D02*
X-403815Y1586230D01*
X-408048Y1581997D02*
X-403815Y1577763D01*
X-408048D02*
X-403815D01*
X-412281Y1573530D02*
X-408048Y1577763D01*
X-420748Y1539663D02*
X-416515D01*
X-420748D02*
Y1548130D01*
X-416515D01*
Y1552363D01*
X-408048D01*
Y1548130D02*
Y1552363D01*
Y1548130D02*
X-403815D01*
Y1539663D02*
Y1548130D01*
X-408048Y1539663D02*
X-403815D01*
X-408048Y1535430D02*
Y1539663D01*
X-416515Y1535430D02*
X-408048D01*
X-416515D02*
Y1539663D01*
X-420748Y1497330D02*
X-403815D01*
Y1514263D01*
X-420748D02*
X-403815D01*
X-420748Y1497330D02*
Y1514263D01*
X-417361Y1462617D02*
X-412281Y1465157D01*
X-407201Y1462617D01*
X-409741Y1467697D02*
X-407201Y1462617D01*
X-409741Y1467697D02*
X-407201Y1472777D01*
X-412281Y1470237D02*
X-407201Y1472777D01*
X-417361D02*
X-412281Y1470237D01*
X-417361Y1472777D02*
X-414821Y1467697D01*
X-417361Y1462617D02*
X-414821Y1467697D01*
X-420748Y1459230D02*
X-412281Y1463463D01*
X-403815Y1459230D01*
X-408048Y1467697D02*
X-403815Y1459230D01*
X-408048Y1467697D02*
X-403815Y1476163D01*
X-412281Y1471930D02*
X-403815Y1476163D01*
X-420748D02*
X-412281Y1471930D01*
X-420748Y1476163D02*
X-416515Y1467697D01*
X-420748Y1459230D02*
X-416515Y1467697D01*
X-412281Y1424517D02*
X-407201Y1434677D01*
X-417361D02*
X-407201D01*
X-417361D02*
X-412281Y1424517D01*
Y1421130D02*
X-403815Y1438063D01*
X-420748D02*
X-403815D01*
X-420748D02*
X-412281Y1421130D01*
Y1344930D02*
X-403815Y1361863D01*
X-420748D02*
X-403815D01*
X-420748D02*
X-412281Y1344930D01*
X1182114Y1583687D02*
X1174497D01*
X1171957Y1581147D01*
Y1576069D01*
X1174497Y1573530D01*
X1182114D01*
X1187193D02*
X1192271D01*
X1189732D01*
Y1588765D01*
X1187193Y1586226D01*
X1210045Y1588765D02*
X1199888D01*
Y1581147D01*
X1204967Y1583687D01*
X1207506D01*
X1210045Y1581147D01*
Y1576069D01*
X1207506Y1573530D01*
X1202428D01*
X1199888Y1576069D01*
X1225280Y1573530D02*
X1215124D01*
X1225280Y1583687D01*
Y1586226D01*
X1222741Y1588765D01*
X1217663D01*
X1215124Y1586226D01*
X1230359Y1588765D02*
Y1573530D01*
Y1581147D01*
X1232898Y1583687D01*
X1237976D01*
X1240515Y1581147D01*
Y1573530D01*
X1245594Y1586226D02*
X1248133Y1588765D01*
X1253211D01*
X1255750Y1586226D01*
Y1583687D01*
X1253211Y1581147D01*
X1250672D01*
X1253211D01*
X1255750Y1578608D01*
Y1576069D01*
X1253211Y1573530D01*
X1248133D01*
X1245594Y1576069D01*
X1260829Y1586226D02*
X1263368Y1588765D01*
X1268446D01*
X1270985Y1586226D01*
Y1576069D01*
X1268446Y1573530D01*
X1263368D01*
X1260829Y1576069D01*
Y1586226D01*
X1276064D02*
X1278603Y1588765D01*
X1283681D01*
X1286221Y1586226D01*
Y1576069D01*
X1283681Y1573530D01*
X1278603D01*
X1276064Y1576069D01*
Y1586226D01*
X1177036Y1535430D02*
X1171957Y1540508D01*
Y1545587D01*
X1177036Y1550665D01*
X1184653Y1535430D02*
Y1550665D01*
X1189732Y1545587D01*
X1194810Y1550665D01*
Y1535430D01*
X1199888D02*
X1204967D01*
X1202428D01*
Y1545587D01*
X1199888D01*
X1212584D02*
X1222741Y1535430D01*
X1217663Y1540508D01*
X1222741Y1545587D01*
X1212584Y1535430D01*
X1235437D02*
X1230359D01*
X1227819Y1537969D01*
Y1543047D01*
X1230359Y1545587D01*
X1235437D01*
X1237976Y1543047D01*
Y1540508D01*
X1227819D01*
X1253211Y1550665D02*
Y1535430D01*
X1245594D01*
X1243054Y1537969D01*
Y1543047D01*
X1245594Y1545587D01*
X1253211D01*
X1258289Y1535430D02*
X1263368Y1540508D01*
Y1545587D01*
X1258289Y1550665D01*
X1177036Y1497330D02*
X1171957Y1502408D01*
Y1507487D01*
X1177036Y1512565D01*
X1184653Y1497330D02*
Y1512565D01*
X1189732Y1507487D01*
X1194810Y1512565D01*
Y1497330D01*
X1199888D02*
X1204967D01*
X1202428D01*
Y1507487D01*
X1199888D01*
X1212584D02*
X1222741Y1497330D01*
X1217663Y1502408D01*
X1222741Y1507487D01*
X1212584Y1497330D01*
X1235437D02*
X1230359D01*
X1227819Y1499869D01*
Y1504948D01*
X1230359Y1507487D01*
X1235437D01*
X1237976Y1504948D01*
Y1502408D01*
X1227819D01*
X1253211Y1512565D02*
Y1497330D01*
X1245594D01*
X1243054Y1499869D01*
Y1504948D01*
X1245594Y1507487D01*
X1253211D01*
X1258289Y1497330D02*
X1263368Y1502408D01*
Y1507487D01*
X1258289Y1512565D01*
X1182114Y1469387D02*
X1174497D01*
X1171957Y1466848D01*
Y1461769D01*
X1174497Y1459230D01*
X1182114D01*
X1197349D02*
X1187193D01*
X1197349Y1469387D01*
Y1471926D01*
X1194810Y1474465D01*
X1189732D01*
X1187193Y1471926D01*
X1212584Y1474465D02*
X1202428D01*
Y1466848D01*
X1207506Y1469387D01*
X1210045D01*
X1212584Y1466848D01*
Y1461769D01*
X1210045Y1459230D01*
X1204967D01*
X1202428Y1461769D01*
X1225280Y1459230D02*
Y1474465D01*
X1217663Y1466848D01*
X1227819D01*
X1232898Y1474465D02*
Y1459230D01*
Y1466848D01*
X1235437Y1469387D01*
X1240515D01*
X1243054Y1466848D01*
Y1459230D01*
X1248133D02*
X1253211D01*
X1250672D01*
Y1474465D01*
X1248133Y1471926D01*
X1260829D02*
X1263368Y1474465D01*
X1268446D01*
X1270985Y1471926D01*
Y1469387D01*
X1268446Y1466848D01*
X1265907D01*
X1268446D01*
X1270985Y1464308D01*
Y1461769D01*
X1268446Y1459230D01*
X1263368D01*
X1260829Y1461769D01*
X1276064Y1471926D02*
X1278603Y1474465D01*
X1283681D01*
X1286221Y1471926D01*
Y1461769D01*
X1283681Y1459230D01*
X1278603D01*
X1276064Y1461769D01*
Y1471926D01*
X1291299Y1459230D02*
Y1469387D01*
X1293838D01*
X1296377Y1466848D01*
Y1459230D01*
Y1466848D01*
X1298916Y1469387D01*
X1301456Y1466848D01*
Y1459230D01*
X1316691D02*
X1306534D01*
X1316691Y1469387D01*
Y1471926D01*
X1314151Y1474465D01*
X1309073D01*
X1306534Y1471926D01*
X1331926Y1474465D02*
X1321769D01*
Y1466848D01*
X1326847Y1469387D01*
X1329386D01*
X1331926Y1466848D01*
Y1461769D01*
X1329386Y1459230D01*
X1324308D01*
X1321769Y1461769D01*
X1344622Y1459230D02*
Y1474465D01*
X1337004Y1466848D01*
X1347161D01*
X1177036Y1421130D02*
X1171957Y1426208D01*
Y1431287D01*
X1177036Y1436365D01*
X1184653Y1421130D02*
Y1436365D01*
X1189732Y1431287D01*
X1194810Y1436365D01*
Y1421130D01*
X1199888D02*
X1204967D01*
X1202428D01*
Y1431287D01*
X1199888D01*
X1212584D02*
X1222741Y1421130D01*
X1217663Y1426208D01*
X1222741Y1431287D01*
X1212584Y1421130D01*
X1235437D02*
X1230359D01*
X1227819Y1423669D01*
Y1428748D01*
X1230359Y1431287D01*
X1235437D01*
X1237976Y1428748D01*
Y1426208D01*
X1227819D01*
X1253211Y1436365D02*
Y1421130D01*
X1245594D01*
X1243054Y1423669D01*
Y1428748D01*
X1245594Y1431287D01*
X1253211D01*
X1258289Y1421130D02*
X1263368Y1426208D01*
Y1431287D01*
X1258289Y1436365D01*
X1182114Y1393187D02*
X1174497D01*
X1171957Y1390647D01*
Y1385569D01*
X1174497Y1383030D01*
X1182114D01*
X1194810D02*
Y1398265D01*
X1187193Y1390647D01*
X1197349D01*
X1202428Y1395726D02*
X1204967Y1398265D01*
X1210045D01*
X1212584Y1395726D01*
Y1385569D01*
X1210045Y1383030D01*
X1204967D01*
X1202428Y1385569D01*
Y1395726D01*
X1217663Y1398265D02*
Y1383030D01*
Y1390647D01*
X1220202Y1393187D01*
X1225280D01*
X1227819Y1390647D01*
Y1383030D01*
X1243054D02*
X1232898D01*
X1243054Y1393187D01*
Y1395726D01*
X1240515Y1398265D01*
X1235437D01*
X1232898Y1395726D01*
X1248133D02*
X1250672Y1398265D01*
X1255750D01*
X1258289Y1395726D01*
Y1385569D01*
X1255750Y1383030D01*
X1250672D01*
X1248133Y1385569D01*
Y1395726D01*
X1263368Y1383030D02*
Y1393187D01*
X1265907D01*
X1268446Y1390647D01*
Y1383030D01*
Y1390647D01*
X1270985Y1393187D01*
X1273525Y1390647D01*
Y1383030D01*
X1278603Y1395726D02*
X1281142Y1398265D01*
X1286221D01*
X1288760Y1395726D01*
Y1385569D01*
X1286221Y1383030D01*
X1281142D01*
X1278603Y1385569D01*
Y1395726D01*
X1293838Y1383030D02*
Y1393187D01*
X1296377D01*
X1298916Y1390647D01*
Y1383030D01*
Y1390647D01*
X1301456Y1393187D01*
X1303995Y1390647D01*
Y1383030D01*
X1309073Y1393187D02*
X1319230Y1383030D01*
X1314151Y1388108D01*
X1319230Y1393187D01*
X1309073Y1383030D01*
X1324308Y1395726D02*
X1326847Y1398265D01*
X1331926D01*
X1334465Y1395726D01*
Y1385569D01*
X1331926Y1383030D01*
X1326847D01*
X1324308Y1385569D01*
Y1395726D01*
X1171957Y1355087D02*
X1177036Y1344930D01*
X1182114Y1355087D01*
X1187193Y1344930D02*
X1192271D01*
X1189732D01*
Y1360165D01*
X1187193Y1357626D01*
X1210045Y1344930D02*
X1199888D01*
X1210045Y1355087D01*
Y1357626D01*
X1207506Y1360165D01*
X1202428D01*
X1199888Y1357626D01*
X1215124Y1360165D02*
X1225280D01*
Y1357626D01*
X1215124Y1347469D01*
Y1344930D01*
X1230359Y1360165D02*
Y1344930D01*
Y1352547D01*
X1232898Y1355087D01*
X1237976D01*
X1240515Y1352547D01*
Y1344930D01*
X1245594Y1360165D02*
X1255750D01*
Y1357626D01*
X1245594Y1347469D01*
Y1344930D01*
X1260829D02*
X1265907D01*
X1263368D01*
Y1360165D01*
X1260829Y1357626D01*
X1273525Y1344930D02*
Y1355087D01*
X1276064D01*
X1278603Y1352547D01*
Y1344930D01*
Y1352547D01*
X1281142Y1355087D01*
X1283681Y1352547D01*
Y1344930D01*
X1288760Y1357626D02*
X1291299Y1360165D01*
X1296377D01*
X1298916Y1357626D01*
Y1347469D01*
X1296377Y1344930D01*
X1291299D01*
X1288760Y1347469D01*
Y1357626D01*
X1303995Y1344930D02*
Y1355087D01*
X1306534D01*
X1309073Y1352547D01*
Y1344930D01*
Y1352547D01*
X1311612Y1355087D01*
X1314151Y1352547D01*
Y1344930D01*
X1319230Y1355087D02*
X1329386Y1344930D01*
X1324308Y1350008D01*
X1329386Y1355087D01*
X1319230Y1344930D01*
X1334465Y1357626D02*
X1337004Y1360165D01*
X1342082D01*
X1344622Y1357626D01*
Y1347469D01*
X1342082Y1344930D01*
X1337004D01*
X1334465Y1347469D01*
Y1357626D01*
X982525Y1573530D02*
Y1588765D01*
X990142D01*
X992681Y1586226D01*
Y1581147D01*
X990142Y1578608D01*
X982525D01*
X987603D02*
X992681Y1573530D01*
X1000299D02*
X1005377D01*
X1007916Y1576069D01*
Y1581147D01*
X1005377Y1583687D01*
X1000299D01*
X997760Y1581147D01*
Y1576069D01*
X1000299Y1573530D01*
X1012995Y1583687D02*
Y1576069D01*
X1015534Y1573530D01*
X1023152D01*
Y1583687D01*
X1028230Y1573530D02*
Y1583687D01*
X1035847D01*
X1038387Y1581147D01*
Y1573530D01*
X1053622Y1588765D02*
Y1573530D01*
X1046004D01*
X1043465Y1576069D01*
Y1581147D01*
X1046004Y1583687D01*
X1053622D01*
X1066318Y1573530D02*
X1061239D01*
X1058700Y1576069D01*
Y1581147D01*
X1061239Y1583687D01*
X1066318D01*
X1068857Y1581147D01*
Y1578608D01*
X1058700D01*
X1084092Y1588765D02*
Y1573530D01*
X1076474D01*
X1073935Y1576069D01*
Y1581147D01*
X1076474Y1583687D01*
X1084092D01*
X987603Y1535430D02*
X982525Y1540508D01*
Y1545587D01*
X987603Y1550665D01*
X995221Y1535430D02*
Y1550665D01*
X1000299Y1545587D01*
X1005377Y1550665D01*
Y1535430D01*
X1010456D02*
X1015534D01*
X1012995D01*
Y1545587D01*
X1010456D01*
X1023151D02*
X1033308Y1535430D01*
X1028230Y1540508D01*
X1033308Y1545587D01*
X1023151Y1535430D01*
X1046004D02*
X1040926D01*
X1038387Y1537969D01*
Y1543047D01*
X1040926Y1545587D01*
X1046004D01*
X1048543Y1543047D01*
Y1540508D01*
X1038387D01*
X1063778Y1550665D02*
Y1535430D01*
X1056161D01*
X1053622Y1537969D01*
Y1543047D01*
X1056161Y1545587D01*
X1063778D01*
X1068857Y1535430D02*
X1073935Y1540508D01*
Y1545587D01*
X1068857Y1550665D01*
X987603Y1497330D02*
X982525Y1502408D01*
Y1507487D01*
X987603Y1512565D01*
X995221Y1497330D02*
Y1512565D01*
X1000299Y1507487D01*
X1005377Y1512565D01*
Y1497330D01*
X1010456D02*
X1015534D01*
X1012995D01*
Y1507487D01*
X1010456D01*
X1023151D02*
X1033308Y1497330D01*
X1028230Y1502408D01*
X1033308Y1507487D01*
X1023151Y1497330D01*
X1046004D02*
X1040926D01*
X1038387Y1499869D01*
Y1504948D01*
X1040926Y1507487D01*
X1046004D01*
X1048543Y1504948D01*
Y1502408D01*
X1038387D01*
X1063778Y1512565D02*
Y1497330D01*
X1056161D01*
X1053622Y1499869D01*
Y1504948D01*
X1056161Y1507487D01*
X1063778D01*
X1068857Y1497330D02*
X1073935Y1502408D01*
Y1507487D01*
X1068857Y1512565D01*
X982525Y1459230D02*
Y1474465D01*
X990142D01*
X992681Y1471926D01*
Y1466848D01*
X990142Y1464308D01*
X982525D01*
X987603D02*
X992681Y1459230D01*
X1000299D02*
X1005377D01*
X1007916Y1461769D01*
Y1466848D01*
X1005377Y1469387D01*
X1000299D01*
X997760Y1466848D01*
Y1461769D01*
X1000299Y1459230D01*
X1012995Y1469387D02*
Y1461769D01*
X1015534Y1459230D01*
X1023152D01*
Y1469387D01*
X1028230Y1459230D02*
Y1469387D01*
X1035847D01*
X1038387Y1466848D01*
Y1459230D01*
X1053622Y1474465D02*
Y1459230D01*
X1046004D01*
X1043465Y1461769D01*
Y1466848D01*
X1046004Y1469387D01*
X1053622D01*
X1066318Y1459230D02*
X1061239D01*
X1058700Y1461769D01*
Y1466848D01*
X1061239Y1469387D01*
X1066318D01*
X1068857Y1466848D01*
Y1464308D01*
X1058700D01*
X1084092Y1474465D02*
Y1459230D01*
X1076474D01*
X1073935Y1461769D01*
Y1466848D01*
X1076474Y1469387D01*
X1084092D01*
X982525Y1421130D02*
Y1436365D01*
X990142D01*
X992681Y1433826D01*
Y1428748D01*
X990142Y1426208D01*
X982525D01*
X987603D02*
X992681Y1421130D01*
X1000299D02*
X1005377D01*
X1007916Y1423669D01*
Y1428748D01*
X1005377Y1431287D01*
X1000299D01*
X997760Y1428748D01*
Y1423669D01*
X1000299Y1421130D01*
X1012995Y1431287D02*
Y1423669D01*
X1015534Y1421130D01*
X1023152D01*
Y1431287D01*
X1028230Y1421130D02*
Y1431287D01*
X1035847D01*
X1038387Y1428748D01*
Y1421130D01*
X1053622Y1436365D02*
Y1421130D01*
X1046004D01*
X1043465Y1423669D01*
Y1428748D01*
X1046004Y1431287D01*
X1053622D01*
X1066318Y1421130D02*
X1061239D01*
X1058700Y1423669D01*
Y1428748D01*
X1061239Y1431287D01*
X1066318D01*
X1068857Y1428748D01*
Y1426208D01*
X1058700D01*
X1084092Y1436365D02*
Y1421130D01*
X1076474D01*
X1073935Y1423669D01*
Y1428748D01*
X1076474Y1431287D01*
X1084092D01*
X982525Y1383030D02*
Y1398265D01*
X990142D01*
X992681Y1395726D01*
Y1390647D01*
X990142Y1388108D01*
X982525D01*
X987603D02*
X992681Y1383030D01*
X1000299D02*
X1005377D01*
X1007916Y1385569D01*
Y1390647D01*
X1005377Y1393187D01*
X1000299D01*
X997760Y1390647D01*
Y1385569D01*
X1000299Y1383030D01*
X1012995Y1393187D02*
Y1385569D01*
X1015534Y1383030D01*
X1023152D01*
Y1393187D01*
X1028230Y1383030D02*
Y1393187D01*
X1035847D01*
X1038387Y1390647D01*
Y1383030D01*
X1053622Y1398265D02*
Y1383030D01*
X1046004D01*
X1043465Y1385569D01*
Y1390647D01*
X1046004Y1393187D01*
X1053622D01*
X1066318Y1383030D02*
X1061239D01*
X1058700Y1385569D01*
Y1390647D01*
X1061239Y1393187D01*
X1066318D01*
X1068857Y1390647D01*
Y1388108D01*
X1058700D01*
X1084092Y1398265D02*
Y1383030D01*
X1076474D01*
X1073935Y1385569D01*
Y1390647D01*
X1076474Y1393187D01*
X1084092D01*
X982525Y1344930D02*
Y1360165D01*
X990142D01*
X992681Y1357626D01*
Y1352547D01*
X990142Y1350008D01*
X982525D01*
X987603D02*
X992681Y1344930D01*
X1000299D02*
X1005377D01*
X1007916Y1347469D01*
Y1352547D01*
X1005377Y1355087D01*
X1000299D01*
X997760Y1352547D01*
Y1347469D01*
X1000299Y1344930D01*
X1012995Y1355087D02*
Y1347469D01*
X1015534Y1344930D01*
X1023152D01*
Y1355087D01*
X1028230Y1344930D02*
Y1355087D01*
X1035847D01*
X1038387Y1352547D01*
Y1344930D01*
X1053622Y1360165D02*
Y1344930D01*
X1046004D01*
X1043465Y1347469D01*
Y1352547D01*
X1046004Y1355087D01*
X1053622D01*
X1066318Y1344930D02*
X1061239D01*
X1058700Y1347469D01*
Y1352547D01*
X1061239Y1355087D01*
X1066318D01*
X1068857Y1352547D01*
Y1350008D01*
X1058700D01*
X1084092Y1360165D02*
Y1344930D01*
X1076474D01*
X1073935Y1347469D01*
Y1352547D01*
X1076474Y1355087D01*
X1084092D01*
X832703Y1573530D02*
Y1588765D01*
X840321D01*
X842860Y1586226D01*
Y1581147D01*
X840321Y1578608D01*
X832703D01*
X850477Y1583687D02*
X855556D01*
X858095Y1581147D01*
Y1573530D01*
X850477D01*
X847938Y1576069D01*
X850477Y1578608D01*
X858095D01*
X873330Y1588765D02*
Y1573530D01*
X865713D01*
X863173Y1576069D01*
Y1581147D01*
X865713Y1583687D01*
X873330D01*
X832703Y1535430D02*
Y1550665D01*
X840321D01*
X842860Y1548126D01*
Y1543047D01*
X840321Y1540508D01*
X832703D01*
X850477Y1545587D02*
X855556D01*
X858095Y1543047D01*
Y1535430D01*
X850477D01*
X847938Y1537969D01*
X850477Y1540508D01*
X858095D01*
X873330Y1550665D02*
Y1535430D01*
X865713D01*
X863173Y1537969D01*
Y1543047D01*
X865713Y1545587D01*
X873330D01*
X832703Y1497330D02*
Y1512565D01*
X840321D01*
X842860Y1510026D01*
Y1504948D01*
X840321Y1502408D01*
X832703D01*
X850477Y1507487D02*
X855556D01*
X858095Y1504948D01*
Y1497330D01*
X850477D01*
X847938Y1499869D01*
X850477Y1502408D01*
X858095D01*
X873330Y1512565D02*
Y1497330D01*
X865713D01*
X863173Y1499869D01*
Y1504948D01*
X865713Y1507487D01*
X873330D01*
X832703Y1459230D02*
Y1474465D01*
X840321D01*
X842860Y1471926D01*
Y1466848D01*
X840321Y1464308D01*
X832703D01*
X850477Y1469387D02*
X855556D01*
X858095Y1466848D01*
Y1459230D01*
X850477D01*
X847938Y1461769D01*
X850477Y1464308D01*
X858095D01*
X873330Y1474465D02*
Y1459230D01*
X865713D01*
X863173Y1461769D01*
Y1466848D01*
X865713Y1469387D01*
X873330D01*
X832703Y1421130D02*
Y1436365D01*
X840321D01*
X842860Y1433826D01*
Y1428748D01*
X840321Y1426208D01*
X832703D01*
X850477Y1431287D02*
X855556D01*
X858095Y1428748D01*
Y1421130D01*
X850477D01*
X847938Y1423669D01*
X850477Y1426208D01*
X858095D01*
X873330Y1436365D02*
Y1421130D01*
X865713D01*
X863173Y1423669D01*
Y1428748D01*
X865713Y1431287D01*
X873330D01*
X832703Y1383030D02*
Y1398265D01*
X840321D01*
X842860Y1395726D01*
Y1390647D01*
X840321Y1388108D01*
X832703D01*
X850477Y1393187D02*
X855556D01*
X858095Y1390647D01*
Y1383030D01*
X850477D01*
X847938Y1385569D01*
X850477Y1388108D01*
X858095D01*
X873330Y1398265D02*
Y1383030D01*
X865713D01*
X863173Y1385569D01*
Y1390647D01*
X865713Y1393187D01*
X873330D01*
X832703Y1360165D02*
Y1350008D01*
X837782Y1344930D01*
X842860Y1350008D01*
Y1360165D01*
X847938Y1344930D02*
X853017D01*
X850477D01*
Y1355087D01*
X847938D01*
X863173D02*
X868252D01*
X870791Y1352547D01*
Y1344930D01*
X863173D01*
X860634Y1347469D01*
X863173Y1350008D01*
X870791D01*
X451817Y1588765D02*
X461974D01*
X456896D01*
Y1573530D01*
X469592D02*
X474670D01*
X477209Y1576069D01*
Y1581147D01*
X474670Y1583687D01*
X469592D01*
X467052Y1581147D01*
Y1576069D01*
X469592Y1573530D01*
X482287Y1568452D02*
Y1583687D01*
X489905D01*
X492444Y1581147D01*
Y1576069D01*
X489905Y1573530D01*
X482287D01*
X512758Y1588765D02*
Y1573530D01*
X522914D01*
X530532Y1583687D02*
X535610D01*
X538149Y1581147D01*
Y1573530D01*
X530532D01*
X527993Y1576069D01*
X530532Y1578608D01*
X538149D01*
X543228Y1583687D02*
Y1576069D01*
X545767Y1573530D01*
X553385D01*
Y1570991D01*
X550845Y1568452D01*
X548306D01*
X553385Y1573530D02*
Y1583687D01*
X566080Y1573530D02*
X561002D01*
X558463Y1576069D01*
Y1581147D01*
X561002Y1583687D01*
X566080D01*
X568620Y1581147D01*
Y1578608D01*
X558463D01*
X573698Y1583687D02*
Y1573530D01*
Y1578608D01*
X576237Y1581147D01*
X578776Y1583687D01*
X581315D01*
X604168Y1581147D02*
X614325D01*
X634638Y1588765D02*
Y1573530D01*
X642256D01*
X644795Y1576069D01*
Y1578608D01*
X642256Y1581147D01*
X634638D01*
X642256D01*
X644795Y1583687D01*
Y1586226D01*
X642256Y1588765D01*
X634638D01*
X652412Y1573530D02*
X657491D01*
X660030Y1576069D01*
Y1581147D01*
X657491Y1583687D01*
X652412D01*
X649873Y1581147D01*
Y1576069D01*
X652412Y1573530D01*
X667647Y1586226D02*
Y1583687D01*
X665108D01*
X670187D01*
X667647D01*
Y1576069D01*
X670187Y1573530D01*
X680343Y1586226D02*
Y1583687D01*
X677804D01*
X682883D01*
X680343D01*
Y1576069D01*
X682883Y1573530D01*
X693039D02*
X698118D01*
X700657Y1576069D01*
Y1581147D01*
X698118Y1583687D01*
X693039D01*
X690500Y1581147D01*
Y1576069D01*
X693039Y1573530D01*
X705735D02*
Y1583687D01*
X708274D01*
X710814Y1581147D01*
Y1573530D01*
Y1581147D01*
X713353Y1583687D01*
X715892Y1581147D01*
Y1573530D01*
X736205Y1588765D02*
Y1573530D01*
X746362D01*
X753980Y1583687D02*
X759058D01*
X761597Y1581147D01*
Y1573530D01*
X753980D01*
X751440Y1576069D01*
X753980Y1578608D01*
X761597D01*
X766675Y1583687D02*
Y1576069D01*
X769215Y1573530D01*
X776832D01*
Y1570991D01*
X774293Y1568452D01*
X771754D01*
X776832Y1573530D02*
Y1583687D01*
X789528Y1573530D02*
X784450D01*
X781911Y1576069D01*
Y1581147D01*
X784450Y1583687D01*
X789528D01*
X792067Y1581147D01*
Y1578608D01*
X781911D01*
X797146Y1583687D02*
Y1573530D01*
Y1578608D01*
X799685Y1581147D01*
X802224Y1583687D01*
X804763D01*
X451817Y1550665D02*
X461974D01*
X456896D01*
Y1535430D01*
X469592D02*
X474670D01*
X477209Y1537969D01*
Y1543047D01*
X474670Y1545587D01*
X469592D01*
X467052Y1543047D01*
Y1537969D01*
X469592Y1535430D01*
X482287Y1530352D02*
Y1545587D01*
X489905D01*
X492444Y1543047D01*
Y1537969D01*
X489905Y1535430D01*
X482287D01*
X512758Y1550665D02*
Y1535430D01*
X522914D01*
X530532Y1545587D02*
X535610D01*
X538149Y1543047D01*
Y1535430D01*
X530532D01*
X527993Y1537969D01*
X530532Y1540508D01*
X538149D01*
X543228Y1545587D02*
Y1537969D01*
X545767Y1535430D01*
X553385D01*
Y1532891D01*
X550845Y1530352D01*
X548306D01*
X553385Y1535430D02*
Y1545587D01*
X566080Y1535430D02*
X561002D01*
X558463Y1537969D01*
Y1543047D01*
X561002Y1545587D01*
X566080D01*
X568620Y1543047D01*
Y1540508D01*
X558463D01*
X573698Y1545587D02*
Y1535430D01*
Y1540508D01*
X576237Y1543047D01*
X578776Y1545587D01*
X581315D01*
X604168Y1543047D02*
X614325D01*
X634638Y1550665D02*
Y1535430D01*
X642256D01*
X644795Y1537969D01*
Y1540508D01*
X642256Y1543047D01*
X634638D01*
X642256D01*
X644795Y1545587D01*
Y1548126D01*
X642256Y1550665D01*
X634638D01*
X652412Y1535430D02*
X657491D01*
X660030Y1537969D01*
Y1543047D01*
X657491Y1545587D01*
X652412D01*
X649873Y1543047D01*
Y1537969D01*
X652412Y1535430D01*
X667647Y1548126D02*
Y1545587D01*
X665108D01*
X670187D01*
X667647D01*
Y1537969D01*
X670187Y1535430D01*
X680343Y1548126D02*
Y1545587D01*
X677804D01*
X682883D01*
X680343D01*
Y1537969D01*
X682883Y1535430D01*
X693039D02*
X698118D01*
X700657Y1537969D01*
Y1543047D01*
X698118Y1545587D01*
X693039D01*
X690500Y1543047D01*
Y1537969D01*
X693039Y1535430D01*
X705735D02*
Y1545587D01*
X708274D01*
X710814Y1543047D01*
Y1535430D01*
Y1543047D01*
X713353Y1545587D01*
X715892Y1543047D01*
Y1535430D01*
X736205Y1550665D02*
Y1535430D01*
X746362D01*
X753980Y1545587D02*
X759058D01*
X761597Y1543047D01*
Y1535430D01*
X753980D01*
X751440Y1537969D01*
X753980Y1540508D01*
X761597D01*
X766675Y1545587D02*
Y1537969D01*
X769215Y1535430D01*
X776832D01*
Y1532891D01*
X774293Y1530352D01*
X771754D01*
X776832Y1535430D02*
Y1545587D01*
X789528Y1535430D02*
X784450D01*
X781911Y1537969D01*
Y1543047D01*
X784450Y1545587D01*
X789528D01*
X792067Y1543047D01*
Y1540508D01*
X781911D01*
X797146Y1545587D02*
Y1535430D01*
Y1540508D01*
X799685Y1543047D01*
X802224Y1545587D01*
X804763D01*
X451817Y1512565D02*
X461974D01*
X456896D01*
Y1497330D01*
X469592D02*
X474670D01*
X477209Y1499869D01*
Y1504948D01*
X474670Y1507487D01*
X469592D01*
X467052Y1504948D01*
Y1499869D01*
X469592Y1497330D01*
X482287Y1492252D02*
Y1507487D01*
X489905D01*
X492444Y1504948D01*
Y1499869D01*
X489905Y1497330D01*
X482287D01*
X512758Y1512565D02*
Y1497330D01*
X522914D01*
X530532Y1507487D02*
X535610D01*
X538149Y1504948D01*
Y1497330D01*
X530532D01*
X527993Y1499869D01*
X530532Y1502408D01*
X538149D01*
X543228Y1507487D02*
Y1499869D01*
X545767Y1497330D01*
X553385D01*
Y1494791D01*
X550845Y1492252D01*
X548306D01*
X553385Y1497330D02*
Y1507487D01*
X566080Y1497330D02*
X561002D01*
X558463Y1499869D01*
Y1504948D01*
X561002Y1507487D01*
X566080D01*
X568620Y1504948D01*
Y1502408D01*
X558463D01*
X573698Y1507487D02*
Y1497330D01*
Y1502408D01*
X576237Y1504948D01*
X578776Y1507487D01*
X581315D01*
X604168Y1504948D02*
X614325D01*
X634638Y1512565D02*
Y1497330D01*
X642256D01*
X644795Y1499869D01*
Y1502408D01*
X642256Y1504948D01*
X634638D01*
X642256D01*
X644795Y1507487D01*
Y1510026D01*
X642256Y1512565D01*
X634638D01*
X652412Y1497330D02*
X657491D01*
X660030Y1499869D01*
Y1504948D01*
X657491Y1507487D01*
X652412D01*
X649873Y1504948D01*
Y1499869D01*
X652412Y1497330D01*
X667647Y1510026D02*
Y1507487D01*
X665108D01*
X670187D01*
X667647D01*
Y1499869D01*
X670187Y1497330D01*
X680343Y1510026D02*
Y1507487D01*
X677804D01*
X682883D01*
X680343D01*
Y1499869D01*
X682883Y1497330D01*
X693039D02*
X698118D01*
X700657Y1499869D01*
Y1504948D01*
X698118Y1507487D01*
X693039D01*
X690500Y1504948D01*
Y1499869D01*
X693039Y1497330D01*
X705735D02*
Y1507487D01*
X708274D01*
X710814Y1504948D01*
Y1497330D01*
Y1504948D01*
X713353Y1507487D01*
X715892Y1504948D01*
Y1497330D01*
X736205Y1512565D02*
Y1497330D01*
X746362D01*
X753980Y1507487D02*
X759058D01*
X761597Y1504948D01*
Y1497330D01*
X753980D01*
X751440Y1499869D01*
X753980Y1502408D01*
X761597D01*
X766675Y1507487D02*
Y1499869D01*
X769215Y1497330D01*
X776832D01*
Y1494791D01*
X774293Y1492252D01*
X771754D01*
X776832Y1497330D02*
Y1507487D01*
X789528Y1497330D02*
X784450D01*
X781911Y1499869D01*
Y1504948D01*
X784450Y1507487D01*
X789528D01*
X792067Y1504948D01*
Y1502408D01*
X781911D01*
X797146Y1507487D02*
Y1497330D01*
Y1502408D01*
X799685Y1504948D01*
X802224Y1507487D01*
X804763D01*
X451817Y1474465D02*
X461974D01*
X456896D01*
Y1459230D01*
X469592D02*
X474670D01*
X477209Y1461769D01*
Y1466848D01*
X474670Y1469387D01*
X469592D01*
X467052Y1466848D01*
Y1461769D01*
X469592Y1459230D01*
X482287Y1454152D02*
Y1469387D01*
X489905D01*
X492444Y1466848D01*
Y1461769D01*
X489905Y1459230D01*
X482287D01*
X512758Y1474465D02*
Y1459230D01*
X522914D01*
X530532Y1469387D02*
X535610D01*
X538149Y1466848D01*
Y1459230D01*
X530532D01*
X527993Y1461769D01*
X530532Y1464308D01*
X538149D01*
X543228Y1469387D02*
Y1461769D01*
X545767Y1459230D01*
X553385D01*
Y1456691D01*
X550845Y1454152D01*
X548306D01*
X553385Y1459230D02*
Y1469387D01*
X566080Y1459230D02*
X561002D01*
X558463Y1461769D01*
Y1466848D01*
X561002Y1469387D01*
X566080D01*
X568620Y1466848D01*
Y1464308D01*
X558463D01*
X573698Y1469387D02*
Y1459230D01*
Y1464308D01*
X576237Y1466848D01*
X578776Y1469387D01*
X581315D01*
X604168Y1466848D02*
X614325D01*
X634638Y1474465D02*
Y1459230D01*
X642256D01*
X644795Y1461769D01*
Y1464308D01*
X642256Y1466848D01*
X634638D01*
X642256D01*
X644795Y1469387D01*
Y1471926D01*
X642256Y1474465D01*
X634638D01*
X652412Y1459230D02*
X657491D01*
X660030Y1461769D01*
Y1466848D01*
X657491Y1469387D01*
X652412D01*
X649873Y1466848D01*
Y1461769D01*
X652412Y1459230D01*
X667647Y1471926D02*
Y1469387D01*
X665108D01*
X670187D01*
X667647D01*
Y1461769D01*
X670187Y1459230D01*
X680343Y1471926D02*
Y1469387D01*
X677804D01*
X682883D01*
X680343D01*
Y1461769D01*
X682883Y1459230D01*
X693039D02*
X698118D01*
X700657Y1461769D01*
Y1466848D01*
X698118Y1469387D01*
X693039D01*
X690500Y1466848D01*
Y1461769D01*
X693039Y1459230D01*
X705735D02*
Y1469387D01*
X708274D01*
X710814Y1466848D01*
Y1459230D01*
Y1466848D01*
X713353Y1469387D01*
X715892Y1466848D01*
Y1459230D01*
X736205Y1474465D02*
Y1459230D01*
X746362D01*
X753980Y1469387D02*
X759058D01*
X761597Y1466848D01*
Y1459230D01*
X753980D01*
X751440Y1461769D01*
X753980Y1464308D01*
X761597D01*
X766675Y1469387D02*
Y1461769D01*
X769215Y1459230D01*
X776832D01*
Y1456691D01*
X774293Y1454152D01*
X771754D01*
X776832Y1459230D02*
Y1469387D01*
X789528Y1459230D02*
X784450D01*
X781911Y1461769D01*
Y1466848D01*
X784450Y1469387D01*
X789528D01*
X792067Y1466848D01*
Y1464308D01*
X781911D01*
X797146Y1469387D02*
Y1459230D01*
Y1464308D01*
X799685Y1466848D01*
X802224Y1469387D01*
X804763D01*
X451817Y1436365D02*
X461974D01*
X456896D01*
Y1421130D01*
X469592D02*
X474670D01*
X477209Y1423669D01*
Y1428748D01*
X474670Y1431287D01*
X469592D01*
X467052Y1428748D01*
Y1423669D01*
X469592Y1421130D01*
X482287Y1416052D02*
Y1431287D01*
X489905D01*
X492444Y1428748D01*
Y1423669D01*
X489905Y1421130D01*
X482287D01*
X512758Y1436365D02*
Y1421130D01*
X522914D01*
X530532Y1431287D02*
X535610D01*
X538149Y1428748D01*
Y1421130D01*
X530532D01*
X527993Y1423669D01*
X530532Y1426208D01*
X538149D01*
X543228Y1431287D02*
Y1423669D01*
X545767Y1421130D01*
X553385D01*
Y1418591D01*
X550845Y1416052D01*
X548306D01*
X553385Y1421130D02*
Y1431287D01*
X566080Y1421130D02*
X561002D01*
X558463Y1423669D01*
Y1428748D01*
X561002Y1431287D01*
X566080D01*
X568620Y1428748D01*
Y1426208D01*
X558463D01*
X573698Y1431287D02*
Y1421130D01*
Y1426208D01*
X576237Y1428748D01*
X578776Y1431287D01*
X581315D01*
X604168Y1428748D02*
X614325D01*
X634638Y1436365D02*
Y1421130D01*
X642256D01*
X644795Y1423669D01*
Y1426208D01*
X642256Y1428748D01*
X634638D01*
X642256D01*
X644795Y1431287D01*
Y1433826D01*
X642256Y1436365D01*
X634638D01*
X652412Y1421130D02*
X657491D01*
X660030Y1423669D01*
Y1428748D01*
X657491Y1431287D01*
X652412D01*
X649873Y1428748D01*
Y1423669D01*
X652412Y1421130D01*
X667647Y1433826D02*
Y1431287D01*
X665108D01*
X670187D01*
X667647D01*
Y1423669D01*
X670187Y1421130D01*
X680343Y1433826D02*
Y1431287D01*
X677804D01*
X682883D01*
X680343D01*
Y1423669D01*
X682883Y1421130D01*
X693039D02*
X698118D01*
X700657Y1423669D01*
Y1428748D01*
X698118Y1431287D01*
X693039D01*
X690500Y1428748D01*
Y1423669D01*
X693039Y1421130D01*
X705735D02*
Y1431287D01*
X708274D01*
X710814Y1428748D01*
Y1421130D01*
Y1428748D01*
X713353Y1431287D01*
X715892Y1428748D01*
Y1421130D01*
X736205Y1436365D02*
Y1421130D01*
X746362D01*
X753980Y1431287D02*
X759058D01*
X761597Y1428748D01*
Y1421130D01*
X753980D01*
X751440Y1423669D01*
X753980Y1426208D01*
X761597D01*
X766675Y1431287D02*
Y1423669D01*
X769215Y1421130D01*
X776832D01*
Y1418591D01*
X774293Y1416052D01*
X771754D01*
X776832Y1421130D02*
Y1431287D01*
X789528Y1421130D02*
X784450D01*
X781911Y1423669D01*
Y1428748D01*
X784450Y1431287D01*
X789528D01*
X792067Y1428748D01*
Y1426208D01*
X781911D01*
X797146Y1431287D02*
Y1421130D01*
Y1426208D01*
X799685Y1428748D01*
X802224Y1431287D01*
X804763D01*
X451817Y1398265D02*
X461974D01*
X456896D01*
Y1383030D01*
X469592D02*
X474670D01*
X477209Y1385569D01*
Y1390647D01*
X474670Y1393187D01*
X469592D01*
X467052Y1390647D01*
Y1385569D01*
X469592Y1383030D01*
X482287Y1377952D02*
Y1393187D01*
X489905D01*
X492444Y1390647D01*
Y1385569D01*
X489905Y1383030D01*
X482287D01*
X512758Y1398265D02*
Y1383030D01*
X522914D01*
X530532Y1393187D02*
X535610D01*
X538149Y1390647D01*
Y1383030D01*
X530532D01*
X527993Y1385569D01*
X530532Y1388108D01*
X538149D01*
X543228Y1393187D02*
Y1385569D01*
X545767Y1383030D01*
X553385D01*
Y1380491D01*
X550845Y1377952D01*
X548306D01*
X553385Y1383030D02*
Y1393187D01*
X566080Y1383030D02*
X561002D01*
X558463Y1385569D01*
Y1390647D01*
X561002Y1393187D01*
X566080D01*
X568620Y1390647D01*
Y1388108D01*
X558463D01*
X573698Y1393187D02*
Y1383030D01*
Y1388108D01*
X576237Y1390647D01*
X578776Y1393187D01*
X581315D01*
X604168Y1390647D02*
X614325D01*
X634638Y1398265D02*
Y1383030D01*
X642256D01*
X644795Y1385569D01*
Y1388108D01*
X642256Y1390647D01*
X634638D01*
X642256D01*
X644795Y1393187D01*
Y1395726D01*
X642256Y1398265D01*
X634638D01*
X652412Y1383030D02*
X657491D01*
X660030Y1385569D01*
Y1390647D01*
X657491Y1393187D01*
X652412D01*
X649873Y1390647D01*
Y1385569D01*
X652412Y1383030D01*
X667647Y1395726D02*
Y1393187D01*
X665108D01*
X670187D01*
X667647D01*
Y1385569D01*
X670187Y1383030D01*
X680343Y1395726D02*
Y1393187D01*
X677804D01*
X682883D01*
X680343D01*
Y1385569D01*
X682883Y1383030D01*
X693039D02*
X698118D01*
X700657Y1385569D01*
Y1390647D01*
X698118Y1393187D01*
X693039D01*
X690500Y1390647D01*
Y1385569D01*
X693039Y1383030D01*
X705735D02*
Y1393187D01*
X708274D01*
X710814Y1390647D01*
Y1383030D01*
Y1390647D01*
X713353Y1393187D01*
X715892Y1390647D01*
Y1383030D01*
X736205Y1398265D02*
Y1383030D01*
X746362D01*
X753980Y1393187D02*
X759058D01*
X761597Y1390647D01*
Y1383030D01*
X753980D01*
X751440Y1385569D01*
X753980Y1388108D01*
X761597D01*
X766675Y1393187D02*
Y1385569D01*
X769215Y1383030D01*
X776832D01*
Y1380491D01*
X774293Y1377952D01*
X771754D01*
X776832Y1383030D02*
Y1393187D01*
X789528Y1383030D02*
X784450D01*
X781911Y1385569D01*
Y1390647D01*
X784450Y1393187D01*
X789528D01*
X792067Y1390647D01*
Y1388108D01*
X781911D01*
X797146Y1393187D02*
Y1383030D01*
Y1388108D01*
X799685Y1390647D01*
X802224Y1393187D01*
X804763D01*
X451817Y1360165D02*
X461974D01*
X456896D01*
Y1344930D01*
X469592D02*
X474670D01*
X477209Y1347469D01*
Y1352547D01*
X474670Y1355087D01*
X469592D01*
X467052Y1352547D01*
Y1347469D01*
X469592Y1344930D01*
X482287Y1339852D02*
Y1355087D01*
X489905D01*
X492444Y1352547D01*
Y1347469D01*
X489905Y1344930D01*
X482287D01*
X512758Y1360165D02*
Y1344930D01*
X522914D01*
X530532Y1355087D02*
X535610D01*
X538149Y1352547D01*
Y1344930D01*
X530532D01*
X527993Y1347469D01*
X530532Y1350008D01*
X538149D01*
X543228Y1355087D02*
Y1347469D01*
X545767Y1344930D01*
X553385D01*
Y1342391D01*
X550845Y1339852D01*
X548306D01*
X553385Y1344930D02*
Y1355087D01*
X566080Y1344930D02*
X561002D01*
X558463Y1347469D01*
Y1352547D01*
X561002Y1355087D01*
X566080D01*
X568620Y1352547D01*
Y1350008D01*
X558463D01*
X573698Y1355087D02*
Y1344930D01*
Y1350008D01*
X576237Y1352547D01*
X578776Y1355087D01*
X581315D01*
X604168Y1352547D02*
X614325D01*
X634638Y1360165D02*
Y1344930D01*
X642256D01*
X644795Y1347469D01*
Y1350008D01*
X642256Y1352547D01*
X634638D01*
X642256D01*
X644795Y1355087D01*
Y1357626D01*
X642256Y1360165D01*
X634638D01*
X652412Y1344930D02*
X657491D01*
X660030Y1347469D01*
Y1352547D01*
X657491Y1355087D01*
X652412D01*
X649873Y1352547D01*
Y1347469D01*
X652412Y1344930D01*
X667647Y1357626D02*
Y1355087D01*
X665108D01*
X670187D01*
X667647D01*
Y1347469D01*
X670187Y1344930D01*
X680343Y1357626D02*
Y1355087D01*
X677804D01*
X682883D01*
X680343D01*
Y1347469D01*
X682883Y1344930D01*
X693039D02*
X698118D01*
X700657Y1347469D01*
Y1352547D01*
X698118Y1355087D01*
X693039D01*
X690500Y1352547D01*
Y1347469D01*
X693039Y1344930D01*
X705735D02*
Y1355087D01*
X708274D01*
X710814Y1352547D01*
Y1344930D01*
Y1352547D01*
X713353Y1355087D01*
X715892Y1352547D01*
Y1344930D01*
X736205Y1360165D02*
Y1344930D01*
X746362D01*
X753980Y1355087D02*
X759058D01*
X761597Y1352547D01*
Y1344930D01*
X753980D01*
X751440Y1347469D01*
X753980Y1350008D01*
X761597D01*
X766675Y1355087D02*
Y1347469D01*
X769215Y1344930D01*
X776832D01*
Y1342391D01*
X774293Y1339852D01*
X771754D01*
X776832Y1344930D02*
Y1355087D01*
X789528Y1344930D02*
X784450D01*
X781911Y1347469D01*
Y1352547D01*
X784450Y1355087D01*
X789528D01*
X792067Y1352547D01*
Y1350008D01*
X781911D01*
X797146Y1355087D02*
Y1344930D01*
Y1350008D01*
X799685Y1352547D01*
X802224Y1355087D01*
X804763D01*
X265432Y1573530D02*
Y1588765D01*
X273049D01*
X275588Y1586226D01*
Y1581147D01*
X273049Y1578608D01*
X265432D01*
X270510D02*
X275588Y1573530D01*
X283206D02*
X288284D01*
X290823Y1576069D01*
Y1581147D01*
X288284Y1583687D01*
X283206D01*
X280667Y1581147D01*
Y1576069D01*
X283206Y1573530D01*
X295902Y1583687D02*
Y1576069D01*
X298441Y1573530D01*
X306059D01*
Y1583687D01*
X311137Y1573530D02*
Y1583687D01*
X318754D01*
X321294Y1581147D01*
Y1573530D01*
X336529Y1588765D02*
Y1573530D01*
X328911D01*
X326372Y1576069D01*
Y1581147D01*
X328911Y1583687D01*
X336529D01*
X265432Y1535430D02*
Y1550665D01*
X273049D01*
X275588Y1548126D01*
Y1543047D01*
X273049Y1540508D01*
X265432D01*
X270510D02*
X275588Y1535430D01*
X283206D02*
X288284D01*
X290823Y1537969D01*
Y1543047D01*
X288284Y1545587D01*
X283206D01*
X280667Y1543047D01*
Y1537969D01*
X283206Y1535430D01*
X295902Y1545587D02*
Y1537969D01*
X298441Y1535430D01*
X306059D01*
Y1545587D01*
X311137Y1535430D02*
Y1545587D01*
X318754D01*
X321294Y1543047D01*
Y1535430D01*
X336529Y1550665D02*
Y1535430D01*
X328911D01*
X326372Y1537969D01*
Y1543047D01*
X328911Y1545587D01*
X336529D01*
X265432Y1497330D02*
Y1512565D01*
X273049D01*
X275588Y1510026D01*
Y1504948D01*
X273049Y1502408D01*
X265432D01*
X270510D02*
X275588Y1497330D01*
X283206D02*
X288284D01*
X290823Y1499869D01*
Y1504948D01*
X288284Y1507487D01*
X283206D01*
X280667Y1504948D01*
Y1499869D01*
X283206Y1497330D01*
X295902Y1507487D02*
Y1499869D01*
X298441Y1497330D01*
X306059D01*
Y1507487D01*
X311137Y1497330D02*
Y1507487D01*
X318754D01*
X321294Y1504948D01*
Y1497330D01*
X336529Y1512565D02*
Y1497330D01*
X328911D01*
X326372Y1499869D01*
Y1504948D01*
X328911Y1507487D01*
X336529D01*
X265432Y1459230D02*
Y1474465D01*
X273049D01*
X275588Y1471926D01*
Y1466848D01*
X273049Y1464308D01*
X265432D01*
X270510D02*
X275588Y1459230D01*
X283206D02*
X288284D01*
X290823Y1461769D01*
Y1466848D01*
X288284Y1469387D01*
X283206D01*
X280667Y1466848D01*
Y1461769D01*
X283206Y1459230D01*
X295902Y1469387D02*
Y1461769D01*
X298441Y1459230D01*
X306059D01*
Y1469387D01*
X311137Y1459230D02*
Y1469387D01*
X318754D01*
X321294Y1466848D01*
Y1459230D01*
X336529Y1474465D02*
Y1459230D01*
X328911D01*
X326372Y1461769D01*
Y1466848D01*
X328911Y1469387D01*
X336529D01*
X265432Y1421130D02*
Y1436365D01*
X273049D01*
X275588Y1433826D01*
Y1428748D01*
X273049Y1426208D01*
X265432D01*
X270510D02*
X275588Y1421130D01*
X283206D02*
X288284D01*
X290823Y1423669D01*
Y1428748D01*
X288284Y1431287D01*
X283206D01*
X280667Y1428748D01*
Y1423669D01*
X283206Y1421130D01*
X295902Y1431287D02*
Y1423669D01*
X298441Y1421130D01*
X306059D01*
Y1431287D01*
X311137Y1421130D02*
Y1431287D01*
X318754D01*
X321294Y1428748D01*
Y1421130D01*
X336529Y1436365D02*
Y1421130D01*
X328911D01*
X326372Y1423669D01*
Y1428748D01*
X328911Y1431287D01*
X336529D01*
X265432Y1383030D02*
Y1398265D01*
X273049D01*
X275588Y1395726D01*
Y1390647D01*
X273049Y1388108D01*
X265432D01*
X270510D02*
X275588Y1383030D01*
X283206D02*
X288284D01*
X290823Y1385569D01*
Y1390647D01*
X288284Y1393187D01*
X283206D01*
X280667Y1390647D01*
Y1385569D01*
X283206Y1383030D01*
X295902Y1393187D02*
Y1385569D01*
X298441Y1383030D01*
X306059D01*
Y1393187D01*
X311137Y1383030D02*
Y1393187D01*
X318754D01*
X321294Y1390647D01*
Y1383030D01*
X336529Y1398265D02*
Y1383030D01*
X328911D01*
X326372Y1385569D01*
Y1390647D01*
X328911Y1393187D01*
X336529D01*
X265432Y1344930D02*
Y1360165D01*
X273049D01*
X275588Y1357626D01*
Y1352547D01*
X273049Y1350008D01*
X265432D01*
X270510D02*
X275588Y1344930D01*
X283206D02*
X288284D01*
X290823Y1347469D01*
Y1352547D01*
X288284Y1355087D01*
X283206D01*
X280667Y1352547D01*
Y1347469D01*
X283206Y1344930D01*
X295902Y1355087D02*
Y1347469D01*
X298441Y1344930D01*
X306059D01*
Y1355087D01*
X311137Y1344930D02*
Y1355087D01*
X318754D01*
X321294Y1352547D01*
Y1344930D01*
X336529Y1360165D02*
Y1344930D01*
X328911D01*
X326372Y1347469D01*
Y1352547D01*
X328911Y1355087D01*
X336529D01*
X136939Y1573530D02*
Y1588765D01*
X144557D01*
X147096Y1586226D01*
Y1581147D01*
X144557Y1578608D01*
X136939D01*
X152174Y1588765D02*
X162331D01*
X157253D01*
Y1573530D01*
X167409Y1588765D02*
Y1573530D01*
Y1581147D01*
X177566D01*
Y1588765D01*
Y1573530D01*
X136939Y1535430D02*
Y1550665D01*
X144557D01*
X147096Y1548126D01*
Y1543047D01*
X144557Y1540508D01*
X136939D01*
X152174Y1550665D02*
X162331D01*
X157253D01*
Y1535430D01*
X167409Y1550665D02*
Y1535430D01*
Y1543047D01*
X177566D01*
Y1550665D01*
Y1535430D01*
X136939Y1497330D02*
Y1512565D01*
X144557D01*
X147096Y1510026D01*
Y1504948D01*
X144557Y1502408D01*
X136939D01*
X152174Y1512565D02*
X162331D01*
X157253D01*
Y1497330D01*
X167409Y1512565D02*
Y1497330D01*
Y1504948D01*
X177566D01*
Y1512565D01*
Y1497330D01*
X136939Y1459230D02*
Y1474465D01*
X144557D01*
X147096Y1471926D01*
Y1466848D01*
X144557Y1464308D01*
X136939D01*
X152174Y1474465D02*
X162331D01*
X157253D01*
Y1459230D01*
X167409Y1474465D02*
Y1459230D01*
Y1466848D01*
X177566D01*
Y1474465D01*
Y1459230D01*
X136939Y1421130D02*
Y1436365D01*
X144557D01*
X147096Y1433826D01*
Y1428748D01*
X144557Y1426208D01*
X136939D01*
X152174Y1436365D02*
X162331D01*
X157253D01*
Y1421130D01*
X167409Y1436365D02*
Y1421130D01*
Y1428748D01*
X177566D01*
Y1436365D01*
Y1421130D01*
X136939Y1383030D02*
Y1398265D01*
X144557D01*
X147096Y1395726D01*
Y1390647D01*
X144557Y1388108D01*
X136939D01*
X152174Y1398265D02*
X162331D01*
X157253D01*
Y1383030D01*
X167409Y1398265D02*
Y1383030D01*
Y1390647D01*
X177566D01*
Y1398265D01*
Y1383030D01*
X136939Y1344930D02*
Y1360165D01*
X144557D01*
X147096Y1357626D01*
Y1352547D01*
X144557Y1350008D01*
X136939D01*
X152174Y1360165D02*
X162331D01*
X157253D01*
Y1344930D01*
X167409Y1360165D02*
Y1344930D01*
Y1352547D01*
X177566D01*
Y1360165D01*
Y1344930D01*
X-147458Y1586226D02*
X-144919Y1588765D01*
X-139840D01*
X-137301Y1586226D01*
Y1583687D01*
X-139840Y1581147D01*
X-142379D01*
X-139840D01*
X-137301Y1578608D01*
Y1576069D01*
X-139840Y1573530D01*
X-144919D01*
X-147458Y1576069D01*
X-132223Y1573530D02*
Y1576069D01*
X-129684D01*
Y1573530D01*
X-132223D01*
X-119527Y1586226D02*
X-116988Y1588765D01*
X-111909D01*
X-109370Y1586226D01*
Y1576069D01*
X-111909Y1573530D01*
X-116988D01*
X-119527Y1576069D01*
Y1586226D01*
X-104292D02*
X-101753Y1588765D01*
X-96674D01*
X-94135Y1586226D01*
Y1576069D01*
X-96674Y1573530D01*
X-101753D01*
X-104292Y1576069D01*
Y1586226D01*
X-89057D02*
X-86517Y1588765D01*
X-81439D01*
X-78900Y1586226D01*
Y1576069D01*
X-81439Y1573530D01*
X-86517D01*
X-89057Y1576069D01*
Y1586226D01*
X-73822Y1573530D02*
Y1583687D01*
X-71282D01*
X-68743Y1581147D01*
Y1573530D01*
Y1581147D01*
X-66204Y1583687D01*
X-63665Y1581147D01*
Y1573530D01*
X-58587D02*
Y1583687D01*
X-56047D01*
X-53508Y1581147D01*
Y1573530D01*
Y1581147D01*
X-50969Y1583687D01*
X-48430Y1581147D01*
Y1573530D01*
X-23038D02*
X-28116Y1578608D01*
Y1583687D01*
X-23038Y1588765D01*
X-15421Y1573530D02*
X-10342D01*
X-12881D01*
Y1588765D01*
X-15421Y1586226D01*
X-2725Y1573530D02*
X2354D01*
X-185D01*
Y1588765D01*
X-2725Y1586226D01*
X9971D02*
X12510Y1588765D01*
X17589D01*
X20128Y1586226D01*
Y1583687D01*
X17589Y1581147D01*
X20128Y1578608D01*
Y1576069D01*
X17589Y1573530D01*
X12510D01*
X9971Y1576069D01*
Y1578608D01*
X12510Y1581147D01*
X9971Y1583687D01*
Y1586226D01*
X12510Y1581147D02*
X17589D01*
X25206Y1573530D02*
Y1576069D01*
X27745D01*
Y1573530D01*
X25206D01*
X37902D02*
X42981D01*
X40441D01*
Y1588765D01*
X37902Y1586226D01*
X50598Y1573530D02*
X55676D01*
X53137D01*
Y1588765D01*
X50598Y1586226D01*
X63294Y1573530D02*
Y1583687D01*
X65833D01*
X68372Y1581147D01*
Y1573530D01*
Y1581147D01*
X70911Y1583687D01*
X73451Y1581147D01*
Y1573530D01*
X78529D02*
X83607D01*
X81068D01*
Y1583687D01*
X78529D01*
X91225Y1573530D02*
X96303D01*
X93764D01*
Y1588765D01*
X91225D01*
X103921Y1573530D02*
X108999Y1578608D01*
Y1583687D01*
X103921Y1588765D01*
X-147458Y1548126D02*
X-144919Y1550665D01*
X-139840D01*
X-137301Y1548126D01*
Y1537969D01*
X-139840Y1535430D01*
X-144919D01*
X-147458Y1537969D01*
Y1548126D01*
X-132223Y1535430D02*
Y1537969D01*
X-129684D01*
Y1535430D01*
X-132223D01*
X-119527Y1537969D02*
X-116988Y1535430D01*
X-111909D01*
X-109370Y1537969D01*
Y1548126D01*
X-111909Y1550665D01*
X-116988D01*
X-119527Y1548126D01*
Y1545587D01*
X-116988Y1543047D01*
X-109370D01*
X-104292Y1548126D02*
X-101753Y1550665D01*
X-96674D01*
X-94135Y1548126D01*
Y1537969D01*
X-96674Y1535430D01*
X-101753D01*
X-104292Y1537969D01*
Y1548126D01*
X-89057D02*
X-86517Y1550665D01*
X-81439D01*
X-78900Y1548126D01*
Y1537969D01*
X-81439Y1535430D01*
X-86517D01*
X-89057Y1537969D01*
Y1548126D01*
X-73822Y1535430D02*
Y1545587D01*
X-71282D01*
X-68743Y1543047D01*
Y1535430D01*
Y1543047D01*
X-66204Y1545587D01*
X-63665Y1543047D01*
Y1535430D01*
X-58587D02*
Y1545587D01*
X-56047D01*
X-53508Y1543047D01*
Y1535430D01*
Y1543047D01*
X-50969Y1545587D01*
X-48430Y1543047D01*
Y1535430D01*
X-23038D02*
X-28116Y1540508D01*
Y1545587D01*
X-23038Y1550665D01*
X-15421Y1548126D02*
X-12881Y1550665D01*
X-7803D01*
X-5264Y1548126D01*
Y1545587D01*
X-7803Y1543047D01*
X-10342D01*
X-7803D01*
X-5264Y1540508D01*
Y1537969D01*
X-7803Y1535430D01*
X-12881D01*
X-15421Y1537969D01*
X9971Y1550665D02*
X-185D01*
Y1543047D01*
X4893Y1545587D01*
X7432D01*
X9971Y1543047D01*
Y1537969D01*
X7432Y1535430D01*
X2354D01*
X-185Y1537969D01*
X15050Y1535430D02*
Y1537969D01*
X17589D01*
Y1535430D01*
X15050D01*
X35363D02*
Y1550665D01*
X27745Y1543047D01*
X37902D01*
X42981Y1548126D02*
X45520Y1550665D01*
X50598D01*
X53137Y1548126D01*
Y1545587D01*
X50598Y1543047D01*
X48059D01*
X50598D01*
X53137Y1540508D01*
Y1537969D01*
X50598Y1535430D01*
X45520D01*
X42981Y1537969D01*
X58216Y1535430D02*
Y1545587D01*
X60755D01*
X63294Y1543047D01*
Y1535430D01*
Y1543047D01*
X65833Y1545587D01*
X68372Y1543047D01*
Y1535430D01*
X73451D02*
X78529D01*
X75990D01*
Y1545587D01*
X73451D01*
X86147Y1535430D02*
X91225D01*
X88686D01*
Y1550665D01*
X86147D01*
X98842Y1535430D02*
X103921Y1540508D01*
Y1545587D01*
X98842Y1550665D01*
X-147458Y1510026D02*
X-144919Y1512565D01*
X-139840D01*
X-137301Y1510026D01*
Y1499869D01*
X-139840Y1497330D01*
X-144919D01*
X-147458Y1499869D01*
Y1510026D01*
X-132223Y1497330D02*
Y1499869D01*
X-129684D01*
Y1497330D01*
X-132223D01*
X-119527Y1512565D02*
X-109370D01*
Y1510026D01*
X-119527Y1499869D01*
Y1497330D01*
X-104292Y1510026D02*
X-101753Y1512565D01*
X-96674D01*
X-94135Y1510026D01*
Y1499869D01*
X-96674Y1497330D01*
X-101753D01*
X-104292Y1499869D01*
Y1510026D01*
X-89057D02*
X-86517Y1512565D01*
X-81439D01*
X-78900Y1510026D01*
Y1499869D01*
X-81439Y1497330D01*
X-86517D01*
X-89057Y1499869D01*
Y1510026D01*
X-73822Y1497330D02*
Y1507487D01*
X-71282D01*
X-68743Y1504948D01*
Y1497330D01*
Y1504948D01*
X-66204Y1507487D01*
X-63665Y1504948D01*
Y1497330D01*
X-58587D02*
Y1507487D01*
X-56047D01*
X-53508Y1504948D01*
Y1497330D01*
Y1504948D01*
X-50969Y1507487D01*
X-48430Y1504948D01*
Y1497330D01*
X-23038D02*
X-28116Y1502408D01*
Y1507487D01*
X-23038Y1512565D01*
X-5264Y1497330D02*
X-15421D01*
X-5264Y1507487D01*
Y1510026D01*
X-7803Y1512565D01*
X-12881D01*
X-15421Y1510026D01*
X-185Y1512565D02*
X9971D01*
Y1510026D01*
X-185Y1499869D01*
Y1497330D01*
X15050D02*
Y1499869D01*
X17589D01*
Y1497330D01*
X15050D01*
X37902Y1512565D02*
X27745D01*
Y1504948D01*
X32824Y1507487D01*
X35363D01*
X37902Y1504948D01*
Y1499869D01*
X35363Y1497330D01*
X30285D01*
X27745Y1499869D01*
X53137Y1512565D02*
X48059Y1510026D01*
X42981Y1504948D01*
Y1499869D01*
X45520Y1497330D01*
X50598D01*
X53137Y1499869D01*
Y1502408D01*
X50598Y1504948D01*
X42981D01*
X58216Y1497330D02*
Y1507487D01*
X60755D01*
X63294Y1504948D01*
Y1497330D01*
Y1504948D01*
X65833Y1507487D01*
X68372Y1504948D01*
Y1497330D01*
X73451D02*
X78529D01*
X75990D01*
Y1507487D01*
X73451D01*
X86147Y1497330D02*
X91225D01*
X88686D01*
Y1512565D01*
X86147D01*
X98842Y1497330D02*
X103921Y1502408D01*
Y1507487D01*
X98842Y1512565D01*
X-147458Y1459230D02*
X-142379D01*
X-144919D01*
Y1474465D01*
X-147458Y1471926D01*
X-134762Y1459230D02*
Y1461769D01*
X-132223D01*
Y1459230D01*
X-134762D01*
X-111909D02*
X-122066D01*
X-111909Y1469387D01*
Y1471926D01*
X-114448Y1474465D01*
X-119527D01*
X-122066Y1471926D01*
X-106831Y1461769D02*
X-104292Y1459230D01*
X-99213D01*
X-96674Y1461769D01*
Y1471926D01*
X-99213Y1474465D01*
X-104292D01*
X-106831Y1471926D01*
Y1469387D01*
X-104292Y1466848D01*
X-96674D01*
X-81439Y1474465D02*
X-91596D01*
Y1466848D01*
X-86517Y1469387D01*
X-83978D01*
X-81439Y1466848D01*
Y1461769D01*
X-83978Y1459230D01*
X-89057D01*
X-91596Y1461769D01*
X-76361Y1459230D02*
Y1469387D01*
X-73822D01*
X-71283Y1466848D01*
Y1459230D01*
Y1466848D01*
X-68743Y1469387D01*
X-66204Y1466848D01*
Y1459230D01*
X-61126D02*
Y1469387D01*
X-58587D01*
X-56047Y1466848D01*
Y1459230D01*
Y1466848D01*
X-53508Y1469387D01*
X-50969Y1466848D01*
Y1459230D01*
X-25577D02*
X-30656Y1464308D01*
Y1469387D01*
X-25577Y1474465D01*
X-7803D02*
X-17960D01*
Y1466848D01*
X-12881Y1469387D01*
X-10342D01*
X-7803Y1466848D01*
Y1461769D01*
X-10342Y1459230D01*
X-15421D01*
X-17960Y1461769D01*
X-2725Y1459230D02*
X2354D01*
X-185D01*
Y1474465D01*
X-2725Y1471926D01*
X9971Y1459230D02*
Y1461769D01*
X12510D01*
Y1459230D01*
X9971D01*
X22667Y1471926D02*
X25206Y1474465D01*
X30285D01*
X32824Y1471926D01*
Y1461769D01*
X30285Y1459230D01*
X25206D01*
X22667Y1461769D01*
Y1471926D01*
X37902D02*
X40441Y1474465D01*
X45520D01*
X48059Y1471926D01*
Y1461769D01*
X45520Y1459230D01*
X40441D01*
X37902Y1461769D01*
Y1471926D01*
X53137Y1459230D02*
Y1469387D01*
X55676D01*
X58216Y1466848D01*
Y1459230D01*
Y1466848D01*
X60755Y1469387D01*
X63294Y1466848D01*
Y1459230D01*
X68372D02*
X73451D01*
X70911D01*
Y1469387D01*
X68372D01*
X81068Y1459230D02*
X86147D01*
X83607D01*
Y1474465D01*
X81068D01*
X93764Y1459230D02*
X98842Y1464308D01*
Y1469387D01*
X93764Y1474465D01*
X-147458Y1421130D02*
X-142379D01*
X-144919D01*
Y1436365D01*
X-147458Y1433826D01*
X-134762Y1421130D02*
Y1423669D01*
X-132223D01*
Y1421130D01*
X-134762D01*
X-122066Y1433826D02*
X-119527Y1436365D01*
X-114448D01*
X-111909Y1433826D01*
Y1431287D01*
X-114448Y1428748D01*
X-116988D01*
X-114448D01*
X-111909Y1426208D01*
Y1423669D01*
X-114448Y1421130D01*
X-119527D01*
X-122066Y1423669D01*
X-106831Y1433826D02*
X-104292Y1436365D01*
X-99213D01*
X-96674Y1433826D01*
Y1423669D01*
X-99213Y1421130D01*
X-104292D01*
X-106831Y1423669D01*
Y1433826D01*
X-91596D02*
X-89057Y1436365D01*
X-83978D01*
X-81439Y1433826D01*
Y1423669D01*
X-83978Y1421130D01*
X-89057D01*
X-91596Y1423669D01*
Y1433826D01*
X-76361Y1421130D02*
Y1431287D01*
X-73822D01*
X-71283Y1428748D01*
Y1421130D01*
Y1428748D01*
X-68743Y1431287D01*
X-66204Y1428748D01*
Y1421130D01*
X-61126D02*
Y1431287D01*
X-58587D01*
X-56047Y1428748D01*
Y1421130D01*
Y1428748D01*
X-53508Y1431287D01*
X-50969Y1428748D01*
Y1421130D01*
X-25577D02*
X-30656Y1426208D01*
Y1431287D01*
X-25577Y1436365D01*
X-7803D02*
X-17960D01*
Y1428748D01*
X-12881Y1431287D01*
X-10342D01*
X-7803Y1428748D01*
Y1423669D01*
X-10342Y1421130D01*
X-15421D01*
X-17960Y1423669D01*
X-2725Y1421130D02*
X2354D01*
X-185D01*
Y1436365D01*
X-2725Y1433826D01*
X9971Y1421130D02*
Y1423669D01*
X12510D01*
Y1421130D01*
X9971D01*
X22667D02*
X27745D01*
X25206D01*
Y1436365D01*
X22667Y1433826D01*
X35363D02*
X37902Y1436365D01*
X42981D01*
X45520Y1433826D01*
Y1431287D01*
X42981Y1428748D01*
X45520Y1426208D01*
Y1423669D01*
X42981Y1421130D01*
X37902D01*
X35363Y1423669D01*
Y1426208D01*
X37902Y1428748D01*
X35363Y1431287D01*
Y1433826D01*
X37902Y1428748D02*
X42981D01*
X50598Y1421130D02*
Y1431287D01*
X53137D01*
X55676Y1428748D01*
Y1421130D01*
Y1428748D01*
X58216Y1431287D01*
X60755Y1428748D01*
Y1421130D01*
X65833D02*
X70911D01*
X68372D01*
Y1431287D01*
X65833D01*
X78529Y1421130D02*
X83607D01*
X81068D01*
Y1436365D01*
X78529D01*
X91225Y1421130D02*
X96303Y1426208D01*
Y1431287D01*
X91225Y1436365D01*
X-147458Y1395726D02*
X-144919Y1398265D01*
X-139840D01*
X-137301Y1395726D01*
Y1385569D01*
X-139840Y1383030D01*
X-144919D01*
X-147458Y1385569D01*
Y1395726D01*
X-132223Y1383030D02*
Y1385569D01*
X-129684D01*
Y1383030D01*
X-132223D01*
X-109370D02*
X-119527D01*
X-109370Y1393187D01*
Y1395726D01*
X-111909Y1398265D01*
X-116988D01*
X-119527Y1395726D01*
X-104292D02*
X-101753Y1398265D01*
X-96674D01*
X-94135Y1395726D01*
Y1385569D01*
X-96674Y1383030D01*
X-101753D01*
X-104292Y1385569D01*
Y1395726D01*
X-89057D02*
X-86517Y1398265D01*
X-81439D01*
X-78900Y1395726D01*
Y1385569D01*
X-81439Y1383030D01*
X-86517D01*
X-89057Y1385569D01*
Y1395726D01*
X-73822Y1383030D02*
Y1393187D01*
X-71282D01*
X-68743Y1390647D01*
Y1383030D01*
Y1390647D01*
X-66204Y1393187D01*
X-63665Y1390647D01*
Y1383030D01*
X-58587D02*
Y1393187D01*
X-56047D01*
X-53508Y1390647D01*
Y1383030D01*
Y1390647D01*
X-50969Y1393187D01*
X-48430Y1390647D01*
Y1383030D01*
X-23038D02*
X-28116Y1388108D01*
Y1393187D01*
X-23038Y1398265D01*
X-15421D02*
X-5264D01*
Y1395726D01*
X-15421Y1385569D01*
Y1383030D01*
X-185D02*
Y1385569D01*
X2354D01*
Y1383030D01*
X-185D01*
X12510Y1395726D02*
X15050Y1398265D01*
X20128D01*
X22667Y1395726D01*
Y1393187D01*
X20128Y1390647D01*
X22667Y1388108D01*
Y1385569D01*
X20128Y1383030D01*
X15050D01*
X12510Y1385569D01*
Y1388108D01*
X15050Y1390647D01*
X12510Y1393187D01*
Y1395726D01*
X15050Y1390647D02*
X20128D01*
X27745Y1398265D02*
X37902D01*
Y1395726D01*
X27745Y1385569D01*
Y1383030D01*
X42981D02*
Y1393187D01*
X45520D01*
X48059Y1390647D01*
Y1383030D01*
Y1390647D01*
X50598Y1393187D01*
X53137Y1390647D01*
Y1383030D01*
X58216D02*
X63294D01*
X60755D01*
Y1393187D01*
X58216D01*
X70911Y1383030D02*
X75990D01*
X73451D01*
Y1398265D01*
X70911D01*
X83607Y1383030D02*
X88686Y1388108D01*
Y1393187D01*
X83607Y1398265D01*
X-147458Y1357626D02*
X-144919Y1360165D01*
X-139840D01*
X-137301Y1357626D01*
Y1347469D01*
X-139840Y1344930D01*
X-144919D01*
X-147458Y1347469D01*
Y1357626D01*
X-132223Y1344930D02*
Y1347469D01*
X-129684D01*
Y1344930D01*
X-132223D01*
X-119527Y1360165D02*
X-109370D01*
Y1357626D01*
X-119527Y1347469D01*
Y1344930D01*
X-104292D02*
X-99213D01*
X-101753D01*
Y1360165D01*
X-104292Y1357626D01*
X-91596Y1344930D02*
X-86517D01*
X-89057D01*
Y1360165D01*
X-91596Y1357626D01*
X-78900Y1344930D02*
Y1355087D01*
X-76361D01*
X-73822Y1352547D01*
Y1344930D01*
Y1352547D01*
X-71283Y1355087D01*
X-68743Y1352547D01*
Y1344930D01*
X-63665D02*
Y1355087D01*
X-61126D01*
X-58587Y1352547D01*
Y1344930D01*
Y1352547D01*
X-56047Y1355087D01*
X-53508Y1352547D01*
Y1344930D01*
X-28116D02*
X-33195Y1350008D01*
Y1355087D01*
X-28116Y1360165D01*
X-10342Y1344930D02*
X-20499D01*
X-10342Y1355087D01*
Y1357626D01*
X-12881Y1360165D01*
X-17960D01*
X-20499Y1357626D01*
X-5264D02*
X-2725Y1360165D01*
X2354D01*
X4893Y1357626D01*
Y1355087D01*
X2354Y1352547D01*
X4893Y1350008D01*
Y1347469D01*
X2354Y1344930D01*
X-2725D01*
X-5264Y1347469D01*
Y1350008D01*
X-2725Y1352547D01*
X-5264Y1355087D01*
Y1357626D01*
X-2725Y1352547D02*
X2354D01*
X9971Y1344930D02*
Y1347469D01*
X12510D01*
Y1344930D01*
X9971D01*
X22667Y1357626D02*
X25206Y1360165D01*
X30285D01*
X32824Y1357626D01*
Y1347469D01*
X30285Y1344930D01*
X25206D01*
X22667Y1347469D01*
Y1357626D01*
X37902D02*
X40441Y1360165D01*
X45520D01*
X48059Y1357626D01*
Y1347469D01*
X45520Y1344930D01*
X40441D01*
X37902Y1347469D01*
Y1357626D01*
X53137Y1344930D02*
Y1355087D01*
X55676D01*
X58216Y1352547D01*
Y1344930D01*
Y1352547D01*
X60755Y1355087D01*
X63294Y1352547D01*
Y1344930D01*
X68372D02*
X73451D01*
X70911D01*
Y1355087D01*
X68372D01*
X81068Y1344930D02*
X86147D01*
X83607D01*
Y1360165D01*
X81068D01*
X93764Y1344930D02*
X98842Y1350008D01*
Y1355087D01*
X93764Y1360165D01*
X-274426Y1322065D02*
X-279504Y1319526D01*
X-284583Y1314447D01*
Y1309369D01*
X-282043Y1306830D01*
X-276965D01*
X-274426Y1309369D01*
Y1311908D01*
X-276965Y1314447D01*
X-284583D01*
X-269347Y1319526D02*
X-266808Y1322065D01*
X-261730D01*
X-259191Y1319526D01*
Y1309369D01*
X-261730Y1306830D01*
X-266808D01*
X-269347Y1309369D01*
Y1319526D01*
X-238877Y1322065D02*
X-228720D01*
X-233799D01*
Y1306830D01*
X-221103D02*
X-216025D01*
X-213486Y1309369D01*
Y1314447D01*
X-216025Y1316987D01*
X-221103D01*
X-223642Y1314447D01*
Y1309369D01*
X-221103Y1306830D01*
X-205868Y1319526D02*
Y1316987D01*
X-208407D01*
X-203329D01*
X-205868D01*
Y1309369D01*
X-203329Y1306830D01*
X-193172Y1316987D02*
X-188094D01*
X-185555Y1314447D01*
Y1306830D01*
X-193172D01*
X-195711Y1309369D01*
X-193172Y1311908D01*
X-185555D01*
X-180476Y1306830D02*
X-175398D01*
X-177937D01*
Y1322065D01*
X-180476D01*
X-284583Y1586226D02*
X-282043Y1588765D01*
X-276965D01*
X-274426Y1586226D01*
Y1583687D01*
X-276965Y1581147D01*
X-279504D01*
X-276965D01*
X-274426Y1578608D01*
Y1576069D01*
X-276965Y1573530D01*
X-282043D01*
X-284583Y1576069D01*
X-276965Y1535430D02*
Y1550665D01*
X-284583Y1543047D01*
X-274426D01*
Y1512565D02*
X-279504Y1510026D01*
X-284583Y1504948D01*
Y1499869D01*
X-282043Y1497330D01*
X-276965D01*
X-274426Y1499869D01*
Y1502408D01*
X-276965Y1504948D01*
X-284583D01*
X-274426Y1474465D02*
X-279504Y1471926D01*
X-284583Y1466848D01*
Y1461769D01*
X-282043Y1459230D01*
X-276965D01*
X-274426Y1461769D01*
Y1464308D01*
X-276965Y1466848D01*
X-284583D01*
Y1436365D02*
X-274426D01*
Y1433826D01*
X-284583Y1423669D01*
Y1421130D01*
Y1383030D02*
X-279504D01*
X-282043D01*
Y1398265D01*
X-284583Y1395726D01*
X-261730Y1383030D02*
X-271887D01*
X-261730Y1393187D01*
Y1395726D01*
X-264269Y1398265D01*
X-269347D01*
X-271887Y1395726D01*
X-274426Y1344930D02*
X-284583D01*
X-274426Y1355087D01*
Y1357626D01*
X-276965Y1360165D01*
X-282043D01*
X-284583Y1357626D01*
X-259191Y1344930D02*
X-269347D01*
X-259191Y1355087D01*
Y1357626D01*
X-261730Y1360165D01*
X-266808D01*
X-269347Y1357626D01*
D62*
X-435935Y1600200D02*
X1375101D01*
X-435935Y1333500D02*
X1375101D01*
X-435935Y1295400D02*
X1375101D01*
Y1638300D01*
X-435935D02*
X1375101D01*
X-435935Y1295400D02*
Y1638300D01*
X1160527Y1295400D02*
Y1638300D01*
X971095Y1295400D02*
Y1638300D01*
X821273Y1295400D02*
Y1638300D01*
X440387Y1295400D02*
Y1638300D01*
X254002Y1295400D02*
Y1638300D01*
X125509Y1295400D02*
Y1638300D01*
X-158888Y1295400D02*
Y1638300D01*
X-296012Y1295400D02*
Y1638300D01*
D66*
X1171957Y1629912D02*
X1184146D01*
X1178051D01*
Y1611630D01*
X1199381D02*
X1193287D01*
X1190239Y1614677D01*
Y1620771D01*
X1193287Y1623818D01*
X1199381D01*
X1202428Y1620771D01*
Y1617724D01*
X1190239D01*
X1208522Y1611630D02*
Y1623818D01*
X1211569D01*
X1214616Y1620771D01*
Y1611630D01*
Y1620771D01*
X1217663Y1623818D01*
X1220710Y1620771D01*
Y1611630D01*
X1226804Y1605536D02*
Y1623818D01*
X1235945D01*
X1238992Y1620771D01*
Y1614677D01*
X1235945Y1611630D01*
X1226804D01*
X1245086D02*
X1251180D01*
X1248133D01*
Y1629912D01*
X1245086D01*
X1263368Y1623818D02*
X1269462D01*
X1272509Y1620771D01*
Y1611630D01*
X1263368D01*
X1260321Y1614677D01*
X1263368Y1617724D01*
X1272509D01*
X1281650Y1626865D02*
Y1623818D01*
X1278603D01*
X1284697D01*
X1281650D01*
Y1614677D01*
X1284697Y1611630D01*
X1302979D02*
X1296885D01*
X1293838Y1614677D01*
Y1620771D01*
X1296885Y1623818D01*
X1302979D01*
X1306026Y1620771D01*
Y1617724D01*
X1293838D01*
X982525Y1611630D02*
Y1629912D01*
X991666D01*
X994713Y1626865D01*
Y1620771D01*
X991666Y1617724D01*
X982525D01*
X1003854Y1623818D02*
X1009948D01*
X1012995Y1620771D01*
Y1611630D01*
X1003854D01*
X1000807Y1614677D01*
X1003854Y1617724D01*
X1012995D01*
X1031277Y1629912D02*
Y1611630D01*
X1022136D01*
X1019089Y1614677D01*
Y1620771D01*
X1022136Y1623818D01*
X1031277D01*
X1067841Y1626865D02*
X1064794Y1629912D01*
X1058700D01*
X1055653Y1626865D01*
Y1623818D01*
X1058700Y1620771D01*
X1064794D01*
X1067841Y1617724D01*
Y1614677D01*
X1064794Y1611630D01*
X1058700D01*
X1055653Y1614677D01*
X1073935Y1629912D02*
Y1611630D01*
Y1620771D01*
X1076982Y1623818D01*
X1083076D01*
X1086123Y1620771D01*
Y1611630D01*
X1095264Y1623818D02*
X1101358D01*
X1104405Y1620771D01*
Y1611630D01*
X1095264D01*
X1092217Y1614677D01*
X1095264Y1617724D01*
X1104405D01*
X1110499Y1605536D02*
Y1623818D01*
X1119640D01*
X1122687Y1620771D01*
Y1614677D01*
X1119640Y1611630D01*
X1110499D01*
X1137922D02*
X1131828D01*
X1128781Y1614677D01*
Y1620771D01*
X1131828Y1623818D01*
X1137922D01*
X1140969Y1620771D01*
Y1617724D01*
X1128781D01*
X832703Y1629912D02*
Y1617724D01*
X838797Y1611630D01*
X844891Y1617724D01*
Y1629912D01*
X850985Y1611630D02*
X857079D01*
X854032D01*
Y1623818D01*
X850985D01*
X869267D02*
X875361D01*
X878408Y1620771D01*
Y1611630D01*
X869267D01*
X866220Y1614677D01*
X869267Y1617724D01*
X878408D01*
X884502Y1611630D02*
X896691Y1623818D01*
X902785Y1611630D02*
Y1629912D01*
X911926D01*
X914973Y1626865D01*
Y1620771D01*
X911926Y1617724D01*
X902785D01*
X924114Y1623818D02*
X930208D01*
X933255Y1620771D01*
Y1611630D01*
X924114D01*
X921067Y1614677D01*
X924114Y1617724D01*
X933255D01*
X951537Y1629912D02*
Y1611630D01*
X942396D01*
X939349Y1614677D01*
Y1620771D01*
X942396Y1623818D01*
X951537D01*
X451817Y1629912D02*
Y1611630D01*
X460958D01*
X464005Y1614677D01*
Y1626865D01*
X460958Y1629912D01*
X451817D01*
X470099Y1623818D02*
Y1611630D01*
Y1617724D01*
X473146Y1620771D01*
X476193Y1623818D01*
X479240D01*
X488382Y1611630D02*
X494476D01*
X491428D01*
Y1623818D01*
X488382D01*
X503617Y1611630D02*
X509711D01*
X506664D01*
Y1629912D01*
X503617D01*
X518852Y1611630D02*
X524946D01*
X521899D01*
Y1629912D01*
X518852D01*
X552369D02*
Y1611630D01*
X564557D01*
X573698Y1623818D02*
X579792D01*
X582839Y1620771D01*
Y1611630D01*
X573698D01*
X570651Y1614677D01*
X573698Y1617724D01*
X582839D01*
X588933Y1623818D02*
Y1614677D01*
X591980Y1611630D01*
X601121D01*
Y1608583D01*
X598074Y1605536D01*
X595027D01*
X601121Y1611630D02*
Y1623818D01*
X616356Y1611630D02*
X610262D01*
X607215Y1614677D01*
Y1620771D01*
X610262Y1623818D01*
X616356D01*
X619403Y1620771D01*
Y1617724D01*
X607215D01*
X625497Y1623818D02*
Y1611630D01*
Y1617724D01*
X628544Y1620771D01*
X631591Y1623818D01*
X634638D01*
X662061Y1611630D02*
Y1629912D01*
X671202D01*
X674249Y1626865D01*
Y1620771D01*
X671202Y1617724D01*
X662061D01*
X683390Y1623818D02*
X689484D01*
X692531Y1620771D01*
Y1611630D01*
X683390D01*
X680343Y1614677D01*
X683390Y1617724D01*
X692531D01*
X698625Y1611630D02*
X704719D01*
X701673D01*
Y1623818D01*
X698625D01*
X713860D02*
Y1611630D01*
Y1617724D01*
X716908Y1620771D01*
X719955Y1623818D01*
X723002D01*
X265432Y1629912D02*
Y1611630D01*
Y1620771D01*
X277620D01*
Y1629912D01*
Y1611630D01*
X286761D02*
X292855D01*
X295902Y1614677D01*
Y1620771D01*
X292855Y1623818D01*
X286761D01*
X283714Y1620771D01*
Y1614677D01*
X286761Y1611630D01*
X301996D02*
X308090D01*
X305043D01*
Y1629912D01*
X301996D01*
X326372Y1611630D02*
X320278D01*
X317231Y1614677D01*
Y1620771D01*
X320278Y1623818D01*
X326372D01*
X329419Y1620771D01*
Y1617724D01*
X317231D01*
X353795Y1629912D02*
X365983D01*
X359889D01*
Y1611630D01*
X372077Y1623818D02*
Y1614677D01*
X375124Y1611630D01*
X384265D01*
Y1608583D01*
X381218Y1605536D01*
X378171D01*
X384265Y1611630D02*
Y1623818D01*
X390359Y1605536D02*
Y1623818D01*
X399500D01*
X402547Y1620771D01*
Y1614677D01*
X399500Y1611630D01*
X390359D01*
X417782D02*
X411688D01*
X408641Y1614677D01*
Y1620771D01*
X411688Y1623818D01*
X417782D01*
X420829Y1620771D01*
Y1617724D01*
X408641D01*
X136939Y1611630D02*
Y1629912D01*
X146080D01*
X149127Y1626865D01*
Y1620771D01*
X146080Y1617724D01*
X136939D01*
X155221Y1611630D02*
X161315D01*
X158268D01*
Y1629912D01*
X155221D01*
X173503Y1623818D02*
X179597D01*
X182644Y1620771D01*
Y1611630D01*
X173503D01*
X170456Y1614677D01*
X173503Y1617724D01*
X182644D01*
X191785Y1626865D02*
Y1623818D01*
X188738D01*
X194832D01*
X191785D01*
Y1614677D01*
X194832Y1611630D01*
X213114D02*
X207020D01*
X203974Y1614677D01*
Y1620771D01*
X207020Y1623818D01*
X213114D01*
X216161Y1620771D01*
Y1617724D01*
X203974D01*
X234444Y1629912D02*
Y1611630D01*
X225303D01*
X222256Y1614677D01*
Y1620771D01*
X225303Y1623818D01*
X234444D01*
X-147458Y1629912D02*
Y1611630D01*
Y1620771D01*
X-135270D01*
Y1629912D01*
Y1611630D01*
X-126129D02*
X-120035D01*
X-116988Y1614677D01*
Y1620771D01*
X-120035Y1623818D01*
X-126129D01*
X-129176Y1620771D01*
Y1614677D01*
X-126129Y1611630D01*
X-110894D02*
X-104800D01*
X-107847D01*
Y1629912D01*
X-110894D01*
X-86517Y1611630D02*
X-92612D01*
X-95659Y1614677D01*
Y1620771D01*
X-92612Y1623818D01*
X-86517D01*
X-83470Y1620771D01*
Y1617724D01*
X-95659D01*
X-46906Y1626865D02*
X-49953Y1629912D01*
X-56047D01*
X-59094Y1626865D01*
Y1623818D01*
X-56047Y1620771D01*
X-49953D01*
X-46906Y1617724D01*
Y1614677D01*
X-49953Y1611630D01*
X-56047D01*
X-59094Y1614677D01*
X-40812Y1611630D02*
X-34718D01*
X-37765D01*
Y1623818D01*
X-40812D01*
X-25577D02*
X-13389D01*
X-25577Y1611630D01*
X-13389D01*
X1846D02*
X-4248D01*
X-7295Y1614677D01*
Y1620771D01*
X-4248Y1623818D01*
X1846D01*
X4893Y1620771D01*
Y1617724D01*
X-7295D01*
X-272394Y1626865D02*
X-275441Y1629912D01*
X-281535D01*
X-284583Y1626865D01*
Y1614677D01*
X-281535Y1611630D01*
X-275441D01*
X-272394Y1614677D01*
X-263253Y1611630D02*
X-257159D01*
X-254112Y1614677D01*
Y1620771D01*
X-257159Y1623818D01*
X-263253D01*
X-266300Y1620771D01*
Y1614677D01*
X-263253Y1611630D01*
X-248018Y1623818D02*
Y1614677D01*
X-244971Y1611630D01*
X-235830D01*
Y1623818D01*
X-229736Y1611630D02*
Y1623818D01*
X-220595D01*
X-217548Y1620771D01*
Y1611630D01*
X-208407Y1626865D02*
Y1623818D01*
X-211454D01*
X-205360D01*
X-208407D01*
Y1614677D01*
X-205360Y1611630D01*
X-400887Y1626865D02*
X-403934Y1629912D01*
X-410028D01*
X-413075Y1626865D01*
Y1623818D01*
X-410028Y1620771D01*
X-403934D01*
X-400887Y1617724D01*
Y1614677D01*
X-403934Y1611630D01*
X-410028D01*
X-413075Y1614677D01*
X-394793Y1623818D02*
Y1614677D01*
X-391746Y1611630D01*
X-382605D01*
Y1608583D01*
X-385652Y1605536D01*
X-388699D01*
X-382605Y1611630D02*
Y1623818D01*
X-376511Y1611630D02*
Y1623818D01*
X-373464D01*
X-370417Y1620771D01*
Y1611630D01*
Y1620771D01*
X-367370Y1623818D01*
X-364323Y1620771D01*
Y1611630D01*
X-358229Y1629912D02*
Y1611630D01*
X-349088D01*
X-346041Y1614677D01*
Y1617724D01*
Y1620771D01*
X-349088Y1623818D01*
X-358229D01*
X-336900Y1611630D02*
X-330806D01*
X-327758Y1614677D01*
Y1620771D01*
X-330806Y1623818D01*
X-336900D01*
X-339947Y1620771D01*
Y1614677D01*
X-336900Y1611630D01*
X-321665D02*
X-315571D01*
X-318617D01*
Y1629912D01*
X-321665D01*
M02*
