G04*
G04 #@! TF.GenerationSoftware,Altium Limited,Altium Designer,24.4.1 (13)*
G04*
G04 Layer_Color=16711935*
%FSLAX44Y44*%
%MOMM*%
G71*
G04*
G04 #@! TF.SameCoordinates,35E0C0FB-C19D-4D04-833B-EC0655963EBE*
G04*
G04*
G04 #@! TF.FilePolarity,Positive*
G04*
G01*
G75*
%ADD10C,0.2000*%
%ADD14C,0.1270*%
%ADD63C,0.1000*%
%ADD64R,0.6187X2.9200*%
D10*
X125870Y625910D02*
G03*
X125870Y625910I-1000J0D01*
G01*
D14*
X139870Y637810D02*
X319870D01*
Y445810D02*
Y637810D01*
X139870Y445810D02*
X319870D01*
X139870D02*
Y637810D01*
D63*
X258140Y347350D02*
X267640D01*
X258140Y363850D02*
X267640D01*
X258140Y347350D02*
Y363850D01*
X267640Y347350D02*
Y363850D01*
X449910Y405760D02*
X459410D01*
X449910Y389260D02*
X459410D01*
Y405760D01*
X449910Y389260D02*
Y405760D01*
X429840Y389630D02*
X438840D01*
X429840Y406630D02*
X438840D01*
X429840Y389630D02*
Y406630D01*
X438840Y389630D02*
Y406630D01*
X407030Y524840D02*
Y534340D01*
X390530Y524840D02*
Y534340D01*
Y524840D02*
X407030D01*
X390530Y534340D02*
X407030D01*
X316560Y346070D02*
X326060D01*
X316560Y329570D02*
X326060D01*
Y346070D01*
X316560Y329570D02*
Y346070D01*
X193370Y346080D02*
X202870D01*
X193370Y362580D02*
X202870D01*
X193370Y346080D02*
Y362580D01*
X202870Y346080D02*
Y362580D01*
X226390Y347350D02*
X235890D01*
X226390Y363850D02*
X235890D01*
X226390Y347350D02*
Y363850D01*
X235890Y347350D02*
Y363850D01*
X407030Y540080D02*
Y549580D01*
X390530Y540080D02*
Y549580D01*
Y540080D02*
X407030D01*
X390530Y549580D02*
X407030D01*
X320680Y355930D02*
Y365430D01*
X337180Y355930D02*
Y365430D01*
X320680D02*
X337180D01*
X320680Y355930D02*
X337180D01*
X51930Y398150D02*
X97930D01*
X51930Y427350D02*
X97930D01*
Y398150D02*
Y427350D01*
X51930Y398150D02*
Y427350D01*
X370210Y626440D02*
Y635940D01*
X386710Y626440D02*
Y635940D01*
X370210D02*
X386710D01*
X370210Y626440D02*
X386710D01*
X320680Y369900D02*
Y379400D01*
X337180Y369900D02*
Y379400D01*
X320680D02*
X337180D01*
X320680Y369900D02*
X337180D01*
D64*
X94836Y412761D02*
D03*
M02*
