M48
;Layer_Color=9474304
;FILE_FORMAT=4:4
METRIC,LZ
;TYPE=PLATED
T01F00S00C0.2000
T02F00S00C0.7000
T03F00S00C0.7112
T04F00S00C0.9000
T05F00S00C1.2954
T06F00S00C1.3000
T07F00S00C3.0000
%
T01
X0020787Y0053471
X0022187
X0022887Y0054171
Y0055571
X0022187Y0054871
X0021487Y0055571
X0020787Y0054871
X0020087Y0055571
Y0054171
X0021487
X0020787Y0056271
X0022187
T02
X00224695Y00754475
Y00767175
X00237395
X00250095
Y00754475
X00237395
T03
X00301547Y00282893
X0035306Y0037592
X0038354Y0037084
X0033528Y0046228
X00402901Y00497246
X00240849Y00418506
X0023018Y00377358
X0018288Y0037084
X0017272Y00490134
X00100894Y00460162
X00057207Y00345862
X0022987Y0028321
X0003556Y0062611
X0001778Y0070485
X00267773Y00671236
X00294697Y00661584
Y00644312
X00299522Y00725338
X0029234Y00758754
X0029845Y0056007
X00238817Y00605734
X0040386Y0056007
T04
X0036616Y007493
X0039116
X0041616
X0044116
T05
X000635Y0006223
X001143
X0027559Y0006223
X0032639
X0010287Y0074168
X0005207
T06
X0041529Y000635
X0046609
X0014763Y0022332
X0008763Y0020332
X0002763Y0022332
Y0034532
X0014763
T07
X0019177Y0006604
X0045847Y0050546
X0018415Y0068707
M30
